<svg width="560" height="560" viewBox="0 0 560 560" xmlns="http://www.w3.org/2000/svg"><title>achievement</title><g fill="none" fill-rule="evenodd"><path d="M460 70c-52.5 0-60 45-60 60s0 30 15 30 15-15 15-30 7.5-30 30-30 30 15 30 30c0 75-90 120-135 120H205c-45 0-135-45-135-120 0-15 7.5-30 30-30s30 15 30 30 0 30 15 30 15-15 15-30-7.5-60-60-60c-37.5 0-60 30-60 60 0 90 105 150 165 150h150c60 0 165-60 165-150 0-30-22.5-60-60-60z" fill="#E6B85C"/><path d="M415 70c0-15 0-30-15-30H160c-15 0-15 15-15 30 0 255 105 225 105 255v30c0 30-45 15-45 45h150c0-30-45-15-45-45v-30c0-30 105 0 105-255z" fill="#FC6"/><path d="M415 430H145c-8.28 0-15 6.712-15 15v60c0 8.28 6.72 15 15 15h270c8.28 0 15-6.72 15-15v-60c0-8.288-6.72-15-15-15z" fill="#666"/><path fill="#E6E6E6" d="M205 460h150v30H205z"/><path d="M355 400H205s-45 0-45 30h240c0-30-45-30-45-30zm-105-45h60c8.28 0 15-6.72 15-15 0-8.288-6.72-15-15-15h-60c-8.28 0-15 6.712-15 15 0 8.28 6.72 15 15 15z" fill="#E6B85C"/><path d="M310 189.993h-15v-105h-15c-5.58 0-10.402 3.082-12.975 7.612l-27.75 27.757c-5.625 5.626-5.625 14.745 0 20.363 5.618 5.625 14.737 5.625 20.362 0l5.363-5.37v54.638h-15c-8.287 0-15 6.72-15 15.007 0 8.28 6.713 14.993 15 14.993h60c8.28 0 15-6.72 15-14.993 0-8.287-6.72-15.007-15-15.007z" fill="#CCA352"/></g></svg>