<svg width="560" height="560" viewBox="0 0 560 560" xmlns="http://www.w3.org/2000/svg"><title>akismet</title><path d="M40 298.15c0-11.34 9.786-20.532 21.858-20.532 12.072 0 21.858 9.193 21.858 20.533 0 11.34-9.786 20.533-21.858 20.533C49.786 318.683 40 309.49 40 298.15zm285.786 150.207c16.266-.364 27.692-1.455 34.276-3.275 11.62-3.274 17.43-9.46 17.43-18.554 0 .364-1.163-4.912-3.487-15.826l-29.63-74.765h-152.21l-23.237 61.12c-3.486 9.097-5.23 17.283-5.23 24.56 0 16.735 17.43 25.648 52.287 26.74V462H76.555v-13.643c15.493-.364 27.306-2.547 35.44-6.55 14.33-6.91 25.367-20.373 33.113-40.383l114.45-293.6L303.707 98l118.516 306.7c6.972 18.553 16.073 30.74 27.305 36.562 7.745 4.002 20.332 6.367 37.76 7.095V462H325.787v-13.643zM476.284 298.15c0-11.34 9.786-20.532 21.858-20.532 12.072 0 21.858 9.193 21.858 20.533 0 11.34-9.786 20.533-21.858 20.533-12.072 0-21.858-9.192-21.858-20.532zM337.986 317.93l-68.553-179.544h-1.162l-69.133 179.544h138.85z" fill="#000" fill-rule="evenodd"/></svg>