<svg width="560" height="560" viewBox="0 0 560 560" xmlns="http://www.w3.org/2000/svg"><title>app</title><g fill="none" fill-rule="evenodd"><path d="M505 471H55c-8.28 0-15 6.712-15 15 0 8.28 6.72 15 15 15h450c8.28 0 15-6.72 15-15 0-8.288-6.72-15-15-15z" fill="#999"/><path fill="#CCC" d="M70 201h420v270H70z"/><path d="M430 216H130c-8.28 0-15 6.72-15 15v240h180v-75h135c8.28-.005 15-6.718 15-15V231c0-8.28-6.72-15-15-15z" fill="#E6E6E6"/><path d="M145 441h120V246H145v195zm150-195v120h120V246H295z" fill="#48A0DC"/><path d="M40 261c0 16.567 13.432 30 30 30 16.567 0 30-13.433 30-30v-60H40v60zm120 0c0 16.567 13.433 30 30 30s30-13.433 30-30v-60h-60v60zm120 0c0 16.567 13.433 30 30 30s30-13.433 30-30v-60h-60v60zm120-60v60c0 16.567 13.433 30 30 30s30-13.433 30-30v-60h-60z" fill="#ED7261"/><path d="M40 201h60l45-90h-45l-60 90zm120 0h60l15-90h-45l-30 90zm120-90v90h60l-15-90h-45zm135 0h-45l30 90h60l-45-90z" fill="#BA594C"/><path d="M100 261c0 16.567 13.433 30 30 30s30-13.433 30-30v-60h-60v60zm120 0c0 16.567 13.433 30 30 30s30-13.433 30-30v-60h-60v60zm120 0c0 16.567 13.433 30 30 30s30-13.433 30-30v-60h-60v60zm120-60v60c0 16.567 13.433 30 30 30s30-13.433 30-30v-60h-60z" fill="#E6E6E6"/><path d="M460 111h-45l45 90h60l-60-90zm-135 0l15 90h60l-30-90h-45zm-105 90h60v-90h-45l-15 90zm-120 0h60l30-90h-45l-45 90z" fill="#CCC"/><path d="M445 51H115c-8.28 0-15 6.72-15 15v45h360V66c0-8.28-6.72-15-15-15z" fill="#E6E6E6"/></g></svg>