<svg width="560" height="560" viewBox="0 0 560 560" xmlns="http://www.w3.org/2000/svg"><title>arrow_up</title><path d="M468.28 211.72l-160-160C301.04 44.48 291.04 40 280 40c-11.06 0-21.06 4.48-28.28 11.72l-160 160C84.48 218.96 80 228.94 80 240c0 22.08 17.92 40 40 40 11.04 0 21.04-4.48 28.28-11.72l92.08-92.08V480c0 22.1 17.74 40 39.62 40s39.64-17.9 39.64-40V176.2l92.08 92.08c7.24 7.24 17.24 11.72 28.3 11.72 22.08 0 40-17.92 40-40 0-11.06-4.5-21.04-11.72-28.28z" fill="#0093E6" fill-rule="evenodd"/></svg>