<svg width="560" height="560" viewBox="0 0 560 560" xmlns="http://www.w3.org/2000/svg"><title>arrow_right</title><path d="M508.28 251.72l-159.98-160C341.06 84.48 331.06 80 320 80c-22.08 0-40 17.92-40 40 0 11.06 4.5 21.06 11.72 28.28l92.08 92.08H80c-22.08 0-40 17.76-40 39.62 0 21.92 17.92 39.64 40 39.64h303.8l-92.08 92.08C284.5 418.96 280 428.96 280 440c0 22.08 17.92 40 40 40 11.06 0 21.06-4.48 28.3-11.7l159.98-160c7.24-7.24 11.72-17.24 11.72-28.3 0-11.04-4.48-21.06-11.72-28.28z" fill="#0093E6" fill-rule="evenodd"/></svg>