<svg width="560" height="560" viewBox="0 0 560 560" xmlns="http://www.w3.org/2000/svg"><title>arrow_down</title><path d="M440.007 279.99c-11.06 0-21.04 4.46-28.282 11.72l-92.083 92.084V79.982c0-22.08-17.76-39.982-39.622-39.982-21.9 0-39.642 17.9-39.642 39.982v303.812l-92.083-92.084c-7.24-7.26-17.24-11.72-28.302-11.72-22.08 0-40 17.9-40 39.982 0 11.08 4.48 21.08 11.72 28.3L251.718 508.28C258.94 515.52 268.94 520 280 520c11.06 0 21.06-4.48 28.28-11.72L468.29 348.273c7.24-7.22 11.72-17.22 11.72-28.3 0-22.082-17.92-39.983-40-39.983z" fill="#0093E6" fill-rule="evenodd"/></svg>