<svg width="560" height="560" viewBox="0 0 560 560" xmlns="http://www.w3.org/2000/svg"><title>bold</title><path d="M421.035 260.1c32.498-21.464 53.955-58.273 53.955-100.123C474.99 93.715 421.268 40 354.998 40c-.052 0-.105.007-.157.007H70c-8.28 0-15 6.713-15 14.993 0 8.28 6.72 15.007 15 15.007h15.15c33.067.083 59.85 26.91 59.85 60v299.99c0 33.143-26.865 60-60 60H70c-8.28 0-15 6.72-15 15.008 0 8.272 6.72 14.992 15 14.992h299.998c74.55 0 134.992-60.442 134.992-134.976 0-56.474-34.717-104.79-83.955-124.92zM235 70.008H297.6c48.488 1.395 87.39 41.093 87.39 89.955 0 49.417-39.75 89.49-88.986 90.037H235V70.006zm75 419.975v.015h-75V280h75v-.204c57.92.09 104.848 47.092 104.848 105.097 0 58.005-46.927 105-104.85 105.09z" fill="#E75F45" fill-rule="evenodd"/></svg>