<svg width="560" height="560" viewBox="0 0 560 560" xmlns="http://www.w3.org/2000/svg"><title>checkin</title><path d="M279.99 40C166.475 40 74.448 121.248 74.448 221.466c0 1.937 1.028 48.602 18.697 81.848C143.767 406.43 279.837 520.597 279.99 519.998c.224.377 135.694-113.158 186.575-216.05 15.08-24.386 18.988-78.49 18.988-82.482C485.553 121.248 393.526 40 279.99 40zm.036 274.248c-37.685 0-68.24-30.693-68.24-68.55 0-37.873 30.555-68.53 68.24-68.53 37.685 0 68.223 30.657 68.223 68.53 0 37.857-30.54 68.55-68.224 68.55z" fill="#48A0DC" fill-rule="evenodd"/></svg>