<svg width="560" height="560" viewBox="0 0 560 560" xmlns="http://www.w3.org/2000/svg"><title>checkbox</title><g fill="none" fill-rule="evenodd"><path d="M460 40H100c-16.567 0-30 13.425-30 30v419.993C70 506.567 83.433 520 100 520h255l135-135V70c0-16.575-13.433-30-30-30zM265 280h-90c-8.28 0-15 6.72-15 15 0 8.28 6.72 15 15 15h90c8.28 0 15-6.72 15-15 0-8.28-6.72-15-15-15zm0-105h-90c-8.28 0-15 6.72-15 15 0 8.28 6.72 15 15 15h90c8.28 0 15-6.72 15-15 0-8.28-6.72-15-15-15zm63.217 40.11c1.56 1.56 3.375 2.707 5.303 3.465 5.595 2.573 12.413 1.598 17.018-3l44.91-44.91c5.91-5.917 5.91-15.502 0-21.405-5.91-5.917-15.488-5.917-21.405 0l-33.893 33.885-3.84-3.855c-6.053-6.06-15.855-6.06-21.908 0-6.052 6.067-6.052 15.885 0 21.953l13.815 13.867zm45.826 39.135L340.15 288.13l-3.84-3.855c-6.053-6.06-15.855-6.06-21.908 0-6.052 6.067-6.052 15.885 0 21.953l13.808 13.882c1.56 1.56 3.36 2.7 5.288 3.457 5.594 2.58 12.42 1.613 17.032-2.992l44.91-44.91c5.91-5.91 5.91-15.495 0-21.405-5.91-5.933-15.488-5.933-21.397-.015z" fill="#4BC2B8"/><path d="M385 385c-16.567 0-30 13.433-30 30v105l135-135H385z" fill="#638C3F"/></g></svg>