<svg width="560" height="560" viewBox="0 0 560 560" xmlns="http://www.w3.org/2000/svg"><title>city</title><g fill="none" fill-rule="evenodd"><path d="M501.538 483.084H58.462c-8.153 0-14.77 6.61-14.77 14.77 0 8.152 6.617 14.77 14.77 14.77h443.076c8.153 0 14.77-6.618 14.77-14.77 0-8.16-6.617-14.77-14.77-14.77z" fill="#999"/><path d="M472 158.154H235.692c-8.152 0-14.77 6.616-14.77 14.776v310.154H486.77V172.93c0-8.16-6.617-14.776-14.77-14.776z" fill="#CCC"/><path d="M339.077 187.692v29.546H457.23v-29.546H339.078zm0 88.623H457.23V246.77H339.078v29.545zm0 59.077H457.23v-29.538H339.078v29.538zm0 59.077H457.23v-29.54H339.078v29.54zm0 59.076H457.23v-29.54H339.078v29.54z" fill="#387BA8"/><path d="M339.077 128.615h88.615v29.546h-88.615z" fill="#B3B3B3"/><path d="M324.308 40H88c-8.153 0-14.77 6.617-14.77 14.77v428.314h265.847V54.77c0-8.153-6.617-14.77-14.77-14.77z" fill="#E6E6E6"/><path d="M102.77 158.16h206.768v-29.545h-206.77v29.546zm0 177.232h206.768v-29.538h-206.77v29.538zm0-59.077h206.768V246.77h-206.77v29.545zm0-59.077h206.768v-29.546h-206.77v29.546zm0 177.23h206.768V364.93h-206.77v29.54zm0 59.078h206.768v-29.54h-206.77v29.54zm0-384.008v29.546h206.768V69.538h-206.77z" fill="#48A0DC"/></g></svg>