<svg width="560" height="560" viewBox="0 0 560 560" xmlns="http://www.w3.org/2000/svg"><title>click</title><path d="M509.243 451.744l-141.76-141.702 119.65-73.086c8.262-5.657 18.022-12.218 18.022-23.548-.008-11.088-7.352-20.19-17.383-23.403L65.548 41.965c-6.975-2.37-15.215-4.078-20.95 1.65-5.728 5.722-4.008 13.974-1.64 20.945l147.95 422.454c3.217 10.04 12.312 17.386 23.4 17.386 11.32 0 17.887-9.76 23.542-18.027l73.044-119.717L452.51 508.51c15.67 15.672 41.086 15.672 56.74 0 15.672-15.655 15.664-41.086-.007-56.766z" fill="#0093E6" fill-rule="evenodd"/></svg>