<svg width="560" height="560" viewBox="0 0 560 560" xmlns="http://www.w3.org/2000/svg"><title>clock</title><g fill="none" fill-rule="evenodd"><path d="M280 40C147.445 40 40 147.453 40 280c0 132.555 107.445 240 240 240 132.548 0 240-107.445 240-240 0-132.548-107.452-240-240-240zm0 450c-115.98 0-210-94.02-210-210S164.02 70 280 70s210 94.02 210 210-94.02 210-210 210z" fill="#ED7161"/><path d="M395.462 373.773l-86.467-86.453c.592-2.355 1.005-4.785 1.005-7.32 0-11.077-6.075-20.64-15-25.837v-79.17c0-8.273-6.72-14.993-15-14.993-8.28 0-15 6.72-15 14.993v79.17c-8.925 5.197-15 14.767-15 25.837 0 16.575 13.432 30 30 30 2.535 0 4.958-.412 7.313-1.005l86.46 86.468c5.992 5.985 15.697 5.985 21.69 0 5.984-5.985 5.984-15.698 0-21.69z" fill="#999"/></g></svg>