<svg width="560" height="560" viewBox="0 0 560 560" xmlns="http://www.w3.org/2000/svg"><title>codesnippet</title><g fill="none" fill-rule="evenodd"><path d="M460 70H100c-16.568 0-30 13.432-30 30v390c0 16.567 13.432 30 30 30h360c16.567 0 30-13.433 30-30V100c0-16.568-13.433-30-30-30z" fill="#4BC2B8"/><path d="M445 100H115c-8.28 0-15 6.72-15 15v360c0 8.28 6.72 15 15 15h330c8.28 0 15-6.72 15-15V115c0-8.28-6.72-15-15-15z" fill="#FFF"/><path d="M175 220h210c8.288 0 15-6.72 15-15 0-8.28-6.712-15-15-15H175c-8.287 0-15 6.72-15 15 0 8.28 6.713 15 15 15zm210 90H175c-8.287 0-15 6.72-15 15 0 8.28 6.713 15 15 15h210c8.288 0 15-6.72 15-15 0-8.28-6.72-15-15-15zm-210-30h120c8.287 0 15-6.72 15-15 0-8.28-6.713-15-15-15H175c-8.287 0-15 6.72-15 15 0 8.28 6.713 15 15 15zm120 90H175c-8.287 0-15 6.72-15 15 0 8.28 6.713 15 15 15h120c8.28 0 15-6.72 15-15 0-8.28-6.72-15-15-15z" fill="#CCC"/><path d="M340 70h-30c0-16.568-13.433-30-30-30s-30 13.432-30 30h-30c-16.567 0-30 13.432-30 30 0 16.567 13.433 30 30 30h120c16.567 0 30-13.433 30-30 0-16.568-13.433-30-30-30z" fill="#666"/></g></svg>