<svg width="560" height="560" viewBox="0 0 560 560" xmlns="http://www.w3.org/2000/svg"><title>comments</title><g fill="#000" fill-rule="evenodd"><path d="M171.638 323.77c-10.97-1.536-21.634-3.906-31.854-7.095-4.44-1.385-9.222-1.18-13.526.58L4.6 366.997 29.63 395.27l48.663-87.05c4.732-8.464 2.71-19.102-4.795-25.24-33.766-27.617-53.49-68.402-53.49-110.503 0-83.325 82.915-152.47 186.816-152.47 103.902 0 186.818 69.145 186.818 152.47 0 11.045 8.954 20 20 20 11.045 0 20-8.955 20-20 0-107.186-102.268-192.47-226.817-192.47-124.547 0-226.815 85.284-226.815 192.47 0 54.218 25.198 106.323 68.166 141.465l-4.794-25.24-48.663 87.048c-9.234 16.518 7.51 35.434 25.027 28.272l121.656-49.742-7.57-18.513-5.956 19.093c12.327 3.846 25.12 6.69 38.22 8.524 10.94 1.532 21.05-6.094 22.58-17.033 1.533-10.938-6.093-21.048-17.032-22.58z"/><path d="M198.982 385.51c0 58.69 32.445 112.392 84.048 144.085 52.35 32.15 117.135 37.373 175.372 10.915l-15.43.467 97.325 37.306c16.96 6.5 33.105-11.147 25.124-27.463l-36.496-74.613-5.304 24.27c36.413-29.782 56-69.517 56-114.966 0-91.412-87.208-169.226-190.318-169.226-103.102 0-190.32 77.817-190.32 169.227zm40 0c0-68.237 68.357-129.226 150.32-129.226 81.97 0 150.32 60.986 150.32 129.227 0 33.217-14.033 61.68-41.326 84.004-7.187 5.878-9.383 15.93-5.304 24.27l36.497 74.612 25.124-27.463-97.326-37.307c-4.998-1.916-10.557-1.748-15.43.466-45.875 20.842-96.65 16.748-137.894-8.582-40.16-24.665-64.982-65.75-64.982-110z"/></g></svg>