<svg width="560" height="560" viewBox="0 0 560 560" xmlns="http://www.w3.org/2000/svg"><title>component</title><g fill="none" fill-rule="evenodd"><path fill="#FFC600" d="M40 40h240v240H40z"/><circle fill="#E6A900" cx="160" cy="190" r="75"/><circle fill="#FFE557" cx="160" cy="160" r="75"/><path fill="#F54B4F" d="M280 40h240v240H280z"/><circle fill="#AC2531" cx="400" cy="190" r="75"/><circle fill="#FF6F6A" cx="400" cy="160" r="75"/><path fill="#87DF31" d="M280 280h240v240H280z"/><circle fill="#5F9F20" cx="400" cy="430" r="75"/><circle fill="#ADF369" cx="400" cy="400" r="75"/><path fill="#4BBBF5" d="M40 280h240v240H40z"/><circle fill="#288BBE" cx="160" cy="430" r="75"/><circle fill="#84D5FE" cx="160" cy="400" r="75"/><path d="M190 145h-60c-8.28 0-15 6.72-15 15 0 8.28 6.72 15 15 15h60c8.28 0 15-6.72 15-15 0-8.28-6.72-15-15-15z" fill="#E6A900"/><path d="M430 145h-60c-8.28 0-15 6.72-15 15 0 8.28 6.72 15 15 15h60c8.28 0 15-6.72 15-15 0-8.28-6.72-15-15-15z" fill="#AF2732"/><path d="M430 385h-60c-8.28 0-15 6.72-15 15 0 8.28 6.72 15 15 15h60c8.28 0 15-6.72 15-15 0-8.28-6.72-15-15-15z" fill="#5F9F20"/><path d="M190 385h-60c-8.28 0-15 6.72-15 15 0 8.28 6.72 15 15 15h60c8.28 0 15-6.72 15-15 0-8.28-6.72-15-15-15z" fill="#2A8DC0"/></g></svg>