<svg width="560" height="560" viewBox="0 0 560 560" xmlns="http://www.w3.org/2000/svg"><title>cross</title><path d="M280 40C147.445 40 40 147.415 40 279.993c0 132.517 107.445 239.992 240 239.992 132.54 0 240-107.475 240-239.993C520 147.416 412.54 40 280 40zm21.067 239.985l49.635-49.635c5.813-5.805 5.813-15.248 0-21.067-5.82-5.813-15.247-5.813-21.075 0L280 258.918l-49.635-49.636c-5.813-5.812-15.248-5.812-21.067 0-5.82 5.813-5.82 15.255 0 21.068l49.635 49.635-49.635 49.635c-5.82 5.813-5.82 15.248 0 21.067 5.812 5.82 15.247 5.82 21.067 0L280 301.053l49.627 49.635c5.82 5.82 15.248 5.82 21.075 0 5.813-5.812 5.813-15.247 0-21.067l-49.635-49.635z" fill="#E75F45" fill-rule="evenodd"/></svg>