<svg width="560" height="560" viewBox="0 0 560 560" xmlns="http://www.w3.org/2000/svg"><title>dashboard</title><g fill="none" fill-rule="evenodd"><path d="M280 40C147.452 40 40 147.445 40 280c0 132.548 107.452 240 240 240s240-107.452 240-240c0-132.555-107.452-240-240-240zm0 450c-115.98 0-210-94.02-210-210S164.02 69.993 280 69.993 490 164.02 490 280s-94.02 210-210 210z" fill="#CCC"/><path d="M257.5 160c67.882 0 123.217 53.1 127.125 120H445c0-91.125-73.875-165-165-165s-165 73.875-165 165h15.375c3.907-66.9 59.243-120 127.125-120z" fill="#E75F45"/><path d="M280 220s-45 110.152-45 135 20.145 45.007 45 45.007c24.848 0 45-20.16 45-45.007 0-24.848-45-135-45-135z" fill="#999"/></g></svg>