<svg width="560" height="560" viewBox="0 0 560 560" xmlns="http://www.w3.org/2000/svg"><title>desktop</title><g fill="none" fill-rule="evenodd"><path d="M490 40H70c-16.568 0-30 13.425-30 30v330c0 16.567 13.432 30 30 30h420c16.567 0 30-13.433 30-30V70c0-16.575-13.433-30-30-30z" fill="#CCC"/><path d="M490 40H70c-16.568 0-30 13.425-30 30v300h480V70c0-16.575-13.433-30-30-30z" fill="#4D4D4D"/><path d="M475 70H85c-8.28 0-15 6.712-15 15v240c0 8.28 6.72 15 15 15h390c8.28 0 15-6.72 15-15V85c0-8.288-6.72-15-15-15z" fill="gray"/><path d="M340 430H220l-15 90h150l-15-90z" fill="#B3B3B3"/><path d="M370 490H190c-16.567 0-30 13.425-30 30h240c0-16.575-13.433-30-30-30z" fill="#CCC"/></g></svg>