<svg width="560" height="560" viewBox="0 0 560 560" xmlns="http://www.w3.org/2000/svg"><title>download</title><g fill="none" fill-rule="evenodd"><path d="M444.64 247.5c.053-1.523.233-3.007.233-4.545C444.865 168.42 384.408 108 309.834 108c-55.785 0-103.65 33.818-124.237 82.058-10.133-4.455-21.316-6.968-33.09-6.968-45.526 0-82.44 36.945-82.44 82.507 0 2.903.157 5.768.45 8.588C51.654 293.145 40 319.252 40 348.097 40 406.035 86.995 453 144.963 453c.082 0 .157-.007.232-.007V453h269.603v-.007c.075 0 .15.007.224.007C472.998 453 520 406.035 520 348.097c0-47.655-31.822-87.817-75.36-100.597z" fill="#0093E6"/><path d="M335.125 307.395c-6.075-6.053-15.923-6.053-21.998 0L295 325.462V243c0-8.288-6.72-15.008-15-15.008-8.287 0-15 6.72-15 15.008v83.175l-18.683-18.75c-6.052-6.075-15.855-6.075-21.907 0-6.053 6.067-6.053 15.907 0 21.982l43.815 43.943c2.43 2.445 5.475 3.825 8.632 4.305 1.013.217 2.063.345 3.143.345 4.215 0 8.002-1.748 10.732-4.538.128-.112.278-.18.398-.3l43.995-43.845c6.067-6.06 6.067-15.862 0-21.922z" fill="#FFF"/></g></svg>