<svg width="560" height="560" viewBox="0 0 560 560" xmlns="http://www.w3.org/2000/svg"><title>draft</title><g fill="none" fill-rule="evenodd"><path d="M451.43 40H108.57C92.794 40 80 53.425 80 70v419.993C80 506.567 92.793 520 108.57 520h242.86L480 385V70c0-16.575-12.793-30-28.57-30zM194.556 324.692l52.464-18.375-34.97-36.742-17.493 55.118zm163.78-172.11c-9.666-10.154-25.316-10.154-34.973 0L229.536 251.2l34.97 36.743 93.83-98.618c9.65-10.14 9.65-26.595 0-36.742z" fill="#CCC"/><path d="M380.667 385C364.837 385 352 398.433 352 415v105l129-135H380.667z" fill="#999"/></g></svg>