<svg width="560" height="560" viewBox="0 0 560 560" xmlns="http://www.w3.org/2000/svg"><title>email</title><g fill="none" fill-rule="evenodd"><path d="M519.352 249.882c.067-6.892-2.854-13.807-8.87-19.066L301.305 47.806c-11.89-10.405-31.163-10.405-43.052 0L49.068 230.816c-6.128 5.372-8.967 12.04-8.78 19.066v239.72c0 16.554 13.417 29.964 29.965 29.964h419.51c16.547 0 29.964-13.41 29.964-29.965l-.375-239.718z" fill="#CCC"/><path d="M280.007 409.43l164.807-141.427V130.03c0-16.55-13.416-29.965-29.965-29.965H145.165c-16.55 0-29.965 13.416-29.965 29.964v137.973L280.008 409.43z" fill="#CCC"/><path d="M290.623 441.17c-2.652 2.21-5.836 3.124-9.05 3.31-.524.083-1.034.15-1.566.158-.54-.015-1.04-.082-1.573-.157-3.206-.186-6.397-1.1-9.042-3.31L70.252 270.123v204.495c0 8.27 6.713 14.99 14.984 14.99H474.78c8.27 0 14.982-6.712 14.982-14.99V270.123L290.622 441.17z" fill="#FFF"/><path d="M399.867 130.022h-239.72c-8.27 0-14.98 6.712-14.98 14.982v148.61l134.84 115.823L414.85 293.615v-148.61c0-8.278-6.713-14.983-14.983-14.983z" fill="#FFF"/><path d="M309.972 249.882h-89.894c-8.27 0-14.983 6.712-14.983 14.982s6.712 14.982 14.983 14.982h89.894c8.27 0 14.983-6.712 14.983-14.982s-6.712-14.982-14.983-14.982zm29.965-59.93h-119.86c-8.27 0-14.982 6.712-14.982 14.982s6.712 14.983 14.983 14.983h119.86c8.27 0 14.982-6.712 14.982-14.983 0-8.27-6.712-14.982-14.983-14.982z" fill="#CCC"/></g></svg>