<svg width="560" height="560" viewBox="0 0 560 560" xmlns="http://www.w3.org/2000/svg"><title>emit</title><g fill="none" fill-rule="evenodd"><path d="M511.464 184.842c-61.877-64.402-144.138-99.88-231.63-99.88-87.498 0-169.766 35.478-231.636 99.903-10.926 11.375-10.926 29.795 0 41.18 5.463 5.68 12.613 8.534 19.777 8.534 7.15 0 14.313-2.856 19.776-8.536 51.312-53.432 119.53-79.72 192.092-79.72 72.564 0 140.773 26.28 192.077 79.69 10.932 11.368 28.633 11.375 39.55 0 10.92-11.376 10.912-29.796-.006-41.172z" fill="#CCC"/><path d="M279.925 414.815c-16.63 0-30.103 13.4-30.103 29.938 0 16.524 13.474 29.93 30.103 29.93 16.614 0 30.095-13.406 30.095-29.93-.007-16.54-13.49-29.938-30.095-29.938zM450.74 275.16c-45.72-45.392-106.503-70.384-171.16-70.384s-125.448 24.992-171.168 70.39c-11.406 11.338-11.406 29.706 0 41.044 5.71 5.658 13.19 8.498 20.66 8.498 7.48 0 14.95-2.84 20.66-8.498 34.683-34.45 80.793-55.29 129.848-55.29 49.055 0 95.165 20.84 129.847 55.29 11.413 11.316 29.908 11.316 41.314-.015 11.406-11.33 11.406-29.698 0-41.036zm-170.898 34.47c-36.57 0-70.952 14.69-96.813 41.33-10.71 11.053-10.71 28.94 0 39.98 5.357 5.507 12.37 8.273 19.393 8.273 7.022 0 14.036-2.758 19.394-8.274 15.497-15.985 36.106-25.72 58.025-25.72 21.912 0 42.528 9.735 58.018 25.697 10.716 11.046 28.08 11.046 38.796 0 10.7-11.03 10.7-28.934-.015-39.973-25.853-26.64-60.235-41.313-96.798-41.313z" fill="#0093E6"/></g></svg>