<svg width="560" height="560" viewBox="0 0 560 560" xmlns="http://www.w3.org/2000/svg"><title>exit</title><path d="M344.02 81.395v68.164c56.387 24.69 95.814 80.933 95.814 146.41 0 88.293-71.557 159.834-159.82 159.834-88.26 0-159.834-71.557-159.834-159.835 0-65.493 39.443-121.72 95.83-146.41V81.394C123.493 108.933 56 194.505 56 295.985 56 419.705 156.295 520 280.015 520c123.704 0 224-100.295 224-224.015 0-101.463-67.494-187.036-159.996-214.59zm-64.005 150.618c17.665 0 32.002-14.337 32.002-32.002V72.003C312.017 54.337 297.68 40 280.015 40c-17.665 0-32.002 14.337-32.002 32.002v128.01c0 17.664 14.337 32 32.002 32z" fill="#E75F45" fill-rule="evenodd"/></svg>