<svg width="560" height="560" viewBox="0 0 560 560" xmlns="http://www.w3.org/2000/svg"><title>filter</title><path d="M503.96 40H56.04c-13.546 0-20.97 15.774-12.337 26.212l194.75 235.485-3.673-10.203V503.96c0 14.26 17.242 21.404 27.327 11.32l58.425-58.43c3.002-3.002 4.688-7.074 4.688-11.32V291.495l-3.672 10.203 194.75-235.485C524.927 55.774 517.505 40 503.96 40zm0 32.018l-12.334-26.212-194.75 235.485c-2.373 2.87-3.672 6.48-3.672 10.204V445.53l4.69-11.32-58.426 58.43 27.328 11.32V291.493c0-3.724-1.3-7.333-3.673-10.203L68.373 45.807 56.04 72.018h447.92z" fill="#000" fill-rule="evenodd"/></svg>