<svg width="560" height="560" viewBox="0 0 560 560" xmlns="http://www.w3.org/2000/svg"><title>ghost</title><g fill="none" fill-rule="evenodd"><path d="M501.25 279.925C501.212 147.415 400.488 40 276.25 40c-124.26 0-225 107.453-225 240 0 .105.007.202.007.308v194.625c0 14.992 30 44.992 45 44.992s45-30 45-44.993c0-15 30-45 45-45s45 30 45 45c0 14.993 30 44.993 45 44.993s45-30 45-44.993c0-15 30-45 45-45s45 30 45 45c0 14.993 30 44.993 45 44.993s45-30 45-44.993l-.007-195.007z" fill="#F06EAA"/><path d="M396.25 175c-33.135 0-60 26.865-60 60 0 33.135 26.865 60 60 60 33.142 0 60-26.865 60-60 0-33.135-26.858-60-60-60zm-165 0c-33.135 0-60 26.865-60 60 0 33.135 26.865 60 60 60 33.142 0 60-26.865 60-60 0-33.135-26.858-60-60-60z" fill="#FFF"/><path d="M426.25 220c-16.567 0-30 13.432-30 30 0 16.568 13.433 30 30 30s30-13.432 30-30c0-16.568-13.433-30-30-30zm-165 0c-16.568 0-30 13.432-30 30 0 16.568 13.432 30 30 30 16.568 0 30-13.432 30-30 0-16.568-13.432-30-30-30z" fill="#4D4D4D"/></g></svg>