<svg width="560" height="560" viewBox="0 0 560 560" xmlns="http://www.w3.org/2000/svg"><title>heart</title><path d="M520 187.5C520 117.082 462.918 60 392.5 60c-48.728 0-91.043 27.353-112.5 67.53C258.543 87.353 216.227 60 167.5 60 97.082 60 40 117.082 40 187.5c0 39.06 17.61 73.973 45.278 97.365l-.278.127S247.067 458.356 258.783 470.73c11.722 12.36 30.712 12.36 42.427 0C312.933 458.355 475 284.992 475 284.992l-.277-.127C502.39 261.473 520 226.56 520 187.5z" fill="#E75F45" fill-rule="evenodd"/></svg>