<svg width="560" height="560" viewBox="0 0 560 560" xmlns="http://www.w3.org/2000/svg"><title>instagram</title><path d="M427.236 40H132.764C81.614 40 40 81.605 40 132.756v294.489C40 478.394 81.614 520 132.764 520h294.48C478.397 520 520 478.395 520 427.244V132.747C519.99 81.595 478.386 40 427.236 40zm27.936 53.222l10.522-.038v80.669l-80.4.26-.28-80.66 70.158-.23zM214.874 227.488c15.245-21.09 39.975-34.925 67.93-34.925 27.955 0 52.685 13.834 67.91 34.925 9.917 13.766 15.86 30.605 15.86 48.845 0 46.185-37.613 83.76-83.78 83.76-46.195 0-83.77-37.575-83.77-83.76.01-18.24 5.934-35.08 15.85-48.845zM474.39 422.32c0 25.162-20.456 45.6-45.6 45.6H136.818c-25.152 0-45.61-20.438-45.61-45.6V227.488h71.04c-6.134 15.09-9.58 31.574-9.58 48.845 0 71.74 58.367 130.147 130.137 130.147 71.76 0 130.128-58.406 130.128-130.147 0-17.27-3.466-33.754-9.6-48.845h71.06V422.32z" fill="#517694" fill-rule="evenodd"/></svg>