<svg width="560" height="560" viewBox="0 0 560 560" xmlns="http://www.w3.org/2000/svg"><title>intercom</title><path d="M40 340.965v99.033C40 484.18 75.817 520 120 520h320c44.184 0 80-35.82 80-80.002v-320C520 75.815 484.184 40 440 40H120c-44.183 0-80 35.815-80 79.998v220.967zm400.02 86.047c0-7.877-6.398-14.278-14.285-14.278-1.996 0-3.903.408-5.638 1.153l-.023-.042c-99.35 42.723-180.763 42.723-280.108 0l-.03.042c-1.73-.746-3.632-1.153-5.632-1.153-7.893 0-14.288 6.402-14.288 14.278 0 5.89 3.558 10.942 8.648 13.12l-.015.06c106.35 45.724 196.394 45.724 302.753 0l-.024-.06c5.08-2.178 8.64-7.23 8.64-13.12zM120 148.578c-8.836 0-16 7.165-16 16.002v112c0 8.835 7.164 15.997 16 15.997s16-7.162 16-15.997v-112c0-8.837-7.163-16.002-16-16.002zm320 0c-8.836 0-16 7.165-16 16.002v112c0 8.835 7.164 15.997 16 15.997s16-7.162 16-15.997v-112c0-8.837-7.164-16.002-16-16.002zm-64-40.002c-8.837 0-16 7.164-16 16.002v192c0 8.836 7.163 16 16 16s16-7.164 16-16v-192c0-8.838-7.163-16.002-16-16.002zm-192 0c-8.837 0-16 7.164-16 16.002v192c0 8.836 7.163 16 16 16 8.836 0 15.998-7.164 15.998-16v-192c.002-8.838-7.16-16.002-16-16.002zM312 84.58c-8.838 0-16 7.162-16 15.997v240c0 8.84 7.162 16.003 16 16.003 8.836 0 16-7.164 16-16.003v-240c0-8.835-7.164-15.997-16-15.997zm-64 0c-8.836 0-16 7.162-16 15.997v240c0 8.84 7.164 16.003 16 16.003s16-7.164 16-16.003v-240c0-8.835-7.164-15.997-16-15.997z" fill="#626A85" fill-rule="evenodd"/></svg>