<svg width="560" height="560" viewBox="0 0 560 560" xmlns="http://www.w3.org/2000/svg"><title>italic</title><path d="M415 40H235c-8.28 0-15 6.72-15 15.007 0 8.288 6.72 15 15 15h15v.008c30 0 33.63 15.442 30 30L190 460c-3.637 14.528-14.97 29.948-29.94 29.993H145c-8.28 0-15 6.72-15 15.007 0 8.288 6.72 15 15 15h180c8.28 0 15-6.72 15-15 0-8.28-6.72-15.007-15-15.007h-15.217C279.993 489.91 276.37 474.52 280 460l90-359.986c3.637-14.557 15-30 30-30v-.007h15c8.28 0 15-6.72 15-15C430 46.727 423.28 40 415 40z" fill="#E75F45" fill-rule="evenodd"/></svg>