<svg width="560" height="560" viewBox="0 0 560 560" xmlns="http://www.w3.org/2000/svg"><title>key</title><path d="M365.71 40c-85.213 0-154.28 69.066-154.28 154.28 0 15.96 2.435 31.353 6.91 45.84L60.22 398.24c-14.88 14.895-20.21 53.19-20.21 53.19L108.577 520v-34.284h68.57v-68.57h68.568V348.58l44.775-19.645c22.27 12.48 47.896 19.645 75.22 19.645 85.215 0 154.28-69.067 154.28-154.298C519.99 109.066 450.926 40 365.71 40zm17.143 171.44c-18.925 0-34.284-15.36-34.284-34.285 0-18.925 15.358-34.284 34.283-34.284 18.926 0 34.285 15.36 34.285 34.285 0 18.925-15.36 34.285-34.285 34.285z" fill="#4BC2B8" fill-rule="evenodd"/></svg>