<svg width="560" height="560" viewBox="0 0 560 560" xmlns="http://www.w3.org/2000/svg"><title>kissmetrics</title><path d="M519.922 193.253c-.004 1.37-.004 1.37-.024 2.736l.102 2.842c-.1 4.243-.1 4.243-.1 9.477l.006 31.102.01 94.31c0 30.026.002 51.474.004 94.37 0 34.315 0 34.315.002 42.894 0 27.053-21.988 49.014-49.115 49.014H196.583c-1.366-.004-1.366-.004-2.458-.002C108.603 520 40 451.386 40 366.748c0-82.633 65.513-150.32 147.832-153.16l24.87-.86.857-24.872C216.4 105.524 284.074 40 366.693 40c84.625 0 153.228 68.614 153.228 153.253zM374.52 477.155h-77.097V152.657h77.096v324.498zm96.37-9.986c-3.956 3.967-8.513 7.344-13.526 9.985h-63.57v-202.41h77.095V467.17zm-195.953 9.985H197.84V316.512h77.097v160.643zm-96.37-93.173v90.42c-39.314-15.456-69.378-49.075-79.67-90.42h79.67z" fill="#0093E6" fill-rule="evenodd"/></svg>