<svg width="560" height="560" viewBox="0 0 560 560" xmlns="http://www.w3.org/2000/svg"><title>like</title><g fill="none" fill-rule="evenodd"><path d="M175 249.993H69.993C53.425 249.993 40 263.433 40 280l29.992 165c0 16.567 13.433 30 30 30H175c16.567 0 29.993-13.433 29.993-30V280c0-16.567-13.425-30.008-29.993-30.008z" fill="#48A0DC"/><circle cx="15" cy="15" r="15" transform="translate(130 415)" fill="#FFF"/><path d="M490 295c16.567 0 30-13.433 30-30 0-16.575-13.433-30-30-30l-128.4 11.678c4.74-15.96 8.4-35.145 8.4-56.67C370 128.124 351.722 85 325 85s-30 30.008-30 30.008V175c0 21.09-16.147 63.945-30 74.993C249.655 262.24 204.992 265 204.992 265v165C216.722 460.473 265 460 265 460h30l150 15c16.567 0 30-13.433 30-30 0-16.575-13.433-30.007-30-30.007h29.993C491.567 414.993 505 401.567 505 385c0-16.575-13.433-30.007-30.007-30.007H490c16.567 0 30-13.425 30-29.993 0-16.575-13.433-30-30-30z" fill="#CCC"/></g></svg>