<svg width="560" height="560" viewBox="0 0 560 560" xmlns="http://www.w3.org/2000/svg"><title>lock</title><g fill="none" fill-rule="evenodd"><path d="M437.377 197.385C437.377 110.458 366.92 40 280 40c-86.91 0-157.377 70.458-157.377 157.385v78.68h21.222c27.226 46.993 77.94 78.69 136.155 78.69 58.222 0 108.93-31.697 136.155-78.69h21.222v-78.68zm-62.95 78.68h-42.272c-14.95 9.93-32.868 15.738-52.155 15.738s-37.212-5.807-52.155-15.737h-42.27v-78.68c0-52.156 42.278-94.435 94.425-94.435s94.426 42.28 94.426 94.435v78.68z" fill="#CCC"/><path d="M437.377 276.066H122.623c-17.382 0-31.475 14.1-31.475 31.483v173.106c0 17.39 14.093 31.483 31.475 31.483h314.754c17.382 0 31.475-14.094 31.475-31.484V307.55c0-17.383-14.093-31.484-31.475-31.484zm-125.902 110.17c0-17.39-14.093-31.482-31.475-31.482s-31.475 14.093-31.475 31.483c0 11.615 6.373 21.648 15.737 27.1v35.85h31.476v-35.85c9.372-5.452 15.737-15.485 15.737-27.1z" fill="#FC6"/></g></svg>