<svg width="560" height="560" viewBox="0 0 560 560" xmlns="http://www.w3.org/2000/svg"><title>maximize</title><g fill="#ED7161" fill-rule="evenodd"><path d="M503.232 40h-52.5c-9.66 0-17.5 7.84-17.5 17.5 0 9.67 7.84 17.5 17.5 17.5h9.188l-38.597 39.087c-7.096 7.14-7.096 18.726-.008 25.857 7.087 7.15 18.567 7.15 25.663 0L485.74 100.7v9.3c0 9.67 7.84 17.51 17.5 17.51s17.5-7.84 17.5-17.51V57.5c-.008-9.66-7.848-17.5-17.508-17.5zM113.623 422.284l-38.688 38.758v-9.183c0-9.56-7.81-17.29-17.472-17.29-9.635 0-17.463 7.74-17.463 17.29v51.86c0 9.547 7.82 17.28 17.463 17.28h52.407c9.644 0 17.463-7.74 17.463-17.28 0-9.558-7.81-17.282-17.463-17.282h-9.183l38.54-38.602c7.064-7.055 7.064-18.498 0-25.544-7.063-7.046-18.53-7.063-25.604-.008z"/></g></svg>