<svg width="560" height="560" viewBox="0 0 560 560" xmlns="http://www.w3.org/2000/svg"><title>ol</title><g fill="none" fill-rule="evenodd"><path d="M205 384.283h210c8.28 0 15-6.7 15-14.962 0-8.27-6.72-14.967-15-14.967H205c-8.287 0-15 6.698-15 14.968 0 8.264 6.713 14.963 15 14.963zm0-239.5h210c8.28 0 15-6.7 15-14.97 0-8.263-6.72-14.96-15-14.96H205c-8.287 0-15 6.705-15 14.96 0 8.27 6.713 14.97 15 14.97zm300 29.936H205c-8.287 0-15 6.705-15 14.976 0 8.255 6.713 14.96 15 14.96h300c8.28 0 15-6.705 15-14.96 0-8.27-6.72-14.977-15-14.977zM205 84.905h300c8.28 0 15-6.698 15-14.96 0-8.264-6.72-14.977-15-14.977H205c-8.287 0-15 6.705-15 14.975s6.713 14.96 15 14.96zM505 294.47H205c-8.287 0-15 6.706-15 14.97 0 8.27 6.713 14.975 15 14.975h300c8.28 0 15-6.706 15-14.976 0-8.264-6.72-14.97-15-14.97zm0 119.75H205c-8.287 0-15 6.706-15 14.977 0 8.262 6.713 14.968 15 14.968h300c8.28 0 15-6.706 15-14.968 0-8.27-6.72-14.977-15-14.977zM205 264.532h210c8.28 0 15-6.698 15-14.97 0-8.26-6.72-14.96-15-14.96H205c-8.287 0-15 6.7-15 14.96 0 8.272 6.713 14.97 15 14.97zm210 209.57H205c-8.287 0-15 6.707-15 14.962 0 8.27 6.713 14.97 15 14.97h210c8.28 0 15-6.7 15-14.97 0-8.262-6.72-14.96-15-14.96z" fill="#CCC"/><path d="M108.302 435.746l17.303-25.897c2.707-2.71 4.395-6.452 4.395-10.59 0-8.264-6.72-14.962-15-14.962H55c-8.28 0-15 6.698-15 14.96 0 8.264 6.72 14.97 15 14.97h32.325l-12.93 19.347c-2.707 2.71-4.395 6.452-4.395 10.59 0 8.263 6.72 14.97 15 14.97 8.28 0 15 6.705 15 14.968s-6.72 14.97-15 14.97c-8.28 0-15-6.707-15-14.97 0-8.263-6.72-14.97-15-14.97-8.28 0-15 6.707-15 14.97 0 24.803 20.145 44.907 45 44.907 24.847 0 45-20.104 45-44.907 0-16.278-8.7-30.484-21.698-38.357zM115 309.446H89.987l26.798-28.09C124.945 273.23 130 261.99 130 249.572c0-24.795-20.153-44.906-45-44.906-24.855 0-45 20.11-45 44.907 0 8.264 6.72 14.97 15 14.97 8.28 0 15-6.706 15-14.97 0-8.262 6.72-14.96 15-14.96 8.28 0 15 6.698 15 14.96 0 8.264-6.72 14.97-15 14.97v6.736l-40.568 42.526c-2.73 2.71-4.432 6.467-4.432 10.62 0 8.263 6.72 14.962 15 14.962h60c8.28 0 15-6.706 15-14.962 0-8.277-6.72-14.976-15-14.976zM100 144.79V54.975C100 46.706 93.28 40 85 40c-.053 0-.097.015-.15.015H70c-8.28 0-15 6.7-15 14.96 0 8.272 6.72 14.978 15 14.978v74.836c-8.28 0-15 6.705-15 14.968 0 8.27 6.72 14.97 15 14.97h30c8.28 0 15-6.7 15-14.97s-6.72-14.97-15-14.97z" fill="#48A0DC"/></g></svg>