<svg width="560" height="560" viewBox="0 0 560 560" xmlns="http://www.w3.org/2000/svg"><title>pencil</title><g fill="none" fill-rule="evenodd"><path d="M246.666 136.295L99.046 283.84 40 519.92l236.19-59.02 147.625-147.55-177.15-177.055z" fill="#E6E6E6"/><path d="M64.982 420.027L40 519.92l99.936-24.983c-9.21-36.864-38.06-65.71-74.954-74.91z" fill="#666"/><path d="M280.2 456.898l-4.003 4.003c-.007 0 2.023-1.44 4.002-4.002zm128.854-217.32l-88.58-88.536-44.284-44.256L103.057 279.83c4.933-3.81 14.075-7.42 25.514 4.01 17.384 17.383 14.763 44.27 14.763 44.27s41.664 12.134 59.047 29.51c17.384 17.376 29.524 59.01 29.524 59.01s26.902-2.614 44.286 14.762c11.438 11.44 7.82 20.574 4.002 25.506L453.34 283.84l-44.286-44.263zM99.047 283.84l4.01-4.01c-2.562 1.98-4.01 4.01-4.01 4.01z" fill="#FC6"/><path d="M475.633 84.492c-49.01-48.982-129.482-49.986-177.452 0-7.23 7.54-21.99 22.294-21.99 22.294L453.34 283.84s14.76-14.747 22.3-21.977c50.01-47.948 48.99-128.39-.007-177.37z" fill="#ED7161"/><path d="M464.822 268.34L291.697 95.296c-5.767-5.753-15.116-5.753-20.876 0l-6.114 6.107c-5.76 5.767-5.76 15.11 0 20.87L437.83 295.315c5.76 5.767 15.118 5.767 20.878 0l6.114-6.107c5.768-5.754 5.768-15.103 0-20.87z" fill="#E6E6E6"/></g></svg>