<svg width="560" height="560" viewBox="0 0 560 560" xmlns="http://www.w3.org/2000/svg"><title>phone</title><path d="M231.975 197.696c24.636-24.652 24.636-64.598 0-89.25L182.01 58.49c-24.635-24.653-64.594-24.653-89.255-.003L65.362 85.892C36.224 115.02 31.674 160.535 54.41 194.94c80.797 122.15 188.524 229.878 310.667 310.672 34.342 22.708 79.958 18.15 109.04-10.945l27.395-27.397c24.65-24.653 24.65-64.618-.003-89.26l-49.946-49.96c-24.64-24.64-64.595-24.64-89.255-.006l-16.654 16.654 21.47-1.063C313.14 299.39 260.577 246.82 216.39 192.877l-1.065 21.47L231.97 197.7l.005-.004zm-22.647-22.642l-16.646 16.648c-5.82 5.82-6.28 15.103-1.064 21.47 45.526 55.58 99.59 109.647 155.21 155.233 6.367 5.217 15.652 4.758 21.472-1.062l16.646-16.648c12.15-12.137 31.838-12.137 43.973 0l49.948 49.962c12.145 12.14 12.145 31.822 0 43.967l-27.397 27.4c-18.31 18.322-47.074 21.196-68.73 6.876-118.55-78.417-223.2-183.07-301.62-301.623-14.348-21.714-11.483-50.378 6.885-68.74l27.392-27.404c12.15-12.144 31.833-12.144 43.968 0l49.965 49.956c12.134 12.14 12.134 31.82-.005 43.967l.003-.003z" fill="#000" fill-rule="evenodd"/></svg>