<svg width="560" height="560" viewBox="0 0 560 560" xmlns="http://www.w3.org/2000/svg"><title>question</title><g fill="none" fill-rule="evenodd"><path d="M280 40C147.445 40 40 147.445 40 280c0 132.548 107.445 240 240 240 132.548 0 240-107.452 240-240 0-132.555-107.452-240-240-240zm0 360c-66.278 0-120-53.73-120-120 0-66.278 53.722-119.993 120-119.993 66.27 0 120 53.715 120 119.993 0 66.27-53.73 120-120 120z" fill="#CCC"/><path d="M280 70C164.02 70 70 164.013 70 280c0 115.98 94.02 210 210 210s210-94.02 210-210c0-115.987-94.02-210-210-210zm0 330c-66.278 0-120-53.73-120-120 0-66.278 53.722-119.993 120-119.993 66.27 0 120 53.715 120 119.993 0 66.27-53.73 120-120 120z" fill="#FFF"/><path d="M280 130c-82.845 0-150 67.155-150 150s67.155 150.007 150 150.007c82.838 0 150-67.162 150-150.007s-67.162-150-150-150zm0 270c-66.278 0-120-53.73-120-120 0-66.278 53.722-119.993 120-119.993 66.27 0 120 53.715 120 119.993 0 66.27-53.73 120-120 120z" fill="#CCC"/><path d="M172.757 333.618L65.515 387.243c21.465 42.84 55.245 78.375 96.87 101.842l58.807-104.535c-20.812-11.745-37.702-29.505-48.435-50.933zm160.86 53.625l53.618 107.235c42.847-21.466 78.368-55.238 101.835-96.87l-104.535-58.8c-11.73 20.812-29.49 37.702-50.918 48.435zm53.625-160.86l107.236-53.618c-21.466-42.847-55.245-78.375-96.87-101.843L338.8 175.457c20.813 11.738 37.702 29.505 48.442 50.925zm-316.327-63.99l104.535 58.8c11.73-20.806 29.505-37.703 50.925-48.436L172.757 65.522c-42.847 21.473-78.375 55.245-101.842 96.87z" fill="#E75F45"/></g></svg>