<svg width="560" height="560" viewBox="0 0 560 560" xmlns="http://www.w3.org/2000/svg"><title>redo</title><path d="M488 40c-17.673 0-32 14.327-32 32.014v44.95c-43.826-47.31-106.435-76.956-176.004-76.956C147.45 40.008 40 147.45 40 280.004c0 132.465 107.346 239.868 239.804 239.972.072 0 .136.024.2.024 17.672 0 32-14.327 32-31.998 0-17.672-14.328-32-32-32v-.015h-.008c-97.202 0-176.003-78.796-176.003-175.983 0-97.21 78.8-176 176.003-176 54.65 0 103.482 24.904 135.754 63.982h-55.753c-17.672 0-32 14.335-32 31.998 0 17.68 14.328 32.014 32 32.014H488c17.68 0 32-14.335 32-32.014V72.014C520 54.327 505.68 40 488 40z" fill="#CCC" fill-rule="evenodd"/></svg>