<svg width="560" height="560" viewBox="0 0 560 560" xmlns="http://www.w3.org/2000/svg"><title>reload</title><path d="M449.328 327.774C428.432 401.584 360.56 455.696 280 455.696c-97.2 0-176-78.734-176-175.855 0-97.144 78.8-175.887 176-175.887 54.648 0 103.472 24.886 135.76 63.945H344c-17.68 0-32 14.326-32 31.977 0 17.675 14.32 31.993 32 31.993h127.992c17.68 0 32.008-14.318 32.008-31.993V71.985C504 54.318 489.672 40 471.992 40 454.32 40 440 54.318 440 71.985v29.298c-42.464-38.044-98.48-61.275-160-61.275-132.544 0-240 107.377-240 239.833 0 132.432 107.456 239.817 240 239.817 116.112 0 212.96-82.42 235.184-191.883h-65.856z" fill="#9B7CAB" fill-rule="evenodd"/></svg>