<svg width="560" height="560" viewBox="0 0 560 560" xmlns="http://www.w3.org/2000/svg"><title>reply</title><path d="M40 281.3c0-2.377.593-4.753 1.78-7.13 1.187-2.374 2.29-4.07 3.307-5.09l1.78-1.78L243.23 124.5c7.122-5.43 13.27-6.363 18.44-2.8 5.173 3.564 7.76 10.52 7.76 20.873v58.035l13.988 1.018c33.405 2.885 64.903 12.302 94.493 28.254 29.59 15.95 54.857 36.314 75.8 61.09 20.94 24.774 37.347 53.537 49.217 86.288 11.87 32.75 17.55 66.86 17.042 102.325-21.028-37.163-49.05-67.538-84.066-91.125-35.016-23.588-73.636-37.163-115.86-40.727-17.125-1.527-33.998-1.272-50.615.764v71.525c0 10.352-2.587 17.31-7.76 20.873-5.17 3.563-11.318 2.63-18.44-2.8L46.868 295.045C42.288 291.14 40 286.558 40 281.298z" fill="#4BC2B8" fill-rule="evenodd"/></svg>