<svg width="560" height="560" viewBox="0 0 560 560" xmlns="http://www.w3.org/2000/svg"><title>review</title><g fill="none" fill-rule="evenodd"><path d="M518.68 210.01c-2.992-9.225-10.822-16.08-20.422-17.88l-130.755-24.593L303.265 53.56C298.563 45.19 289.653 40 280 40c-.037 0-.075.007-.112.007H280v392.16l120.623 55.38c3.585 1.643 7.395 2.445 11.197 2.445 5.573 0 11.093-1.725 15.758-5.107 7.83-5.685 11.917-15.15 10.702-24.705l-16.47-128.925 90.833-94.882c6.712-7.02 9.037-17.138 6.037-26.363z" fill="#CCC"/><path d="M280 40.008h.113c-.038 0-.076-.008-.113 0-9.653-.008-18.57 5.182-23.28 13.552l-64.23 113.977L61.728 192.13c-9.593 1.8-17.423 8.648-20.423 17.88-3 9.233-.675 19.343 6.053 26.363l90.825 94.882-16.478 128.925c-1.222 9.555 2.88 19.02 10.703 24.705 4.65 3.375 10.185 5.108 15.757 5.108 3.803 0 7.62-.803 11.19-2.445L280 432.168V40.007z" fill="#FC6"/></g></svg>