<svg width="560" height="560" viewBox="0 0 560 560" xmlns="http://www.w3.org/2000/svg"><title>show</title><g fill="none" fill-rule="evenodd"><path d="M280 115C147.452 115 40 248.26 40 279.993 40 310.21 147.453 445 280 445c132.548 0 240-135.548 240-165.007C520 249.88 412.548 115 280 115z" fill="#999"/><path d="M280 160c-98.82 0-179.843 106.313-179.843 119.993 0 13.132 81.016 120 179.843 120 98.827 0 179.842-106.868 179.842-120C459.842 266.365 378.82 160 280 160z" fill="#FFF"/><path d="M396.377 206.192C364.93 181.39 324.288 160 280 160c-44.287 0-84.922 21.375-116.37 46.17-2.287 9.255-3.63 18.87-3.63 28.83 0 66.278 53.73 119.993 120 119.993 66.27 0 120-53.715 120-119.993 0-9.953-1.343-19.56-3.623-28.807z" fill="#48A0DC"/><path d="M256.548 284.14c-.713-2.662-2.265-4.778-4.095-6.593l.315-.315C241.87 266.425 235 251.59 235 235v-.008c0-8.28-6.72-15-15-15-8.287 0-15 6.72-15 15V235c0 23.58 9.495 44.565 24.367 60.525 3.346 5.64 9.93 8.767 16.576 6.982 8.002-2.137 12.75-10.372 10.604-18.367z" fill="#FFF"/></g></svg>