<svg width="560" height="560" viewBox="0 0 560 560" xmlns="http://www.w3.org/2000/svg"><title>soundcloud</title><defs><filter x="-50%" y="-50%" width="200%" height="200%" filterUnits="objectBoundingBox" id="a"><feOffset dx="1" dy="1" in="SourceAlpha" result="shadowOffsetOuter1"/><feGaussianBlur stdDeviation="2" in="shadowOffsetOuter1" result="shadowBlurOuter1"/><feColorMatrix values="0 0 0 0 0 0 0 0 0 0 0 0 0 0 0 0 0 0 0.0508237092 0" in="shadowBlurOuter1" result="shadowMatrixOuter1"/><feMerge><feMergeNode in="shadowMatrixOuter1"/><feMergeNode in="SourceGraphic"/></feMerge></filter></defs><path d="M270.373 203.66V381.82h191.204v-.234c40.265-2.59 58.423-27.678 58.423-58.31 0-32.336-24.336-58.546-57.086-58.546-8.407 0-15.325 1.743-22.635 4.9-5.24-51.353-48.59-91.446-101.98-91.446-26.106 0-49.845 9.605-67.927 25.48m-19.104 22.303c-6.577-3.914-13.647-6.994-21.163-9.06v164.913H260.3V213.804c-3.306 3.817-6.323 7.896-9.03 12.16m-51.355-11.816v167.67h20.133V214.754c-4.12-.606-8.373-.93-12.693-.93-2.523 0-5.005.117-7.44.324m-40.25 14.132v153.538h20.125V218.33c-7.187 2.426-13.948 5.822-20.126 9.95m-36.055 55.348c-1.372-.882-2.737-1.702-4.204-2.446v100.636h20.12v-134.61c-8.01 10.506-13.592 22.915-15.917 36.42m-44.456-6.67v102.8c4.76 1.33 9.765 2.06 14.935 2.06h5.197V275.146c-1.742-.145-3.47-.24-5.232-.24-5.17 0-10.162.722-14.9 2.052M40 328.365c0 16.302 7.385 30.88 19.03 40.713v-81.42C47.384 297.463 40 312.063 40 328.365" filter="url(#a)" fill="#DE493C" fill-rule="evenodd"/></svg>