<svg width="560" height="560" viewBox="0 0 560 560" xmlns="http://www.w3.org/2000/svg"><title>star</title><path d="M519.708 210.384c-3-9.245-10.846-16.115-20.468-17.92L368.198 167.82 303.818 53.59C299.107 45.2 290.177 40 280.503 40c-9.673 0-18.603 5.2-23.33 13.59L192.8 167.818 61.75 192.465c-9.614 1.804-17.462 8.667-20.46 17.92-3 9.252-.677 19.384 6.058 26.42l91.025 95.09-16.514 129.21c-1.226 9.576 2.878 19.062 10.717 24.76 4.668 3.382 10.208 5.118 15.793 5.118 3.81 0 7.644-.804 11.214-2.45l120.91-55.502 120.89 55.503c3.584 1.646 7.41 2.45 11.22 2.45 5.586 0 11.118-1.728 15.793-5.118 7.84-5.698 11.937-15.184 10.726-24.76l-16.506-129.21 91.033-95.09c6.734-7.036 9.065-17.175 6.058-26.42z" fill="#FC6" fill-rule="evenodd"/></svg>