<svg width="560" height="560" viewBox="0 0 560 560" xmlns="http://www.w3.org/2000/svg"><title>stats</title><g fill="none" fill-rule="evenodd"><path d="M490 40H70c-16.568 0-30 13.425-30 29.992v420C40 506.567 53.432 520 70 520h420c16.567 0 30-13.433 30-30.007v-420C520 53.425 506.567 40 490 40z" fill="#E6E6E6"/><path d="M310 40v480h30V40h-30zm-90 480h30V40h-30v480zm-90 0h30V40h-30v480z" fill="#CCC"/><path d="M400 40h30v480h-30z" fill="#88C057"/><path d="M520 226.465l-92.01-91.995c-3.563-3.562-8.348-5.055-12.99-4.627-4.65-.428-9.442 1.072-12.998 4.627L235 301.465l-77.01-76.995c-3.563-3.562-8.347-5.055-12.99-4.627-4.65-.428-9.442 1.072-12.998 4.627L40 316.465v46.028l105-105 77.512 77.512c3.428 3.428 7.995 4.943 12.488 4.673 4.485.27 9.053-1.245 12.48-4.673L415 167.493l105 105v-46.028z" fill="#ED7161"/><path d="M145 204.993c-16.568 0-30 13.432-30 30.007 0 16.567 13.432 29.993 30 29.993 16.568 0 30-13.425 30-29.993 0-16.575-13.432-30.007-30-30.007zM235 295c-16.567 0-30 13.425-30 29.993C205 341.567 218.433 355 235 355s30-13.433 30-30.007C265 308.425 251.567 295 235 295zm180-180c-16.567 0-30 13.425-30 29.992C385 161.56 398.433 175 415 175s30-13.44 30-30.008C445 128.425 431.567 115 415 115z" fill="#ED7161"/></g></svg>