<svg width="560" height="560" viewBox="0 0 560 560" xmlns="http://www.w3.org/2000/svg"><title>tag</title><g fill="none" fill-rule="evenodd"><path d="M427.503 99.133H309.35c-14.77 0-29.54 0-44.31 14.77L58.273 320.677s-14.77 14.762-14.77 29.53c0 14.77 14.77 29.547 14.77 29.547L176.426 497.91s14.77 14.76 29.538 14.76c14.77 0 29.54-14.76 29.54-14.76L442.27 291.132c14.282-14.275 14.77-29.908 14.77-44.308V128.67c0-16.312-13.227-29.537-29.54-29.537z" fill="#E75F45"/><circle cx="59.077" cy="59.321" r="59.077" transform="translate(309.35 128.427)" fill="#BA594C"/><circle cx="29.538" cy="29.782" r="29.538" transform="translate(338.887 157.966)" fill="#FFF"/><path d="M511.355 44.33c-6.026-6.025-15.803-6.025-21.82 0l-131.61 131.61c-6.02 6.026-6.02 15.803 0 21.83 6.026 6.017 15.803 6.017 21.83 0l131.6-131.617c6.033-6.026 6.033-15.788 0-21.822z" fill="#A67C52"/><path d="M290.023 358.414l-92.72-92.72c-5.82-5.828-15.257-5.828-21.077 0l-69.555 69.554c-5.818 5.82-5.818 15.25 0 21.076l92.722 92.714c5.82 5.82 15.257 5.82 21.076 0l69.555-69.556c5.82-5.82 5.82-15.25 0-21.068z" fill="#FFF"/></g></svg>