<svg width="560" height="560" viewBox="0 0 560 560" xmlns="http://www.w3.org/2000/svg"><title>tags</title><g fill="#000" fill-rule="evenodd"><path d="M496.816 375.156l-170.32 170.318h28.285L14.143 204.838 20 218.98V48.662l-20 20h170.32l-14.143-5.857 340.64 340.636v-28.284zM525.1 403.44c7.81-7.81 7.81-20.473 0-28.284L184.462 34.52c-3.75-3.75-8.838-5.858-14.143-5.858H0c-11.046 0-20 8.955-20 20V218.98c0 5.305 2.107 10.392 5.858 14.143l340.64 340.636c7.81 7.81 20.472 7.81 28.283 0L525.1 403.44z"/><path d="M72.994 20h170.32l-14.143-5.858 316.31 316.305v-28.284l-24.332 24.33c-7.81 7.81-7.81 20.475 0 28.285 7.81 7.81 20.473 7.81 28.284 0l24.33-24.33c7.812-7.81 7.812-20.475 0-28.285L257.457-14.142c-3.75-3.75-8.838-5.858-14.143-5.858H72.993c-11.045 0-20 8.954-20 20s8.955 20 20 20zM125.988 158.153c0 9.1-7.396 16.496-16.497 16.496-9.1 0-16.496-7.397-16.496-16.497s7.396-16.497 16.497-16.497c9.102 0 16.498 7.396 16.498 16.497zm40 0c0-31.192-25.305-56.497-56.497-56.497-31.19 0-56.496 25.305-56.496 56.497 0 31.19 25.305 56.496 56.497 56.496 31.193 0 56.498-25.306 56.498-56.497z"/></g></svg>