<svg width="560" height="560" viewBox="0 0 560 560" xmlns="http://www.w3.org/2000/svg"><title>trait</title><g fill="none" fill-rule="evenodd"><path d="M490 114.996H70c-16.568 0-30 13.433-30 30v270c0 16.568 13.432 30.008 30 30.008h420c16.567 0 30-13.44 30-30.008v-270c0-16.567-13.433-30-30-30zm-15 30H85c-8.28 0-15 6.72-15 15v240.008c0 8.272 6.72 14.992 15 14.992h390c8.28 0 15-6.72 15-14.992V159.996c0-8.28-6.72-15-15-15z" fill="#CCC"/><path d="M415 174.996c-8.28 0-15 6.72-15 15v180c0 8.288 6.72 15 15 15 8.28 0 15-6.712 15-15v-180c0-8.28-6.72-15-15-15z" fill="#666"/><path d="M310 234.996c-24.848 0-45 20.153-45 45.008 0 24.84 20.152 44.992 45 44.992s45-20.152 45-44.992c0-24.855-20.152-45.008-45-45.008zm-120 0c-24.847 0-45 20.153-45 45.008 0 24.84 20.153 44.992 45 44.992s45-20.152 45-44.992c0-24.855-20.153-45.008-45-45.008z" fill="#999"/></g></svg>