<svg width="560" height="560" viewBox="0 0 560 560" xmlns="http://www.w3.org/2000/svg"><title>undo</title><path d="M519.968 280.004c0-132.553-107.443-239.996-239.98-239.996-69.573 0-132.17 29.647-175.99 76.956v-44.95c0-17.687-14.328-32.014-32-32.014C54.328 40 40 54.327 40 72.014v127.97c0 17.68 14.327 32.014 31.998 32.014h127.994c17.67 0 31.998-14.335 31.998-32.014 0-17.663-14.327-31.998-31.998-31.998h-55.757c32.278-39.078 81.108-63.98 135.753-63.98 97.195 0 175.99 78.787 175.99 175.998 0 97.187-78.795 175.983-175.99 175.983v.016c-17.67 0-31.998 14.327-31.998 32 0 17.67 14.327 31.997 31.998 31.997.072 0 .136-.024.208-.024 132.44-.112 239.772-107.515 239.772-239.972z" fill="#48A0DC" fill-rule="evenodd"/></svg>