<svg width="560" height="560" viewBox="0 0 560 560" xmlns="http://www.w3.org/2000/svg"><title>unlink</title><g fill="none" fill-rule="evenodd"><path d="M265.847 324.05v-29.105h-29.105l-13.346-26.698c-30.42-7.323-63.796.778-87.54 24.524l-61.37 61.368c-36.29 36.29-36.29 95.135 0 131.426 36.292 36.29 95.136 36.29 131.434 0l61.367-61.368c23.637-23.636 31.775-56.82 24.626-87.12l-26.066-13.025zm-40.99 67.98l-51.104 51.112c-15.586 15.585-40.837 15.585-56.422 0-15.585-15.586-15.585-40.844 0-56.422l51.106-51.113c15.586-15.585 40.844-15.585 56.422 0 15.586 15.586 15.586 40.844 0 56.422zm260.72-317.543c-36.29-36.29-95.14-36.29-131.432 0l-61.367 61.368c-26.05 26.043-33.294 63.68-21.956 96.283l9.57 19.15H309.5V280.4l15.986 7.993c33.15 12.574 72.02 5.592 98.72-21.106l61.367-61.367c36.3-36.305 36.3-95.142.008-131.433zm-42.42 99.266l-51.113 51.105c-15.586 15.586-40.837 15.586-56.422 0-15.586-15.585-15.586-40.836 0-56.422l51.105-51.112c15.586-15.586 40.844-15.586 56.43 0 15.578 15.578 15.578 40.843 0 56.43z" fill="#CCC"/><path d="M265.847 294.945h-29.105l-6.357-12.712-42.66 42.662c-13.092 13.083-13.092 34.305 0 47.396 13.082 13.085 34.304 13.085 47.395 0l42.4-42.4-11.665-5.84v-29.105h-.008zm106.444-107.23c-13.09-13.082-34.305-13.082-47.395 0l-50.85 50.86 6.355 12.712h29.105V280.4l11.666 5.833 51.12-51.12c13.092-13.098 13.092-34.313 0-47.397z" fill="#999"/></g></svg>