<svg width="560" height="560" viewBox="0 0 560 560" xmlns="http://www.w3.org/2000/svg"><title>upload</title><g fill="none" fill-rule="evenodd"><path d="M444.64 247.5c.053-1.523.233-3.007.233-4.545C444.865 168.42 384.408 108 309.834 108c-55.785 0-103.65 33.818-124.237 82.058-10.133-4.455-21.316-6.968-33.09-6.968-45.533 0-82.44 36.945-82.44 82.507 0 2.903.157 5.768.45 8.588C51.654 293.145 40 319.252 40 348.097 40 406.035 86.995 453 144.963 453c.075 0 .15-.007.225-.007V453h269.61v-.007c.075 0 .15.007.224.007C472.998 453 520 406.035 520 348.097c0-47.655-31.822-87.817-75.36-100.597z" fill="#9B7CAB"/><path d="M335.582 276.592l-43.807-43.95c-2.438-2.445-5.483-3.825-8.648-4.297-1.012-.21-2.055-.338-3.127-.338-4.215 0-7.995 1.74-10.725 4.53-.127.12-.285.188-.412.315l-43.996 43.845c-6.075 6.06-6.075 15.863 0 21.923 6.075 6.052 15.923 6.052 21.998 0L265 280.537v82.47c0 8.28 6.712 15 15 15 8.28 0 15-6.72 15-15V279.84l18.675 18.742c6.052 6.075 15.855 6.075 21.907 0 6.053-6.067 6.053-15.915 0-21.99z" fill="#FFF"/></g></svg>