<svg width="560" height="560" viewBox="0 0 560 560" xmlns="http://www.w3.org/2000/svg"><title>user_group</title><g fill="#626A85" fill-rule="evenodd"><path d="M231.202 489.604h187.32v-10-.333l-.005-.915c-.006-.992-.017-2.14-.034-3.428-.047-3.672-.133-7.76-.267-12.16-.38-12.586-1.068-25.18-2.14-36.977-1.637-17.988-4.014-32.508-7.404-42.673-5.304-15.91-22.855-27.4-55.83-40.758-14.45-5.854-72.75-26.677-78.68-28.9l6.49 9.364V273.83l-6.2 9.25c.51-.21 1.224-.54 2.11-1.004 1.33-.697 2.77-1.552 4.296-2.58 4.22-2.844 8.39-6.533 12.25-11.168 10.733-12.885 17.088-30.548 17.088-53.29l-10 10c28.735 0 28.735-59.196 0-59.196v10h10c0 .39-.027.714-.067 1-.022.144-.04.246-.058.32.01-.038.053-.192.13-.434.21-.65.546-1.572 1.11-3.043-.038.098 1.372-3.56 1.833-4.78.81-2.14 1.515-4.078 2.19-6.05 4.842-14.1 7.163-26.882 5.9-39.588-.294-2.943-.786-5.825-1.49-8.64-5.807-23.224-36.808-35.577-73.716-35.577-36.91 0-67.91 12.354-73.71 35.576l11.665-7.382c-15.895-3.18-27.917.324-34.492 10.573-4.96 7.73-5.84 17.686-4.14 29.795.718 5.107 1.868 10.372 3.44 16.24.45 1.677.915 3.335 1.473 5.273.208.718 1.046 3.598 1.237 4.266.376 1.31.616 2.193.767 2.82.062.257.1.435.114.516-.03-.176-.058-.43-.058-.884h10v-10c-28.755 0-28.755 59.195 0 59.195l-10-10c0 22.743 6.355 40.406 17.088 53.29 3.86 4.636 8.03 8.325 12.25 11.17 1.524 1.027 2.967 1.882 4.297 2.58.886.463 1.6.793 2.11 1.002l-6.2-9.25v48.994l6.464-9.354c-7.515 2.84-15.074 5.587-26.665 9.724l-9.922 3.538c-3.862 1.378-6.93 2.477-9.87 3.54-25.487 9.197-41.635 15.707-55.03 22.648-18.08 9.37-29.192 18.735-33.01 30.2-3.386 10.165-5.76 24.684-7.394 42.67-1.072 11.798-1.758 24.39-2.14 36.977-.132 4.4-.218 8.488-.266 12.16-.016 1.29-.027 2.436-.033 3.428-.002.35-.004.655-.004.916v10.334h187.202zm0-20H54l10 10c0-.187 0-.567.005-1.128.005-.946.016-2.047.032-3.29.046-3.56.13-7.533.26-11.813.37-12.215 1.034-24.422 2.065-35.772 1.505-16.566 3.67-29.814 6.45-38.16 1.694-5.083 9.445-11.615 23.24-18.763 12.388-6.42 27.916-12.68 52.614-21.594 2.916-1.052 5.963-2.144 9.805-3.515l9.922-3.537c11.7-4.175 19.355-6.958 27.013-9.852l6.465-2.444V267.128l-6.2-2.548c.078.032.1.042.074.03-.126-.06-.295-.142-.504-.25-.69-.363-1.498-.842-2.397-1.448-2.705-1.823-5.46-4.26-8.062-7.384-7.73-9.28-12.454-22.412-12.454-40.49v-10h-10c.306 0 .69.13.895.282-.108-.08-.38-.42-.713-1.052-1.06-2.02-1.747-5.294-1.747-8.828s.687-6.807 1.747-8.828c.332-.633.605-.97.714-1.052-.203.152-.588.282-.894.282h10v-10c0-2.14-.378-3.713-1.598-7.966-.205-.713-1.048-3.61-1.244-4.292-.527-1.825-.96-3.368-1.372-4.91-1.38-5.144-2.365-9.658-2.953-13.843-1.096-7.8-.594-13.468 1.167-16.214 1.545-2.408 5.19-3.47 13.732-1.76l9.352 1.872 2.312-9.255c2.833-11.343 25.617-20.423 54.305-20.423s51.475 9.08 54.312 20.426c.463 1.852.792 3.776.99 5.77.926 9.312-.922 19.494-4.912 31.116-.603 1.756-1.24 3.507-1.982 5.467-.434 1.148-1.824 4.755-1.806 4.708-1.93 5.044-2.436 6.616-2.436 9.304v10h10c-.31 0-.7-.132-.907-.286.108.08.38.418.71 1.052 1.06 2.022 1.747 5.296 1.747 8.832 0 3.535-.686 6.81-1.746 8.832-.33.634-.602.97-.71 1.05.206-.152.595-.285.906-.285h-10v10c0 18.08-4.724 31.21-12.456 40.49-2.602 3.125-5.356 5.562-8.06 7.385-.9.606-1.708 1.085-2.398 1.447-.21.108-.378.19-.504.25l.073-.03-6.198 2.548v62.626l6.49 2.433c6.273 2.353 64.203 23.043 78.19 28.71 27.42 11.105 41.66 20.43 44.367 28.546 2.782 8.345 4.95 21.592 6.457 38.16 1.032 11.35 1.698 23.556 2.07 35.77.128 4.28.212 8.253.258 11.814.016 1.242.026 2.343.032 3.29.004.56.005.94.005 1.127l10-10h-177.32z"/><path d="M448.888 477.85h49.392v-10-.332l-.005-.916c-.006-.99-.017-2.138-.034-3.427-.046-3.673-.132-7.76-.266-12.16-.38-12.587-1.068-25.18-2.14-36.977-1.637-17.988-4.014-32.508-7.404-42.674-4.907-14.72-21.506-28.246-49.012-42.786-21.483-11.355-48.995-22.982-85.497-36.67l6.49 9.365v-29.397l-6.2 9.25c.51-.21 1.223-.54 2.11-1.004 1.33-.696 2.77-1.552 4.296-2.58 4.22-2.844 8.39-6.533 12.25-11.167 10.733-12.886 17.088-30.55 17.088-53.29l-10 10c28.735 0 28.735-59.196 0-59.196v10h10c0 .6-.047.94-.1 1.186.018-.087.074-.296.166-.6.22-.738.564-1.758 1.144-3.408.116-.33.238-.677.41-1.16l.445-1.26c.38-1.082.678-1.93.978-2.796.8-2.31 1.503-4.415 2.175-6.545 3.752-11.893 5.95-22.687 6.134-33.265.103-5.955-.467-11.622-1.804-16.975-3.056-12.206-15.282-25.576-30.14-33.253-17.802-9.2-37.287-9.55-54.024 1.553l11.054 16.666c10.177-6.75 22.01-6.537 33.79-.45 10.128 5.233 18.4 14.28 19.917 20.336.888 3.552 1.284 7.49 1.21 11.776-.144 8.33-1.988 17.378-5.21 27.594-.61 1.935-1.255 3.867-2 6.013-.285.824-.57 1.637-.94 2.685l-.443 1.254-.422 1.197c-1.887 5.37-2.34 6.882-2.34 9.45v10h10c-.312 0-.7-.134-.908-.287.11.08.38.417.712 1.05 1.06 2.023 1.745 5.298 1.745 8.833 0 3.536-.686 6.81-1.746 8.833-.333.632-.604.97-.713 1.05.207-.154.596-.286.907-.286h-10v10c0 18.078-4.724 31.21-12.456 40.49-2.602 3.124-5.356 5.56-8.06 7.385-.9.604-1.708 1.084-2.398 1.445-.21.11-.378.193-.504.25-.027.014-.004.004.073-.028l-6.2 2.547V308.203l6.49 2.433c35.77 13.412 62.61 24.755 83.17 35.624 23.128 12.224 36.66 23.252 39.387 31.43 2.783 8.346 4.952 21.593 6.458 38.16 1.032 11.35 1.698 23.557 2.07 35.77.128 4.28.212 8.253.258 11.814.016 1.243.026 2.344.032 3.29.004.56.005.94.005 1.127l10-10h-39.392v20z"/></g></svg>