<svg width="560" height="560" viewBox="0 0 560 560" xmlns="http://www.w3.org/2000/svg"><title>vkontakte</title><defs><filter x="-50%" y="-50%" width="200%" height="200%" filterUnits="objectBoundingBox" id="a"><feOffset dx="1" dy="1" in="SourceAlpha" result="shadowOffsetOuter1"/><feGaussianBlur stdDeviation="2" in="shadowOffsetOuter1" result="shadowBlurOuter1"/><feColorMatrix values="0 0 0 0 0 0 0 0 0 0 0 0 0 0 0 0 0 0 0.0508237092 0" in="shadowBlurOuter1" result="shadowMatrixOuter1"/><feMerge><feMergeNode in="shadowMatrixOuter1"/><feMergeNode in="SourceGraphic"/></feMerge></filter></defs><path d="M430.01 416.85c21.805-6.567 86.497 10.525 89.917-16.746 1.097-8.745-10.406-23.386-15.736-30.146-14.143-17.943-26.375-29.685-43.833-45.776-8.053-7.423-18.507-15.34-19.107-25.68-.79-13.602 12.613-27.228 19.107-35.728 16.262-21.283 31.042-36.893 46.082-61.408 3.944-6.43 16.7-29.81 12.363-39.077-5.223-11.163-34.304-6.7-50.578-6.7-19.87 0-41.51-3.98-55.074 1.116-8.91 3.35-14.184 21.705-19.106 32.38-11.983 25.987-21.587 43.46-37.09 63.64-7.088 9.225-13.638 21.015-25.85 22.33-15.842-10.496-11.88-34.093-11.24-56.942.57-20.34 6.723-47.478-2.248-62.524-8.813-14.78-40.346-12.282-62.942-12.282-26.883 0-49.182 1.616-57.32 17.864 9.776 5.77 19.448 5.963 24.726 15.63 5.6 10.26 6.16 34.276 5.62 53.594-.477 17.025-1.494 43.608-12.364 45.776-11.2 2.234-20.75-14.55-26.975-23.446-14.363-20.526-25.258-38.574-37.09-63.64-5.152-10.92-11.604-28.04-17.982-31.263-10.744-5.43-33.656-2.233-48.33-2.233-17.302 0-34.448-2.926-44.958 5.582.007 18.194 9.623 34.438 16.86 49.126 22.347 45.37 46.514 86.684 77.552 126.165 29.047 36.95 62.17 71.322 127.006 78.155 20.53 2.164 50.332 4.37 57.322-7.815 8.652-15.087-1.636-50.278 19.107-53.592 14.61-2.334 26.848 17.86 34.842 26.797 14.145 15.807 30.722 32.875 55.073 36.844h2.248z" filter="url(#a)" fill="#517694" fill-rule="evenodd"/></svg>