<svg width="560" height="560" viewBox="0 0 560 560" xmlns="http://www.w3.org/2000/svg"><title>warning</title><g fill="#000" fill-rule="evenodd"><path d="M539.296 275.67c2.473 142.07-115.528 261.13-259.98 263.633-142.374 2.468-256.776-110.49-259.272-254.61C17.56 142.626 135.57 23.55 280.01 21.047c142.378-2.468 256.778 110.506 259.286 254.624zm39.994-.696C576.4 108.964 443.983-21.802 279.317-18.948 113.013-16.065-22.823 121-19.95 285.39c2.875 166.01 135.3 296.762 299.96 293.907 166.312-2.882 302.14-139.93 299.28-304.323z"/><path d="M283.014 318.193v-177.62c0-11.047-8.955-20-20-20-11.046 0-20 8.953-20 20v177.62c0 11.046 8.954 20 20 20 11.045 0 20-8.954 20-20z"/></g></svg>