<svg width="560" height="560" viewBox="0 0 560 560" xmlns="http://www.w3.org/2000/svg"><title>webhook</title><g fill="#000" fill-rule="evenodd"><path d="M431.37 506.18c44.103 0 79.207-37.91 79.207-83.94s-35.104-83.942-79.208-83.942-79.208 37.91-79.208 83.94 35.104 83.94 79.207 83.94zm0-40c-21.296 0-39.208-19.345-39.208-43.94 0-24.598 17.912-43.942 39.207-43.942s39.207 19.344 39.207 43.94c0 24.597-17.912 43.94-39.208 43.94z"/><path d="M91.498 269.81C26.234 287.06-20 349.86-20 422.24c0 86.386 65.4 157.013 146.873 157.013 81.474 0 146.874-70.627 146.874-157.014l-20 20h120.26c11.046 0 20-8.956 20-20 0-11.047-8.954-20-20-20h-120.26c-11.046 0-20 8.953-20 20 0 64.953-48.207 117.013-106.874 117.013C68.207 539.253 20 487.193 20 422.24c0-54.57 34.36-101.24 81.72-113.757 10.678-2.823 17.047-13.768 14.224-24.447-2.822-10.68-13.767-17.048-24.446-14.225z"/><path d="M59.03 380.907c-21.21 39.714-8.597 90.406 28.788 113.738 38.305 23.905 87.384 9.744 109.078-30.873 21.212-39.714 8.598-90.406-28.787-113.738-38.305-23.905-87.385-9.743-109.08 30.873zm35.284 18.845c10.954-20.51 34.268-27.236 52.618-15.784 19.27 12.026 26.117 39.548 14.68 60.96-10.953 20.508-34.266 27.235-52.616 15.783-19.27-12.025-26.118-39.547-14.682-60.958z"/><path d="M421.384 181.01c18.466-68.426-8.597-142.57-67.154-179.08C283.567-42.127 193.1-15.95 152.7 59.624c-39.928 74.684-16.26 170.075 53.493 213.567l-7.056-26.4-60.13 112.472c-5.207 9.74-1.532 21.86 8.21 27.067 9.74 5.207 21.858 1.532 27.066-8.21l60.13-112.472c4.964-9.286 1.88-20.83-7.056-26.4-51.612-32.18-69.527-104.383-39.383-160.766 29.667-55.492 94.39-74.22 145.093-42.61 43.244 26.964 63.673 82.933 49.698 134.718-2.878 10.664 3.434 21.642 14.098 24.52 10.665 2.878 21.643-3.434 24.52-14.1z"/><path d="M349.144 93.643C327.45 53.027 278.37 38.865 240.066 62.77c-37.385 23.332-49.998 74.025-28.787 113.74 21.693 40.615 70.773 54.777 109.077 30.87 37.385-23.33 50-74.023 28.787-113.737zm-35.283 18.845c11.437 21.41 4.59 48.934-14.68 60.96-18.35 11.45-41.664 4.724-52.618-15.784-11.436-21.41-4.588-48.934 14.682-60.96 18.35-11.45 41.663-4.724 52.617 15.784z"/><path d="M325.897 527.974c46.476 52.427 121.286 64.48 180.58 27.51 69.755-43.49 93.423-138.882 53.496-213.565-40.403-75.575-130.87-101.752-201.532-57.694l28.22 7.542-60.13-112.473c-5.207-9.74-17.325-13.416-27.066-8.21-9.74 5.21-13.416 17.328-8.21 27.07l60.13 112.472c5.456 10.202 18.403 13.663 28.22 7.542 50.703-31.614 115.426-12.885 145.094 42.608 30.143 56.382 12.23 128.584-39.383 160.764-42.506 26.502-95.782 17.918-129.487-20.102-7.327-8.266-19.967-9.026-28.233-1.7-8.265 7.328-9.026 19.97-1.698 28.234z"/></g></svg>