<svg width="560" height="560" viewBox="0 0 560 560" xmlns="http://www.w3.org/2000/svg"><title>whatsapp</title><defs><filter x="-50%" y="-50%" width="200%" height="200%" filterUnits="objectBoundingBox" id="a"><feOffset in="SourceAlpha" result="shadowOffsetOuter1"/><feGaussianBlur stdDeviation="2.5" in="shadowOffsetOuter1" result="shadowBlurOuter1"/><feColorMatrix values="0 0 0 0 0 0 0 0 0 0 0 0 0 0 0 0 0 0 0.120807858 0" in="shadowBlurOuter1" result="shadowMatrixOuter1"/><feMerge><feMergeNode in="shadowMatrixOuter1"/><feMergeNode in="SourceGraphic"/></feMerge></filter><linearGradient x1="46.866%" y1="100%" x2="46.866%" y2="0%" id="b"><stop stop-color="#20B038" offset="0%"/><stop stop-color="#60D66A" offset="100%"/></linearGradient><filter x="-50%" y="-50%" width="200%" height="200%" filterUnits="objectBoundingBox" id="c"><feOffset in="SourceAlpha" result="shadowOffsetOuter1"/><feGaussianBlur stdDeviation="7" in="shadowOffsetOuter1" result="shadowBlurOuter1"/><feColorMatrix values="0 0 0 0 0 0 0 0 0 0 0 0 0 0 0 0 0 0 0.0911458333 0" in="shadowBlurOuter1" result="shadowMatrixOuter1"/><feMerge><feMergeNode in="shadowMatrixOuter1"/><feMergeNode in="SourceGraphic"/></feMerge></filter></defs><g fill="none" fill-rule="evenodd"><path d="M.006 479.88l33.752-123.144c-20.818-36.04-31.77-76.925-31.754-118.81C2.056 106.897 108.777.295 239.916.295c63.64.028 123.37 24.777 168.292 69.694 44.915 44.92 69.64 104.628 69.62 168.13-.057 131.025-106.793 237.646-237.912 237.646-.01 0 .007 0 0 0h-.1c-39.816-.015-78.94-9.994-113.69-28.93L.007 479.88zM131.97 403.81l7.224 4.28c30.355 17.997 65.156 27.518 100.645 27.536h.076c108.988 0 197.693-88.614 197.74-197.525.015-52.78-20.53-102.41-57.864-139.743-37.338-37.333-86.98-57.905-139.8-57.927-109.075 0-197.777 88.602-197.82 197.51-.016 37.32 10.435 73.666 30.23 105.117l4.707 7.472-19.983 72.887 74.843-19.608z" fill="#FFF" filter="url(#a)" transform="translate(41 40)"/><path d="M131.97 403.812l7.224 4.28c30.355 17.997 65.156 27.518 100.645 27.536h.076c108.988 0 197.693-88.614 197.74-197.525.015-52.78-20.53-102.41-57.864-139.743-37.338-37.333-86.98-57.905-139.8-57.927-109.075 0-197.777 88.602-197.82 197.51-.016 37.32 10.435 73.666 30.23 105.117l4.707 7.472-19.983 72.887 74.843-19.608z" fill="url(#b)" transform="translate(41 40)"/><path d="M180.455 138.583c-4.453-9.892-9.14-10.09-13.377-10.263-3.465-.15-7.432-.14-11.392-.14-3.964 0-10.405 1.49-15.85 7.433-5.45 5.943-20.81 20.312-20.81 49.536 0 29.225 21.304 57.465 24.274 61.43 2.972 3.96 41.124 65.85 101.546 89.658 50.216 19.786 60.435 15.85 71.334 14.86 10.9-.99 35.17-14.365 40.125-28.236 4.954-13.868 4.954-25.755 3.468-28.24-1.487-2.475-5.45-3.96-11.395-6.93-5.946-2.97-35.17-17.342-40.62-19.322-5.45-1.98-9.413-2.97-13.377 2.976-3.962 5.94-15.348 19.316-18.817 23.277-3.468 3.97-6.936 4.464-12.88 1.494-5.946-2.98-25.092-9.245-47.805-29.48-17.67-15.743-29.602-35.186-33.07-41.133-3.468-5.94-.372-9.158 2.61-12.12 2.67-2.66 5.945-6.933 8.918-10.4 2.966-3.47 3.957-5.945 5.94-9.906 1.98-3.966.99-7.434-.497-10.405-1.487-2.97-13.04-32.345-18.325-44.09" fill="#FFF" filter="url(#c)" transform="translate(41 40)"/></g></svg>