<svg width="560" height="560" viewBox="0 0 560 560" xmlns="http://www.w3.org/2000/svg"><title>add_image</title><g fill="none" fill-rule="evenodd"><path d="M308.825 429.653c0-66.23 53.68-119.91 119.903-119.91 35.858 0 67.955 15.82 89.927 40.774V66.926c0-14.846-12.403-26.866-27.72-26.92-.03.01-.053-.006-.083-.006H66.802c-.03 0-.052.015-.082.015C51.402 40.067 39 52.08 39 66.933v424.761c0 15.347 12.447 27.795 27.802 27.795h282.7c-24.894-21.972-40.677-54.03-40.677-89.837z" fill="#CCC"/><path d="M473.69 69.946H84.01c-8.273 0-14.987 6.714-14.987 14.995v344.714h419.66V84.94c0-8.272-6.715-14.994-14.99-14.994z" fill="#FFF"/><path d="M396.467 314.262l-72.654-94.446-74.94 119.903-59.95-74.94L84.008 414.643h225.86c6.04-48.3 40.75-87.582 86.6-100.38z" fill="#4BC2B8"/><circle fill="#FC6" cx="173.935" cy="174.8" r="44.933"/><circle fill="#88C057" cx="428.728" cy="429.653" r="89.927"/><path d="M458.703 414.665h-14.987V399.67c0-8.28-6.715-14.988-14.988-14.988s-14.988 6.707-14.988 14.988v14.995h-14.988c-8.273 0-14.988 6.707-14.988 14.988 0 8.266 6.715 14.973 14.988 14.973h14.988v14.988c0 8.288 6.715 14.995 14.988 14.995s14.988-6.708 14.988-14.996v-14.988h14.987c8.28 0 14.98-6.715 14.98-14.973 0-8.28-6.7-14.988-14.98-14.988z" fill="#FFF"/></g></svg>