<?xml version="1.0" encoding="UTF-8" standalone="no"?>
<svg width="468px" height="477px" viewBox="0 0 468 477" version="1.1" xmlns="http://www.w3.org/2000/svg" xmlns:xlink="http://www.w3.org/1999/xlink" xmlns:sketch="http://www.bohemiancoding.com/sketch/ns">
    <!-- Generator: Sketch 3.5.2 (25235) - http://www.bohemiancoding.com/sketch -->
    <title>amazon</title>
    <desc>Created with Sketch.</desc>
    <defs></defs>
    <g id="Page-1" stroke="none" stroke-width="1" fill="none" fill-rule="evenodd" sketch:type="MSPage">
        <g id="amazon" sketch:type="MSArtboardGroup">
            <path d="M393.176307,380.152156 C390.928045,380.145062 388.594676,380.67 386.445707,381.684406 C383.991769,382.677531 381.509461,383.79125 379.183184,384.791469 L375.722138,386.217312 L371.239799,388.004938 L371.239799,388.068781 C322.544015,407.817781 271.394292,419.394781 224.046045,420.409188 C222.301338,420.473031 220.563722,420.473031 218.854476,420.473031 C144.427799,420.5085 83.6679993,385.969031 22.3691839,351.9545 C20.2202147,350.8195 18.0712454,350.237813 15.9151839,350.237813 C13.1420916,350.237813 10.3264454,351.266406 8.2696762,353.188813 C6.20581466,355.118312 4.98593774,357.934531 5.00012236,360.793313 C4.98593774,364.510438 6.99306082,367.915437 9.78033774,370.128688 C67.2989531,420.061594 130.349569,466.476 215.123922,466.518563 C216.769338,466.518563 218.450215,466.476 220.145276,466.447625 C274.075184,465.2275 335.083215,447.024938 382.410184,417.266656 L382.679692,417.075125 C388.885461,413.393469 395.09123,409.1585 400.921107,404.497906 C404.566553,401.788094 407.063045,397.5815 407.027584,393.204656 C406.921199,385.429906 400.296984,380.152156 393.176307,380.152156 L393.176307,380.152156 Z M458.843984,352.57875 L458.843984,352.550375 C458.673769,347.81175 457.645384,344.208125 455.680815,341.221656 L455.489322,340.937906 L455.255276,340.647063 C453.248153,338.455094 451.326138,337.625125 449.233907,336.695844 C443.021045,334.30525 433.992538,333.035469 423.084569,333 C415.261753,333 406.630415,333.73775 397.956522,335.624687 L397.942338,335.057187 L389.204615,337.958531 L389.055676,338.036563 L384.126522,339.63975 L384.140707,339.86675 C378.353384,342.264437 373.076707,345.258 368.190107,348.790687 C365.161692,351.081969 362.622645,354.089719 362.473707,358.700656 C362.409876,361.20475 363.672307,364.106094 365.814184,365.808594 C367.906415,367.518188 370.374538,368.085687 372.523507,368.085687 C373.041245,368.085687 373.523522,368.0715 373.956153,367.993469 L374.374599,367.958 L374.707938,367.90125 C378.984599,367.000344 385.197461,366.390281 392.459984,365.361687 C398.708307,364.680687 405.32543,364.162844 411.077292,364.162844 C415.155369,364.141563 418.78663,364.425313 421.283122,364.971531 C422.538461,365.226906 423.48883,365.560312 424.020753,365.822781 C424.176784,365.886625 424.311538,365.964656 424.389553,366.0285 C424.50303,366.369 424.659061,367.255719 424.630692,368.5255 C424.701615,373.327969 422.630661,382.244812 419.871753,390.927562 C417.134122,399.631594 413.814922,408.364 411.616307,414.166687 C411.105661,415.500313 410.772322,416.954531 410.772322,418.557719 C410.722676,420.898656 411.673045,423.721969 413.701445,425.587625 C415.666015,427.474562 418.205061,428.212312 420.361122,428.212312 L420.44623,428.212312 C423.659045,428.176844 426.382492,426.885781 428.74423,425.062687 C450.907692,405.115062 458.609938,373.320875 458.914907,355.41625 L458.843984,352.57875 L458.843984,352.57875 Z" id="Shape" fill="#FFCC66" sketch:type="MSShapeGroup"></path>
            <path d="M359.436831,284.506188 C348.450846,270.460563 337.422308,258.429562 337.422308,231.366906 L337.422308,141.212438 C337.422308,103.140281 340.429446,68.0616875 312.393554,42.0489063 C289.357738,21.030125 253.286262,13 225.236185,13 L213.207631,13 C162.135923,15.9722812 108.042892,38.0196563 96.0285231,101.161125 C94.0214,109.184156 100.042769,112.170625 104.042831,113.16375 L160.1288,120.165281 C166.150169,119.165063 169.143123,114.142688 170.150231,109.177063 C175.150308,87.1367813 193.186046,76.0918125 213.207631,74.0842813 L217.228969,74.0842813 C229.250431,74.0842813 242.257723,79.1066563 249.272015,89.1372188 C257.286323,101.154031 256.2934,117.185906 256.2934,131.217344 L256.2934,139.254562 C243.257738,140.219313 228.243323,141.212437 213.207631,143.198688 C190.171815,146.249 167.128908,150.2215 148.107338,159.273125 C111.050031,174.290594 86,206.333063 86,253.414281 C86,312.554875 124.057323,342.589812 172.150262,342.589812 C188.171785,342.589812 201.207446,340.568094 213.200538,337.588719 C232.250477,331.566125 248.250723,320.556625 267.307754,300.488406 C278.315015,315.53425 281.329246,322.564156 300.350815,338.581844 C305.365077,340.568094 310.372246,340.568094 314.365215,337.588719 C326.407954,327.551063 347.450831,309.511656 358.443908,299.516563 C363.472354,295.494406 362.465246,289.478906 359.436831,284.506188 L359.436831,284.506188 Z M245.279046,258.436656 C238.264754,272.432625 226.229108,281.462969 213.207631,284.513281 C211.214692,284.513281 208.221738,285.5135 205.193323,285.5135 C183.1788,285.5135 170.150231,268.460125 170.150231,243.419188 C170.150231,211.348344 189.178892,196.323781 213.207631,189.308063 C226.2362,186.307406 241.257708,185.300094 256.2934,185.300094 L256.2934,197.338188 C256.2934,220.357406 257.279231,238.375531 245.279046,258.436656 L245.279046,258.436656 Z" id="Shape" fill="#666666" sketch:type="MSShapeGroup"></path>
        </g>
    </g>
</svg>