<svg width="560" height="560" viewBox="0 0 560 560" xmlns="http://www.w3.org/2000/svg"><title>angellist</title><defs><filter x="-50%" y="-50%" width="200%" height="200%" filterUnits="objectBoundingBox" id="a"><feOffset dx="1" dy="1" in="SourceAlpha" result="shadowOffsetOuter1"/><feGaussianBlur stdDeviation="2" in="shadowOffsetOuter1" result="shadowBlurOuter1"/><feColorMatrix values="0 0 0 0 0 0 0 0 0 0 0 0 0 0 0 0 0 0 0.0508237092 0" in="shadowBlurOuter1" result="shadowMatrixOuter1"/><feMerge><feMergeNode in="shadowMatrixOuter1"/><feMergeNode in="SourceGraphic"/></feMerge></filter></defs><path d="M112 380.706c0-19.765 4.38-35.137 13.14-46.118 7.195-9.725 18.77-16.784 34.726-21.176-5.006-12.55-7.508-21.804-7.508-27.765 0-10.353 5.474-21.333 16.424-32.94 11.576-10.982 22.37-16.472 32.38-16.472 5.318 0 11.575 1.412 18.77 4.236-15.016-42.98-25.81-75.607-32.38-97.882-7.507-25.412-11.26-43.45-11.26-54.117 0-15.058 3.753-26.823 11.26-35.294C195.375 44.392 205.856 40 218.995 40c22.526 0 49.587 46.275 81.185 138.824l7.976 23.058c1.878-4.706 3.755-9.882 5.632-15.53 31.285-91.607 59.44-137.41 84.47-137.41 12.513 0 22.368 4.234 29.563 12.705 7.51 8.47 11.264 19.45 11.264 32.94 0 8.786-3.754 26.51-11.263 53.178-6.57 22.902-16.893 54.274-30.97 94.117 17.832 4.393 30.658 12.863 38.48 25.412 8.447 13.49 12.67 34.353 12.67 62.588 0 55.843-16.58 101.49-49.743 136.942C364.47 502.274 321.61 520 269.677 520c-20.65 0-40.515-3.765-59.6-11.294-18.457-6.588-35.194-16.94-50.21-31.06C143.91 462.59 132.02 447.06 124.2 431.06c-8.133-16.942-12.2-33.727-12.2-50.354zm30.503-2.353c0 7.843 2.19 17.098 6.57 27.765 4.067 10.04 10.167 20.55 18.3 31.53 12.828 16.627 28 29.332 45.52 38.117 17.833 8.784 38.012 13.176 60.537 13.176 40.358 0 74.302-15.215 101.833-45.646 27.217-30.118 40.826-68.235 40.826-114.353 0-14.43-.94-25.567-2.816-33.41-1.565-6.903-4.537-12.236-8.916-16-8.447-7.216-25.028-13.49-49.743-18.824-24.716-5.647-50.995-8.47-78.838-8.47-6.883 0-11.263.94-13.14 2.823-2.19.94-3.285 4.077-3.285 9.41 0 12.863 7.195 21.96 21.587 27.295 15.64 6.588 41.45 9.882 77.43 9.882h13.138c5.006 0 8.604 1.726 10.794 5.177 2.502 2.51 4.223 7.372 5.162 14.588-5.32 5.333-13.922 10.196-25.81 14.588-11.263 4.078-19.553 8.157-24.872 12.235-12.514 9.098-22.525 19.922-30.033 32.47-7.197 12.236-10.795 23.844-10.795 34.824 0 6.588 1.565 14.588 4.693 24 3.44 10.352 5.162 17.097 5.162 20.235v2.823l-1.877 7.06c-13.765-.942-23.777-7.373-30.034-19.295-5.32-10.04-8.29-22.902-8.917-38.588-.938.313-2.815.47-5.63.47h-5.163c.313 1.57.47 3.45.47 5.647 0 9.412-3.6 17.412-10.794 24-7.196 6.59-15.643 9.883-25.34 9.883-14.705 0-29.565-7.06-44.582-21.177-15.017-14.43-22.525-28.55-22.525-42.353 0-2.51.468-5.02 1.407-7.53.313-2.195 2.815-5.646 7.508-10.352 7.82 9.725 13.14 16.47 15.956 20.235 13.14 18.51 25.028 27.765 35.665 27.765 2.816 0 5.475-.94 7.978-2.824 1.877-1.883 2.816-3.452 2.816-4.706 0-2.51-1.878-7.06-5.633-13.648-2.502-4.705-8.29-13.02-17.363-24.94-8.76-11.295-15.8-19.138-21.117-23.53-4.693-4.392-8.134-6.588-10.324-6.588-5.944 0-11.732 3.45-17.363 10.353-5.632 6.903-8.447 15.53-8.447 25.883zm42.234-89.882c0 4.08 2.503 11.138 7.51 21.177 4.38 8.47 11.418 19.137 21.116 32 9.698 12.55 18.458 22.275 26.28 29.177 7.508 6.274 13.14 9.41 16.893 9.41 2.19 0 4.38-1.097 6.57-3.293 2.19-2.51 3.285-5.018 3.285-7.528 0-3.765-2.815-12.863-8.446-27.294-6.57-16-13.765-30.432-21.586-43.294-6.883-10.98-12.984-18.667-18.302-23.06-5.006-4.705-9.855-7.058-14.548-7.058-3.44 0-7.352 2.353-11.73 7.06-4.694 4.705-7.04 8.94-7.04 12.705zm21.118-203.294c0 10.667 3.754 27.45 11.262 50.353 6.883 22.274 17.207 52.078 30.972 89.41 3.128-1.88 7.508-2.822 13.14-2.822.312 0 1.33.078 3.05.235 1.72.157 3.362.235 4.927.235 1.25 0 5.318.314 12.2.94l-32.38-94.116c-8.76-25.098-15.642-41.412-20.647-48.94-4.067-6.59-8.134-9.884-12.2-9.884-2.817 0-5.163 1.255-7.04 3.765-2.19 2.823-3.285 6.43-3.285 10.823zm77.9 240c2.815 7.216 5.787 15.06 8.915 23.53 6.257-7.216 12.514-13.177 18.77-17.882-1.563-.314-3.91-.706-7.038-1.177-3.128-.47-5.475-.863-7.04-1.176-6.256-1.254-10.792-2.352-13.608-3.294zm49.273-96l31.44 5.648c14.08-38.902 24.873-70.118 32.38-93.648 7.822-25.41 11.733-40.47 11.733-45.176 0-5.02-1.094-8.94-3.284-11.765-1.25-2.196-3.598-3.294-7.04-3.294-4.38 0-9.228 4.236-14.547 12.707-5.945 9.098-12.67 24.94-20.18 47.53l-30.502 88z" filter="url(#a)" fill="#000" fill-rule="evenodd"/></svg>