<svg width="560" height="560" viewBox="0 0 560 560" xmlns="http://www.w3.org/2000/svg"><title>arrow_left</title><path d="M480 240.39H176.2l92.08-92.08c7.22-7.26 11.72-17.26 11.72-28.3 0-22.1-17.92-40.02-40-40.02-11.04 0-21.04 4.5-28.3 11.74l-160 159.98c-7.24 7.24-11.7 17.24-11.7 28.3 0 11.04 4.48 21.04 11.7 28.28l160 160c7.24 7.22 17.24 11.72 28.3 11.72 22.1 0 40-17.92 40-40.02 0-11.04-4.48-21.04-11.72-28.28l-92.06-92.06H480c22.1 0 40-17.76 40-39.64s-17.92-39.62-40-39.62z" fill="#0093E6" fill-rule="evenodd"/></svg>