<svg width="560" height="560" viewBox="0 0 560 560" xmlns="http://www.w3.org/2000/svg"><title>cloud</title><path d="M444.64 247.5c.053-1.523.233-3.007.233-4.545C444.865 168.42 384.408 108 309.834 108c-55.785 0-103.65 33.817-124.237 82.058-10.133-4.456-21.316-6.968-33.09-6.968-45.526 0-82.44 36.945-82.44 82.508 0 2.902.157 5.767.45 8.587C51.654 293.145 40 319.252 40 348.098 40 406.035 86.995 453 144.963 453c.082 0 .157-.007.232-.007V453h269.603v-.007c.075 0 .15.007.224.007C472.998 453 520 406.035 520 348.098c0-47.656-31.822-87.818-75.36-100.598z" fill="#0093E6" fill-rule="evenodd"/></svg>