<svg width="560" height="560" viewBox="0 0 560 560" xmlns="http://www.w3.org/2000/svg"><title>cog</title><g fill="none" fill-rule="evenodd"><path d="M490 234.8l-22.305-7.283c-4.275-15.33-10.275-29.886-17.955-43.455l10.553-20.866c11.722-11.703 11.722-30.673 0-42.37L439.09 99.632c-11.722-11.71-30.705-11.71-42.427 0l-20.85 10.58c-13.568-7.672-28.163-13.68-43.493-17.966l-7.327-22.275C324.993 53.42 311.567 40 295 40h-30c-16.575 0-30 13.42-30 29.97l-7.282 22.274c-15.293 4.24-29.828 10.22-43.35 17.847l-21.046-10.46c-11.722-11.71-30.704-11.71-42.427 0l-21.203 21.197c-11.722 11.703-11.722 30.674 0 42.37l10.47 21.022c-7.597 13.448-13.567 27.893-17.812 43.088L70 234.8c-16.568 0-30 13.42-30 29.97v29.968c0 16.566 13.432 29.962 30 29.962l22.358 7.5c4.245 15.187 10.207 29.655 17.804 43.088l-10.47 21.03c-11.722 11.712-11.722 30.675 0 42.385l21.203 21.18c11.723 11.71 30.712 11.71 42.427 0l21.06-10.458c13.456 7.59 27.916 13.553 43.118 17.786l7.5 22.336c0 16.543 13.425 29.97 30 29.97h30c16.567 0 29.993-13.427 29.993-29.97l7.507-22.327c15.262-4.264 29.767-10.25 43.275-17.885l20.895 10.55c11.722 11.71 30.712 11.71 42.428 0l21.202-21.182c11.722-11.71 11.722-30.68 0-42.384l-10.583-20.844c7.673-13.562 13.688-28.104 17.97-43.44L490 324.7c16.567 0 29.992-13.396 29.992-29.962v-29.97c0-16.55-13.424-29.968-29.992-29.968z" fill="#F06EAA"/><ellipse fill="#FFF" cx="279.993" cy="279.754" rx="135.27" ry="135.131"/><ellipse fill="#9B7CAB" cx="280" cy="279.776" rx="60" ry="59.938"/></g></svg>