<svg width="559" height="560" viewBox="0 0 559 560" xmlns="http://www.w3.org/2000/svg"><title>comment_code</title><path d="M225.876 247H73.646C55.065 247 40 262.077 40 280.674c0 18.598 15.064 33.674 33.647 33.674H225.2l-78.465 156.9c-8.318 16.63-1.59 36.86 15.03 45.184 16.617 8.323 36.83 1.59 45.148-15.042l73.092-146.154 73.082 146.134c8.318 16.63 28.53 23.365 45.15 15.04 16.617-8.323 23.346-28.552 15.028-45.183l-78.456-156.88h151.543c18.583 0 33.647-15.075 33.647-33.673C520 262.077 504.936 247 486.353 247H334.135l79.13-158.227c8.318-16.63 1.59-36.86-15.03-45.184-16.617-8.325-36.83-1.59-45.148 15.04l-73.082 146.134L206.913 58.61c-8.318-16.63-28.53-23.365-45.15-15.042-16.617 8.324-23.346 28.554-15.028 45.184L225.875 247z" fill="#979797" fill-rule="evenodd"/></svg>