<svg width="560" height="560" viewBox="0 0 560 560" xmlns="http://www.w3.org/2000/svg"><title>day</title><g fill="none" fill-rule="evenodd"><path d="M490 40H70c-16.568 0-30 13.432-30 30.008V490c0 16.567 13.432 30 30 30h420c16.567 0 30-13.433 30-30V70.007C520 53.432 506.567 40 490 40z" fill="#E75F45"/><path d="M475 70.007H85c-8.28 0-15 6.713-15 14.993v390c0 8.28 6.72 15 15 15h390c8.28 0 15-6.72 15-15V85c0-8.28-6.72-14.992-15-14.992z" fill="#E6E6E6"/><path d="M490 280H70L55 445c0 8.28 6.72 15 15 15h420c8.28 0 15-6.72 15-15l-15-165z" fill="#FFF"/><path d="M175 220h15v150h30V190h-45v30zm210 30c0-33.135-26.865-60-60-60-33.135 0-60 26.865-60 60h30c0-16.575 13.433-30 30-30s30 13.425 30 30c0 28.755-90 21.097-90 90v30h120v-30h-90c0-45.945 90-33.427 90-90z" fill="#666"/></g></svg>