<svg width="560" height="560" viewBox="0 0 560 560" xmlns="http://www.w3.org/2000/svg"><title>delete</title><path d="M280 40C147.462 40 40 147.46 40 279.998c0 132.544 107.458 239.998 240 239.998 132.547 0 240-107.45 240-239.998C520 147.456 412.543 40 280 40zM131.086 391.123C107.92 360.13 94.2 321.666 94.2 279.998 94.2 177.395 177.397 94.2 280 94.2c41.668 0 80.133 13.72 111.126 36.885l-260.04 260.038zM429.373 169.49c22.89 30.885 36.426 69.117 36.426 110.508 0 102.613-83.187 185.797-185.8 185.797-41.39 0-79.623-13.537-110.51-36.425l259.883-259.88z" fill="#E75F45" fill-rule="evenodd"/></svg>