<svg width="560" height="560" viewBox="0 0 560 560" xmlns="http://www.w3.org/2000/svg"><title>earth</title><defs><radialGradient cx="83.589%" cy="13.734%" fx="83.589%" fy="13.734%" r="99.526%" id="a"><stop stop-color="#049CD6" offset="0%"/><stop stop-color="#1AA8CD" offset="31.46%"/><stop stop-color="#4BC2B8" offset="100%"/></radialGradient></defs><g transform="translate(40 40)" fill="none" fill-rule="evenodd"><circle opacity=".96" fill="url(#a)" cx="236.345" cy="236.345" r="236.308"/><path d="M321.563 84.768c3.663.916 8.603-1.787 9.578 4.357 1.1 6.927 4.476 12.642 8.803 18.292 6.04 7.88 2.2 15.847-7.613 17.627-1.544.288-3.102.546-4.667.664-8.197.606-8.522 1.078-9.585 9.312-.717 5.635 2.414 8.626 6.387 11.63 3.67 2.778 6.617.614 9.098-1.173 2.563-1.84 4.69-4.615 6.292-7.392 4.527-7.835 9.747-15.42 18.535-18.1 7.577-2.31 16.017-5.48 23.336.355 3.234-1.824 7.126-4.165 9.865-3.22 6.072 2.112 11.123 6.004 14.342 12.362 2.024 4.002 6.285 6.882 8.906 9.607 3.737-3.472 6.004-7.238 9.01-7.984 5.368-1.32 11.21-1.24 16.785-.84 2 .14 4.777 2.56 5.42 4.525.62 1.884-.916 4.587-1.824 6.803-.4.952-1.626 1.565-3.317 3.1 4.88.74 8.522 1.397 12.192 1.81.672.082 1.248.185 1.854.28-3.982-9.695-8.59-19.243-13.98-28.577-9.37-16.217-20.41-30.853-32.714-43.924-2.622 3.47-6.55 6.144-11.395 7.163-5.914 1.24-10.802.022-15.942-1.935-3.678-1.396-6.13-.428-9.438 2.083-5.346 4.046-11.763 6.734-17.952 9.526-1.41.64-4.246-.046-5.494-1.16-4.157-3.745-7.968-7.873-11.726-12.03-1.36-1.492-2.186-3.464-3.47-5.56l-11.285 12.398zm-185.058 70.597c3.56-2.452 6.97-6.107 8.75-10 6.35-13.897 20.205-19.287 30.787-28.356 1.21-1.035 3.293-1.145 5.014-1.47 3.722-.717 8.92-.037 10.81-2.245 1.92-2.253.584-7.28.695-11.1.223-7.923 3.406-11.194 11.13-11.327 3.345-.06 6.69-.052 10.036.074 7.222.25 8.7 2.304 7.524 9.385-.228 1.367.584 3.515 1.655 4.298.9.665 2.872-.147 4.364-.303-.29-1.595-.57-3.197-.865-4.792-.628-3.493-1.868-7-1.743-10.472.14-4.024-.495-7.052-3.537-10.028-2.54-2.488-4.615-5.848-5.834-9.208-1.188-3.25-2.857-4.572-6.017-4.114-5.54.79-9.113-1.573-11.018-6.653-1.477-3.936-4.446-4.948-8.345-5.184-6.78-.413-9.615 4.86-10.56 9.305-2.37 11.18-11.535 17.103-17.575 25.367-3.825 5.22-11.055 3.67-12.155-2.607-.946-5.384-3.663-7.784-8.256-9.46-2.932-1.07-5.694-2.673-8.44-4.217-7.51-4.21-9.025-12.54-2.6-18.1 9.43-8.16 19.886-13.927 33.34-11.283 2.57.495 7.482-1.35 8.316-3.36 3.323-8.005 10.863-11.247 16.675-16.32 4.32-3.78 11.786-2.79 15.832.857 4.91 4.43 3.818 8.714.436 13.52-1.093 1.56-1.67 5.333-.775 6.078 2.03 1.72 6.114 3.84 7.59 2.917 5.207-3.227 9.727-7.584 14.312-11.74.43-.393-.45-2.423-.952-3.59-3.3-7.525-9.578-10.863-17.17-12.982-8.47-2.356-10.183-9.194-2.924-14.068 1.44-.967 2.976-1.802 4.534-2.607-8.152.923-16.283 2.253-24.37 4.054-7.17 1.544-9.473 6.787-6.482 13.308 1.764 3.832 2.377 7.864-1.492 10.67-3.907 2.843-7.82.938-10.53-2.045-1.795-1.987-2.253-5.17-3.375-7.776-.828-1.897-1.774-3.736-2.66-5.612-2.296 1.226-6.24 2.098-6.594 3.737-1.832 8.625-9.32 10-15.427 13.137-1.042.525-3.28.613-3.715.008-.74-1.056-.93-2.91-.59-4.232.34-1.336.693-2.673 1.077-4.032-5.79 2.74-11.535 5.672-17.17 8.928C63.088 63.514 25.707 114.188 9.365 170.85c5.834 9.423 13.787 17.532 20.226 26.63 2.703 3.817 3.81 8.765 5.694 13.166 1.04 2.452 1.565 5.53 3.374 7.17 6.55 5.945 14.32 9.438 23.262 10.435 3.382.37 6.97 1.382 9.873 3.103 9.21 5.45 18.144 11.387 27.087 17.073 3.404-7.436 2.695-9.283-5.088-12.835-5.177-2.362-7.067-6.57-6.018-12.132l1.476-7.776c-2.968 2.452-4.548 3.804-6.173 5.08-10.124 8.013-20.935 4.698-25.19-7.435-4.06-11.565.223-21.408 6.655-30.233 10.087-13.84 26.348-9.467 40.164-12.155 1.86-.363 4.18.944 6.108 1.867 2.23 1.064 4.26 2.548 7.155 4.328 1.1-12.17 10.47-16.217 18.535-21.77zm-22.39-49.24c.155-1.633 3.803-4.114 5.84-4.107 3.737.015 8.45 1.02 8.367 6.012-.03 1.69-3.648 3.323-5.627 4.984-4.593-1.66-9.09-1.81-8.58-6.89zm256.12-42.588c4.357.65 7.46 1.728 9.127 5.997 1.714 4.364 4.402 3.308 6.69.657 3.22-3.728 4.83-8.07 4.483-12.922-5.324-4.58-10.833-8.89-16.497-12.946-2.518 2.29-5.176 4.43-7.82 6.676-1.928 1.654-4.41 5.68-3.715 6.78 1.632 2.606 4.837 5.324 7.732 5.76zm101.84 155.808c-.183-.325-.39-.65-.575-.975-3.648-6.21-6.166-13.085-9.09-19.71-.864-1.963-1.928-4.046-1.98-6.09-.044-2.143.732-5.946 1.677-6.116 1.654-.31 3.62-.037 5.37.598-1.33-6.218-2.933-12.398-4.78-18.55-1.757 2.415-4.386 4.106-7.915 4.89-10.02 2.222-19.954 1.52-29.546-2.224-4.498-1.758-8.59-2.238-12.702 1.05-4.512 3.602-9.51 3.226-14.452.863-2.31-1.092-4.364-2.998-6.764-3.566-8.086-1.942-13.204-6.27-14.688-14.865-.258-1.5-3.618-3.686-5.346-3.516-11.882 1.166-23.69 3.936-35.55 4.142-12.31.2-17.28 8.56-21.378 17.11-2.858 5.96-6.358 10.524-11.15 14.718-9.04 7.93-13.788 17.753-12.77 30.196.385 4.593-.804 9.297-.952 13.964-.125 4.047-1.262 9.076.628 11.978 6.174 9.445 13.44 18.196 20.514 27.035 1.093 1.38 3.434 2.673 5.074 2.548 8.728-.717 17.664-.953 26.045-3.176 8.618-2.297 16.372-4.372 23.498 2.975 1.027 1.056 2.71 1.558 4.172 2.075 10.767 3.818 11.712 4.77 11.328 16.084-.236 7.082 1.3 12.975 4.985 19.377 7.865 13.633 12.864 28.107 5.34 44.265-1.958 4.187-2.017 10.862-.03 14.968 4.91 10.147 6.528 20.825 8.78 31.592.34 1.624.797 3.22 1.263 4.814 50.467-48.975 75.9-117.726 70.996-186.455zM254.91 311.343c-9.143-1.743-16.837-6.27-25.226-9.393-7.496-2.792-12.91-7.215-14.8-15.405-1.46-6.373-5.973-9.474-12.043-11.653-5.767-2.067-11.43-5.073-16.356-8.72-6.676-4.94-12.547-10.65-22-8.944-2.377.436-5.818-.627-7.642-2.267-5.99-5.382-12.54-5.892-18.092-.988-5.23 4.615-15.737 6.83-10.716 18.262 1.086 2.48-.465 6.55-1.69 9.51-1.485 3.598-3.81 6.884-5.99 10.162-6.838 10.28-5.612 21.01-.93 31.356 3.877 8.573 8.758 16.74 13.698 24.768 2.06 3.337 5 6.675 8.352 8.58 11.764 6.684 18.063 15.98 16.74 29.893-.368 3.907-.33 7.902 0 11.823.814 9.548 2.15 19.06 2.793 28.616.317 4.63-.42 9.348-.768 14.016-.112 1.543-.895 3.116-.695 4.585.71 5.022 1.462 10.043 2.377 15.043 8.463 2.806 17.074 5.14 25.795 6.978 2.23-8.21 6.897-16.076 13.07-20.795 1.81-1.39 3.33-3.937 3.774-6.182.998-5.095 3.553-8.477 8.16-10.78 2.01-1.013 4.255-2.63 5.185-4.55 3.53-7.348 7.983-14.673 9.438-22.5 1.84-9.904 7.71-14.71 15.943-17.82 9.77-3.685 13.595-7.547 13.04-17.68-.7-12.767 3.014-23.482 11.115-33.17 2.926-3.508 5.082-8.522 1.42-12.43-3.952-4.216-8.79-9.326-13.95-10.315zM308.374 32.13c6.735-2.562 13.53-4.955 20.234-7.598 2.245-.886 4.667-1.647 6.897-2.622C306.137 8.36 274.22.864 241.81.08c2.613.65 5.353.82 8.218.82 12.923-.014 16.874 5.628 14.696 18.36-1.38 8.07-1.5 16.43-1.522 24.656-.007 4.91 3.02 8.463 7.887 9.94 4.496 1.366 6.74-1.72 9.23-4.682 5.9-7.015 12.332-13.263 22.11-14.54 2.06-.266 3.928-1.743 5.944-2.504z" fill="#FFF"/></g></svg>