<svg width="560" height="560" viewBox="0 0 560 560" xmlns="http://www.w3.org/2000/svg"><title>foursquare</title><path d="M350.177 204.862l-60.51-61.296c-16.6-16.188-42.335-16.188-58.95 0l-14.227 11.027c-18.615-14.147-41.376-22.908-66.684-22.908C89.176 131.685 40 179.968 40 239.305c0 59.336 49.403 107.62 110.033 107.62 4.72 0 9.24-.8 13.814-1.375l98.472 94.606L520 212.21V40L350.177 204.862zM153.94 322.03c-.44 0-.84.12-1.267.12-45.51 0-84.87-38.43-84.87-82.832 0-44.416 39.36-78.258 84.87-78.258 17.734 0 34.095 5.627 47.563 14.974 21.067 14.6 34.935 38.496 34.935 65.59.014 43.963-36.348 79.738-81.23 80.405zm336.525-115.82L265.253 404.38l-72.645-64.737c20.108-8.96 37.203-23.734 48.483-42.095l28.35 29.028L490.464 104.75v101.46z" fill="#0CBBDD" fill-rule="evenodd"/></svg>