<svg width="560" height="560" viewBox="0 0 560 560" xmlns="http://www.w3.org/2000/svg"><title>github</title><path d="M276.315 40C145.807 40 40 145.8 40 276.286 40 406.794 145.807 512.57 276.315 512.57c130.5 0 236.315-105.776 236.315-236.284C512.63 145.8 406.823 40 276.315 40zm66.21 416.3c-1.358-18.49-2.887-41.383-2.968-50.666-.598-7.118-1.36-25.21-18.55-36.775 68.248-5.717 100.733-43.445 103.06-93.29 1.95-28.387-9.335-53.34-29.384-73.478 1.027-21.54-.65-47.077-2.03-58.31-15.39-4.437-51.28 14.52-61.315 22.62-21.15-8.204-72.923-11.084-104.39 0-22.308-15.67-47.696-25.373-61.535-22.663-12.768 28.304-4.556 55.08-2.06 58.264-16.46 15.027-39.412 33.548-33.18 72.295 10 56.83 49.994 87.5 114.396 94.995-13.737 2.813-16.056 13.056-17.215 17.494-43.244 17.833-55.6-11.02-61.078-18.53-18.15-22.47-34.442-15.957-35.454-15.588-.974.354-1.705 1.765-1.61 2.452.91 4.837 10.804 9.762 11.277 10.16 13.388 9.985 18.35 28.033 21.408 33.158 19.215 31.584 63.884 18.49 64.305 18.75.037 2.746-.303 26-.576 44.1-81.393-22.25-141.32-96.524-141.32-185.006 0-106.03 85.965-191.986 192.008-191.986s192.007 85.957 192.007 191.986c0 82.744-52.423 153.038-125.796 180.014z" fill="#666" fill-rule="evenodd"/></svg>