<svg width="560" height="560" viewBox="0 0 560 560" xmlns="http://www.w3.org/2000/svg"><title>h1</title><g fill="none" fill-rule="evenodd"><path d="M291.803 40v204.582H134.426V40H40v440.648h94.426V307.54h157.377V480.65h94.427V40h-94.427z" fill="#CCC"/><path d="M512.13 338.214V323.28h-15.737c-.173 0-.338.046-.52.054-3.146-.142-6.373.582-9.308 2.353L441.76 352.67c-8.247 4.964-11.07 15.965-6.31 24.565 4.76 8.6 15.304 11.552 23.56 6.587l21.646-13.04v125.604c0 8.695 7.05 15.745 15.737 15.745 8.688 0 15.738-7.05 15.738-15.744V344.164c.316-1.96.332-3.96 0-5.95z" fill="#E75F45"/></g></svg>