<svg width="560" height="560" viewBox="0 0 560 560" xmlns="http://www.w3.org/2000/svg"><title>h2</title><g fill="none" fill-rule="evenodd"><path d="M505 460h-53.333L496 417.993l-.037-.053C510.526 407.005 520 389.627 520 369.993 520 336.858 493.135 310 460 310c-33.135 0-60 26.858-60 59.992 0 8.288 6.72 15.008 15 15.008 8.28 0 15-6.72 15-15.008C430 353.425 443.432 340 460 340c16.567 0 30 13.425 30 29.992 0 8.085-5.535 18.068-13.845 24.233l.045.068-71.978 71.01c-2.67 2.67-4.035 6.135-4.17 9.637l-.052.053c0 .082.022.157.022.24-.06 3.764 1.32 7.552 4.2 10.432 2.138 2.137 4.785 3.457 7.553 3.967 1.035.225 2.115.368 3.225.368h90c8.28 0 15-6.72 15-15.008 0-8.287-6.72-14.992-15-14.992z" fill="#ED7161"/><path d="M280 40v194.993H130V40H40v419.993h90V295h150v164.993h90V40h-90z" fill="#CCC"/></g></svg>