<svg width="560" height="560" viewBox="0 0 560 560" xmlns="http://www.w3.org/2000/svg"><title>h3</title><g fill="none" fill-rule="evenodd"><path d="M520 325c0-.082-.022-.158-.022-.232.06-3.773-1.32-7.568-4.2-10.448-2.146-2.138-4.8-3.45-7.568-3.953-1.035-.225-2.108-.367-3.21-.367h-90c-8.28 0-15 6.713-15 15 0 8.28 6.72 15 15 15h54.742l-35.422 35.422c-5.625 5.625-5.625 14.745 0 20.37 2.947 2.94 6.84 4.298 10.702 4.17L445 400h15c16.567 0 30 13.425 30 29.993C490 446.567 476.567 460 460 460c-16.568 0-30-13.433-30-30.007 0-8.28-6.72-15-15-15-8.28 0-15 6.72-15 15C400 463.135 426.865 490 460 490c33.135 0 60-26.865 60-60.007 0-26.94-17.76-49.733-42.203-57.315l34.815-34.83c4.41-2.61 7.388-7.358 7.388-12.848z" fill="#E75F45"/><path d="M280 40v194.993H130V40H40v419.993h90V295h150v164.993h90V40h-90z" fill="#CCC"/></g></svg>