<svg width="560" height="560" viewBox="0 0 560 560" xmlns="http://www.w3.org/2000/svg"><title>hull</title><g fill="none" fill-rule="evenodd"><path d="M518.51 176.873c-.31-6.032-.938-10.627-1.338-13.758-.428-3.148-.656-4.813-.656-4.813s-.282 1.665-.837 4.768c-.238 1.556-.565 3.476-.94 5.732-.454 2.22-.936 4.76-1.41 7.58-1.065 5.642-2.63 12.412-4.642 19.91-2.048 7.47-4.743 15.623-8.33 23.785-3.614 8.153-8.138 16.324-13.873 23.62-5.726 7.335-12.535 13.84-20.446 19.283-7.857 5.468-16.696 9.873-26.127 13.558-9.42 3.658-19.444 6.65-29.703 9.208-10.223 2.74-20.728 4.94-31.17 7.498-10.486 2.448-20.928 5.205-31.06 8.553-10.168 3.358-20.054 7.434-29.175 12.803-9.085 5.35-17.424 12.138-23.86 20.282-6.508 8.017-10.723 17.398-13.135 25.788-.82 2.875-1.357 5.605-1.812 8.28-.446-2.675-1.01-5.405-1.82-8.262-2.413-8.38-6.61-17.762-13.136-25.778-6.41-8.135-14.748-14.905-23.832-20.274-9.13-5.368-19.008-9.426-29.158-12.802-10.16-3.367-20.6-6.088-31.07-8.554-10.45-2.566-20.945-4.795-31.186-7.534-10.25-2.548-20.255-5.55-29.686-9.236-9.43-3.712-18.26-8.098-26.117-13.567-7.883-5.44-14.71-11.965-20.436-19.28-5.745-7.29-10.25-15.46-13.855-23.604-3.605-8.163-6.3-16.316-8.33-23.77-2.012-7.487-3.577-14.248-4.66-19.908-.5-2.84-.975-5.396-1.43-7.607-.355-2.238-.692-4.14-.937-5.696-.547-3.113-.83-4.77-.83-4.77s-.245 1.675-.682 4.814c-.41 3.15-1.028 7.79-1.33 13.777-.335 5.98-.58 13.322-.108 21.803.464 8.498 1.684 18.144 4.224 28.526 2.566 10.326 6.553 21.418 12.598 31.883 6.044 10.446 13.982 20.246 23.277 28.135 4.606 3.994 9.53 7.588 14.637 10.7 5.07 3.203 10.342 5.988 15.694 8.353 10.687 4.95 21.73 8.318 32.617 11.212 10.924 2.72 21.747 4.922 32.27 6.77 5.217.928 10.406 1.838 15.503 2.738 5.025.956 9.977 1.92 14.848 2.84 9.622 2.047 18.716 4.294 26.863 7.406 8.166 3.094 15.403 6.97 21.274 11.91 11.98 9.637 18.053 24.07 21.002 34.806.737 2.71 1.356 5.16 1.803 7.325.518 2.138.91 4.05 1.146 5.623.557 3.112.857 4.768.857 4.768s.3-1.665.874-4.75c.22-1.565.62-3.43 1.13-5.614.464-2.184 1.092-4.64 1.83-7.343 1.51-5.368 3.732-11.646 7.11-17.825 3.422-6.132 7.892-12.165 13.872-16.95 5.88-4.942 13.136-8.828 21.265-11.912 8.175-3.112 17.25-5.37 26.864-7.39 4.89-.936 9.832-1.9 14.848-2.856L383.3 324.3c10.524-1.847 21.348-4.05 32.253-6.788 10.915-2.894 21.957-6.288 32.626-11.238 5.352-2.357 10.613-5.177 15.71-8.362 5.1-3.112 10.024-6.697 14.603-10.7 9.294-7.89 17.25-17.69 23.267-28.136 6.072-10.455 10.04-21.556 12.608-31.865 2.53-10.363 3.75-20.018 4.233-28.507.474-8.5.238-15.824-.09-21.83" fill="#242A33"/><path d="M280.003 332.642s-.19-1.094-.573-3.136c-.136-1.02-.39-2.27-.727-3.673-.29-1.422-.69-3.026-1.173-4.803-1.917-7.046-5.862-16.507-13.624-22.84-3.818-3.237-8.526-5.79-13.816-7.803-5.298-2.042-11.197-3.52-17.44-4.85-3.183-.6-6.382-1.23-9.645-1.86-3.317-.582-6.68-1.202-10.07-1.803-6.826-1.213-13.852-2.634-20.95-4.43-7.072-1.905-14.234-4.11-21.187-7.365-3.463-1.54-6.88-3.373-10.19-5.488-3.3-2.04-6.507-4.384-9.488-7.018-6.044-5.168-11.198-11.593-15.115-18.447-3.936-6.873-6.517-14.137-8.18-20.9-1.655-6.81-2.445-13.134-2.745-18.712-.31-5.57-.155-10.382.063-14.31.19-3.92.6-6.964.873-9.023.29-2.07.427-3.163.427-3.163s.2 1.093.554 3.143c.164.994.364 2.26.6 3.728.31 1.46.618 3.127.936 4.987.7 3.71 1.718 8.148 3.018 13.06 1.32 4.895 3.082 10.237 5.41 15.596 2.344 5.34 5.28 10.7 8.997 15.467 3.708 4.804 8.153 9.078 13.28 12.65 5.08 3.61 10.833 6.473 16.95 8.915 6.126 2.388 12.616 4.366 19.27 6.052 6.652 1.805 13.47 3.254 20.26 4.93 6.788 1.624 13.57 3.42 20.167 5.616 6.59 2.196 12.998 4.885 18.933 8.412 5.9 3.51 11.307 7.94 15.47 13.29 4.235 5.26 6.962 11.402 8.525 16.898.536 1.868.9 3.664 1.18 5.396.292-1.733.647-3.53 1.183-5.415 1.554-5.506 4.29-11.64 8.526-16.908 4.163-5.34 9.59-9.77 15.497-13.298 5.908-3.52 12.325-6.208 18.942-8.395 6.58-2.197 13.36-4.01 20.16-5.606 6.77-1.687 13.605-3.118 20.25-4.923 6.66-1.686 13.15-3.636 19.277-6.043 6.126-2.406 11.88-5.313 16.96-8.895 5.117-3.574 9.57-7.83 13.28-12.643 3.735-4.785 6.643-10.145 8.988-15.495 2.345-5.36 4.1-10.69 5.417-15.604 1.318-4.904 2.318-9.342 3.018-13.052.318-1.85.618-3.518.927-4.967.227-1.478.445-2.745.6-3.757.363-2.05.554-3.144.554-3.144s.138 1.093.428 3.162c.282 2.05.673 5.067.873 9.023.21 3.937.355 8.74.046 14.31-.3 5.57-1.09 11.894-2.735 18.694-1.68 6.77-4.253 14.035-8.18 20.898-3.917 6.854-9.08 13.28-15.096 18.44-2.982 2.633-6.19 4.985-9.498 7.017-3.3 2.096-6.708 3.956-10.19 5.505-6.934 3.236-14.096 5.47-21.16 7.374-7.115 1.796-14.14 3.236-20.958 4.448-3.39.6-6.753 1.22-10.07 1.814-3.264.63-6.463 1.248-9.644 1.86-6.253 1.33-12.143 2.806-17.433 4.848-5.29 2.023-10.015 4.566-13.814 7.802-3.89 3.144-6.817 7.11-9.035 11.12-2.19 4.056-3.625 8.175-4.616 11.694-.473 1.768-.873 3.38-1.164 4.82-.354 1.423-.59 2.654-.736 3.665-.38 2.033-.58 3.127-.58 3.127" fill="#77767D"/></g></svg>