<svg width="560" height="560" viewBox="0 0 560 560" xmlns="http://www.w3.org/2000/svg"><title>image</title><g fill="none" fill-rule="evenodd"><path d="M491.935 40.015c-.03 0-.053-.015-.083-.015H67.802c-.022 0-.052.015-.082.015C52.402 40.067 40 52.08 40 66.933v424.761c0 15.347 12.447 27.795 27.802 27.795h424.043c15.355 0 27.802-12.448 27.802-27.795V66.926c.008-14.846-12.395-26.86-27.712-26.91z" fill="#CCC"/><path d="M474.69 69.946H85.01c-8.273 0-14.987 6.714-14.987 14.995v344.714h419.66V84.94c0-8.272-6.715-14.994-14.99-14.994z" fill="#FFF"/><path d="M321.35 219.816L252.176 330.5l-55.335-69.175-96.85 138.337h359.713L321.35 219.816z" fill="#4BC2B8"/><circle cx="45.008" cy="52.367" r="44.933" transform="translate(129.927 122.433)" fill="#FC6"/></g></svg>