<svg width="560" height="560" viewBox="0 0 560 560" xmlns="http://www.w3.org/2000/svg"><title>indent</title><g fill="none" fill-rule="evenodd"><path d="M295 264.993h120c8.287 0 15-6.713 15-15 0-8.28-6.72-14.993-15-14.993H295c-8.28 0-15 6.713-15 14.993 0 8.287 6.713 15 15 15zm0 120h120c8.287 0 15-6.713 15-14.993 0-8.288-6.72-15-15-15H295c-8.28 0-15 6.712-15 15 0 8.28 6.713 14.993 15 14.993zm0-240h120c8.287 0 15-6.713 15-15 0-8.273-6.72-14.993-15-14.993H295c-8.28 0-15 6.72-15 14.993 0 8.287 6.713 15 15 15zM415 475H295c-8.28 0-15 6.72-15 14.993 0 8.287 6.72 15 15 15h120c8.287 0 15-6.713 15-15 0-8.273-6.72-14.993-15-14.993zm90-300.007H295c-8.28 0-15 6.72-15 15.007 0 8.28 6.72 14.993 15 14.993h210c8.28 0 15-6.72 15-14.993 0-8.28-6.72-15.007-15-15.007zm-210-90h210c8.28 0 15-6.713 15-14.993 0-8.28-6.72-15.008-15-15.008H295c-8.28 0-15 6.72-15 15.008s6.713 14.992 15 14.992zm210 210H295c-8.28 0-15 6.72-15 15 0 8.287 6.713 15.007 15 15.007h210c8.28 0 15-6.72 15-15.007 0-8.28-6.72-15-15-15zm0 120H295c-8.28 0-15 6.72-15 15.007 0 8.28 6.72 15 15 15h210c8.28 0 15-6.72 15-15 0-8.288-6.72-15.007-15-15.007z" fill="#CCC"/><path d="M125.605 209.395C122.89 206.68 119.14 205 115 205c-8.28 0-15 6.72-15 15 0 4.148 1.68 7.898 4.395 10.613l34.53 34.53H55c-8.287 0-15 6.652-15 14.857 0 8.205 6.713 14.857 15 14.857h83.925l-34.53 34.53C101.68 332.11 100 335.86 100 340c0 8.287 6.72 15.007 15 15.007 4.14 0 7.89-1.687 10.605-4.395l60-60C188.32 287.897 190 284.147 190 280c0-4.14-1.68-7.89-4.395-10.605l-60-60zM235 40c-8.28 0-15 6.72-15 15v450c0 8.28 6.72 15 15 15 8.28 0 15-6.72 15-15V55c0-8.28-6.72-15-15-15z" fill="#48A0DC"/><g><path d="M60.307.002L60.297 0H3.71L3.7.002C1.654.01 0 1.612 0 3.595v36.68c0 2.05 1.66 3.71 3.71 3.71h56.585c2.05 0 3.71-1.66 3.71-3.71V3.596c0-1.982-1.654-3.586-3.698-3.593z" fill="gray"/><path d="M6.006 5.997h52v32h-52z" fill="#FFF"/><path d="M36.013 15.928L30 26.04l-6.01-6.067-8.016 12.134h32.063l-12.024-16.18z" fill="#75A64B"/><ellipse cx="3.992" cy="3.905" rx="3.018" ry="3.046" transform="translate(15 11)" fill="#FC6"/></g></g></svg>