<svg width="560" height="560" viewBox="0 0 560 560" xmlns="http://www.w3.org/2000/svg"><title>javascript</title><g fill="#000" fill-rule="evenodd"><path d="M169.744 380.257V124.75c0-21.953 18.946-39.75 42.287-39.75h233.15c8.836 0 16-6.716 16-15 0-8.284-7.164-15-16-15H212.03c-41.027 0-74.286 31.242-74.286 69.75v255.507c0 8.284 7.163 15 16 15 8.836 0 16-6.716 16-15z"/><path d="M221.745 159.41h106.86c8.837 0 16-6.716 16-15 0-8.285-7.163-15-16-15h-106.86c-8.836 0-16 6.715-16 15 0 8.284 7.164 15 16 15zM221.745 221.417h106.86c8.837 0 16-6.715 16-15 0-8.284-7.163-15-16-15h-106.86c-8.836 0-16 6.716-16 15 0 8.285 7.164 15 16 15zM221.745 271.024h106.86c8.837 0 16-6.716 16-15 0-8.285-7.163-15-16-15h-106.86c-8.836 0-16 6.715-16 15 0 8.284 7.164 15 16 15zM221.745 333.03h106.86c8.837 0 16-6.714 16-15 0-8.283-7.163-15-16-15h-106.86c-8.836 0-16 6.717-16 15 0 8.286 7.164 15 16 15z"/><path d="M348.034 474.76H114.886c-23.344 0-42.287-17.792-42.287-39.752 0-21.954 18.945-39.75 42.286-39.75h233.148v-30c-41.028 0-74.287 31.24-74.287 69.75 0 38.516 33.256 69.75 74.287 69.75 41.03 0 74.287-31.234 74.287-69.75V115.626C422.32 98.696 436.9 85 454.895 85c18.807 0 32.572 14.715 32.572 39.75l16-15H406.32c-8.835 0-16 6.717-16 15 0 8.286 7.165 15 16 15h97.146c8.837 0 16-6.714 16-15 0-40.792-27.09-69.75-64.572-69.75-35.682 0-64.573 27.142-64.573 60.626v319.382c0 21.96-18.942 39.75-42.286 39.75s-42.287-17.79-42.287-39.75c0-21.954 18.946-39.75 42.287-39.75 21.333 0 21.333-30 0-30H114.886c-41.028 0-74.287 31.24-74.287 69.75 0 38.516 33.255 69.75 74.286 69.75h233.148c8.837 0 16-6.714 16-15 0-8.283-7.163-15-16-15z"/></g></svg>