<svg width="560" height="560" viewBox="0 0 560 560" xmlns="http://www.w3.org/2000/svg"><title>justifycenter</title><g fill="none" fill-rule="evenodd"><path d="M415 220.032H145c-8.287 0-15 6.714-15 14.995 0 8.29 6.713 15.002 15 15.002h270c8.28 0 15-6.714 15-15.003 0-8.28-6.72-14.995-15-14.995zm0 120.017H145c-8.287 0-15 6.713-15 14.994 0 8.288 6.713 15.002 15 15.002h270c8.28 0 15-6.714 15-15.002 0-8.28-6.72-14.995-15-14.995zM145 130.01h270c8.28 0 15-6.713 15-15.002 0-8.28-6.72-14.994-15-14.994H145c-8.287 0-15 6.72-15 14.994 0 8.29 6.713 15.002 15 15.002zm270 330.054H145c-8.287 0-15 6.713-15 14.994 0 8.29 6.713 15.002 15 15.002h270c8.28 0 15-6.713 15-15.002 0-8.28-6.72-14.994-15-14.994z" fill="#999"/><path d="M505 160.017H55c-8.288 0-15 6.72-15 15.01 0 8.288 6.712 14.994 15 14.994h450c8.28 0 15-6.713 15-14.994 0-8.28-6.72-15.01-15-15.01zM55 70.004h450c8.28 0 15-6.713 15-14.994 0-8.282-6.72-15.01-15-15.01H55c-8.288 0-15 6.72-15 15.01 0 8.288 6.712 14.994 15 14.994zm450 210.03H55c-8.288 0-15 6.72-15 15 0 8.29 6.712 15.01 15 15.01h450c8.28 0 15-6.72 15-15.01 0-8.28-6.72-15-15-15zm0 120.016H55c-8.288 0-15 6.72-15 15.002 0 8.28 6.712 15.002 15 15.002h450c8.28 0 15-6.72 15-15.002 0-8.28-6.72-15.002-15-15.002z" fill="#666"/></g></svg>