<svg width="560" height="560" viewBox="0 0 560 560" xmlns="http://www.w3.org/2000/svg"><title>justifyright</title><g fill="none" fill-rule="evenodd"><path d="M505 220.007H145c-8.287 0-15 6.713-15 14.993 0 8.287 6.713 15 15 15h360c8.28 0 15-6.713 15-15 0-8.28-6.72-14.993-15-14.993zm0 120H145c-8.287 0-15 6.713-15 14.993 0 8.288 6.713 15 15 15h360c8.28 0 15-6.712 15-15 0-8.28-6.72-14.993-15-14.993zM145 130h360c8.28 0 15-6.713 15-15 0-8.28-6.72-14.993-15-14.993H145c-8.287 0-15 6.72-15 14.993 0 8.287 6.713 15 15 15zm360 330.007H145c-8.287 0-15 6.713-15 14.993 0 8.288 6.713 15 15 15h360c8.28 0 15-6.712 15-15 0-8.28-6.72-14.993-15-14.993z" fill="#999"/><path d="M505 160H55c-8.288 0-15 6.72-15 15.007C40 183.296 46.712 190 55 190h450c8.28 0 14.992-6.713 14.992-14.993 0-8.28-6.712-15.007-14.992-15.007zM55 70h450c8.28 0 14.992-6.712 14.992-14.992C519.992 46.727 513.28 40 505 40H55c-8.288 0-15 6.72-15 15.008C40 63.294 46.712 70 55 70zm450 210H55c-8.288 0-15 6.72-15 15 0 8.288 6.712 15.007 15 15.007h450c8.28 0 14.992-6.72 14.992-15.007 0-8.28-6.712-15-14.992-15zm0 120H55c-8.288 0-15 6.72-15 15 0 8.28 6.712 15 15 15h450c8.28 0 14.992-6.72 14.992-15 0-8.28-6.712-15-14.992-15z" fill="#666"/></g></svg>