<svg width="560" height="560" viewBox="0 0 560 560" xmlns="http://www.w3.org/2000/svg"><title>link</title><g fill="none" fill-rule="evenodd"><path d="M485.578 74.487c-36.29-36.29-95.134-36.29-131.433 0l-61.367 61.368c-36.29 36.29-36.29 95.134 0 131.425 36.29 36.298 95.135 36.298 131.433 0l61.368-61.367c36.29-36.298 36.29-95.135 0-131.426zm-42.422 99.266l-51.112 51.105c-15.586 15.586-40.844 15.586-56.422 0-15.586-15.585-15.586-40.836 0-56.422l51.113-51.112c15.578-15.586 40.836-15.586 56.42 0 15.58 15.578 15.58 40.843 0 56.43zm-307.3 119.018l-61.37 61.368c-36.29 36.29-36.29 95.135 0 131.426 36.292 36.29 95.136 36.29 131.434 0l61.367-61.368c36.29-36.29 36.29-95.14 0-131.432-36.29-36.29-95.142-36.284-131.432.007zm89.01 99.26l-51.113 51.112c-15.586 15.585-40.844 15.585-56.422 0-15.585-15.586-15.585-40.844 0-56.422l51.106-51.113c15.586-15.585 40.844-15.585 56.43 0 15.578 15.586 15.578 40.844 0 56.422z" fill="#48A0DC"/><path d="M372.29 187.716c-13.09-13.083-34.305-13.083-47.395 0l-137.17 137.18c-13.092 13.082-13.092 34.304 0 47.395 13.082 13.085 34.304 13.085 47.395 0l137.17-137.185c13.092-13.09 13.092-34.305 0-47.39z" fill="#387BA8"/></g></svg>