<svg width="560" height="560" viewBox="0 0 560 560" xmlns="http://www.w3.org/2000/svg"><title>linkedin</title><path d="M47.496 530.298h95.843V210.845H47.495v319.453zm373.33-330.472c-46.523 0-88.135 16.984-117.642 54.47v-44.442h-96.18v320.444h96.18V357.002c0-36.607 33.553-72.35 75.613-72.35 42.045 0 52.36 35.743 52.36 71.502v174.16H527v-181.34c0-125.958-59.636-149.148-106.174-149.148zm-325.848-20.87c26.5 0 47.977-21.494 47.977-47.978 0-26.5-21.478-47.978-47.977-47.978C68.478 83 47 104.478 47 130.978c0 26.484 21.478 47.978 47.978 47.978z" fill="#3C71A4" fill-rule="evenodd"/></svg>