<svg width="560" height="560" viewBox="0 0 560 560" xmlns="http://www.w3.org/2000/svg"><title>meetups</title><path d="M520 111.99v336.016c0 39.75-32.23 71.99-71.99 71.99H111.99c-39.75 0-71.99-32.23-71.99-71.99V111.99C40 72.24 72.23 40 111.99 40h336.02C487.76 40 520 72.23 520 111.99zM43.692 150.768h472.616V412.92H43.692V150.768zm157.246 219.61c3.586.617 6.372.65 6.463.074.09-.556 1.526-.795 3.193-.53 1.668.263 3.104.025 3.192-.53.088-.557.83-.906 1.648-.776 3.25.515 13.64-3.106 18.086-6.302 3.38-2.43 4.762-4.13 4.903-6.028.11-1.454-.096-2.69-.455-2.747-.36-.058-.608-2.265-.553-4.905.055-2.64-.22-5.364-.613-6.053-.393-.69-.72-3.12-.728-5.4-.032-9.283-.186-10.906-1.047-11.043-.495-.08-.648-1.735-.34-3.68.308-1.946.105-3.61-.45-3.697-.557-.088-.76-1.752-.45-3.697.307-1.946 1.014-3.465 1.57-3.377.556.087.918.74.806 1.452-.113.71.6 2.092 1.586 3.07.984.977 1.715 2.244 1.625 2.817-.09.57 1.34 3.317 3.177 6.102 1.838 2.784 3.286 5.418 3.217 5.852-.07.435 1.587 3.22 3.68 6.19 2.095 2.97 3.757 5.724 3.694 6.12-.063.397 1.584 3.243 3.66 6.325 2.076 3.08 3.71 6.02 3.628 6.528-.08.51.536 1.034 1.37 1.166.833.132 1.44.716 1.348 1.298-.092.582 1.508 3.4 3.556 6.26 3.34 4.665 4.207 5.28 8.384 5.94 2.562.407 4.722.344 4.798-.138.127-.798 1.963-.943 12.328-.975 1.853-.006 3.424-.363 3.493-.793.067-.43 3.208-.627 6.978-.437 7.46.377 10.782-.502 11.17-2.953.137-.867.818-1.99 1.512-2.493 1.442-1.048 7.17-35.816 6.257-37.985-.74-1.757.278-16.33 2.392-34.27.938-7.97 1.294-14.557.79-14.637-.504-.08-.304-4.01.445-8.735.748-4.724 1.62-8.55 1.938-8.498 1.345.213 2.982 3.595 2.676 5.53-.183 1.15.122 2.165.678 2.253.556.088.88.982.72 1.988-.158 1.006.24 2.817.885 4.025.645 1.208 1.06 2.995.925 3.97-.136.976.207 1.846.763 1.934.557.087.795 1.523.53 3.19-.263 1.668-.024 3.105.532 3.193.556.088.794 1.524.53 3.19-.264 1.67-.087 3.095.393 3.17.48.077 1.272 2.883 1.76 6.237.49 3.353 1.145 6.37 1.456 6.705.31.334.882 2.638 1.268 5.12.386 2.484 1.085 4.575 1.552 4.65.466.073.704 1.043.528 2.155-.176 1.11.135 2.093.69 2.18.557.09.91.8.786 1.583-.123.782.634 4.59 1.684 8.464 1.05 3.874 1.6 7.268 1.223 7.542-.376.274-.154.582.494.684.65.103 1 1.324.78 2.714-.22 1.39.054 2.598.61 2.686.556.088.866 1.07.69 2.18-.176 1.113.02 2.078.438 2.146.416.068 1.71 2.837 2.874 6.153 1.164 3.316 2.474 6.085 2.91 6.155.437.07.686.807.554 1.64-.133.835.214 1.59.77 1.677.556.088.87 1.043.7 2.122-.17 1.078.1 2.314.6 2.746.503.43.773 1.667.602 2.746-.17 1.078.144 2.032.7 2.12.556.088.845 1.21.64 2.494-.202 1.283.16 3.32.805 4.53.645 1.208 1.092 2.8.994 3.537-.29 2.183 2.062 4.656 4.85 5.097 1.43.227 2.672-.043 2.76-.598.088-.557 1.956-.727 4.152-.38 2.526.4 4.4.117 5.1-.77.657-.836 3.27-1.32 6.455-1.194 3.516.138 5.426-.262 5.57-1.165.12-.756 1.126-1.23 2.238-1.054 1.81.286 2.66-.655 2.66-2.946.002-1.335 4.872-.075 5.16 1.335.175.868.663.694 1.386-.495.712-1.168.706-2.046-.013-2.42-.622-.322-.992-1.457-.823-2.523.168-1.065-.148-2.008-.704-2.097-.556-.088-.898-.958-.763-1.933.137-.976-.28-2.762-.925-3.97-.645-1.21-1.043-3.02-.884-4.025.16-1.005-.165-1.9-.72-1.988-.557-.088-.872-1.043-.7-2.122.17-1.078-.1-2.314-.602-2.746-.502-.43-.805-1.46-.674-2.283.13-.824-.518-2.62-1.44-3.988-.924-1.37-1.515-3.525-1.314-4.79.2-1.267-.053-3.9-.564-5.852-.51-1.95-.992-4.808-1.068-6.347-.077-1.54-.714-3.588-1.415-4.552-.7-.965-1.162-2.455-1.027-3.312.136-.856-.34-3.18-1.058-5.162-.718-1.983-1.702-6.347-2.186-9.7-.485-3.35-1.254-6.414-1.71-6.805-.454-.392-.62-2.023-.365-3.625.254-1.602.05-3.265-.45-3.697-.502-.43-.7-2.122-.442-3.757.26-1.634.016-3.044-.54-3.132-.556-.088-.834-1.27-.62-2.626.215-1.357-.02-2.82-.52-3.252-.502-.43-.7-2.122-.442-3.757.26-1.635.017-3.045-.54-3.133-.555-.088-.897-.958-.76-1.933.135-.976-.28-2.762-.927-3.97-.645-1.21-.975-3.448-.733-4.976s.03-3.132-.47-3.564c-.503-.43-.74-1.867-.532-3.19.21-1.325-.03-2.762-.53-3.193-.502-.43-.736-1.894-.52-3.25.214-1.357-.065-2.54-.62-2.627-.557-.088-.796-1.525-.532-3.192.264-1.667.026-3.103-.53-3.19-.556-.09-.924-.73-.817-1.425.105-.695-.208-2.493-.697-3.995-.49-1.502-1.21-4.763-1.602-7.246-.39-2.484-1.093-4.576-1.56-4.65-.467-.074-.705-1.044-.53-2.156.177-1.11-.133-2.093-.69-2.18-.555-.09-.794-1.525-.53-3.193.264-1.667.113-3.09-.335-3.16-.45-.072-1.14-3.453-1.533-7.515-.394-4.063-1.074-7.694-1.512-8.07-.437-.377-.62-1.795-.404-3.15.215-1.358-.064-2.54-.62-2.628-.556-.088-.903-.837-.772-1.664.23-1.458-.254-2.457-4.728-9.74-2.046-3.33-2.378-3.473-12.318-5.332-15.405-2.882-30.435-3.216-32.96-.733-.797.785-2.093 3.54-2.88 6.122-.785 2.582-1.79 4.637-2.23 4.567-.93-.147-2.664 4.12-4.552 11.192-.73 2.733-1.808 5.336-2.396 5.784-.59.448-1.307 2.316-1.598 4.15-.29 1.834-.983 3.263-1.54 3.175-.555-.09-1.284 1.572-1.62 3.69-.334 2.116-1.416 4.625-2.403 5.574-.996.957-2.178 3.976-2.65 6.77-.47 2.776-2.568 11.3-4.665 18.945-5.178 18.88-8.964 38.066-7.72 39.135 1.262 1.086.52 5.822-.88 5.6-.588-.092-.716-.58-.285-1.08.432-.502.168-1.01-.586-1.13-.754-.12-2.678-3.22-4.274-6.892-1.597-3.67-3.303-6.738-3.792-6.816-.49-.078-.815-.615-.723-1.194.092-.58-.588-2.173-1.51-3.543-.924-1.37-1.548-3.313-1.39-4.32.16-1.007-.336-1.93-1.102-2.05-.766-.122-1.743-1.676-2.17-3.452-.426-1.776-1.175-3.293-1.663-3.37-.488-.078-.78-.823-.648-1.657.132-.834-.215-1.588-.77-1.676-.557-.088-.903-.842-.77-1.676.13-.833-.216-1.587-.772-1.675-.556-.088-.946-.57-.866-1.07.2-1.257-5.196-12.76-6.265-13.354-.48-.264-.8-.917-.716-1.45.085-.533-.54-2-1.39-3.26-.85-1.26-1.988-3.63-2.532-5.27-.544-1.638-1.86-4.106-2.923-5.484-1.065-1.378-1.854-3.022-1.754-3.653.1-.63-.196-1.207-.658-1.28-.462-.073-1.268-1.366-1.792-2.873-.524-1.508-1.558-2.837-2.297-2.954-.74-.117-1.275-.668-1.187-1.224.095-.594-3.377-1.57-8.43-2.37-5.054-.8-8.657-.945-8.75-.35-.09.555-2.208.685-4.71.29-2.5-.397-4.62-.266-4.707.29-.09.555-1.298.83-2.687.61-1.39-.22-2.59 0-2.67.488-.128.814-1.4 1.183-10.043 2.91-2.567.514-3.028 1.128-3.61 4.812-.37 2.323-.314 4.722.122 5.332.75 1.055.39 5.764-2.57 33.468-.702 6.583-.86 12.036-.352 12.116.51.08.457 3.11-.116 6.73-.573 3.62-.754 7.437-.402 8.482.353 1.045.61 5.39.572 9.66-.038 4.266-.046 10.558-.018 13.98.028 3.423.042 7.974.032 10.112-.01 2.14.35 4.204.797 4.59.45.386.564 2.294.255 4.24-.332 2.1-.11 3.347.55 3.07.666-.278.863 1.094.492 3.437-.34 2.144-.29 4.393.113 4.998.402.605.88 5.084 1.06 9.953.182 4.87.696 9.357 1.143 9.97.446.616.61 2.392.364 3.948-.247 1.557.006 2.902.562 2.99.556.088.94.615.85 1.17-.087.556.498 2.01 1.303 3.228 1.123 1.707 2.91 2.466 7.763 3.302z" fill="#EB2F12" fill-rule="evenodd"/></svg>