<svg width="560" height="560" viewBox="0 0 560 560" xmlns="http://www.w3.org/2000/svg"><title>month</title><g fill="none" fill-rule="evenodd"><path d="M490 190v285c0 8.28-6.72 15-15 15H85c-8.28 0-15-6.72-15-15V190H40v300c0 16.575 13.432 30 30 30h420c16.567 0 30-13.425 30-30V190h-30zM145 370c-8.28 0-15 6.72-15 15 0 8.28 6.72 15 15 15h30v30c0 8.28 6.72 15 15 15 8.28 0 15-6.72 15-15v-30h60v30c0 8.28 6.72 15 15 15 8.28 0 15-6.72 15-15v-30h60v30c0 8.28 6.72 15 15 15 8.28 0 15-6.72 15-15v-30h30c8.28 0 15-6.72 15-15 0-8.28-6.72-15-15-15h-30v-60h30c8.28 0 15-6.72 15-15 0-8.28-6.72-15.007-15-15.007h-30V250c0-8.28-6.72-15-15-15-8.28 0-15 6.72-15 15v29.993h-60V250c0-8.28-6.72-15-15-15-8.28 0-15 6.72-15 15v29.993h-60V250c0-8.28-6.72-15-15-15-8.28 0-15 6.72-15 15v29.993h-30c-8.28 0-15 6.72-15 15.007 0 8.287 6.72 15 15 15h30v60h-30zm150-60h60v60h-60v-60zm-90 0h60v60h-60v-60z" fill="#CCC"/><path d="M490 40H70c-16.568 0-30 13.432-30 30v120h480V70c0-16.568-13.433-30-30-30zm-270 90.007c-8.28 0-15-6.72-15-15.007 0-8.287 6.72-14.992 15-14.992 8.28 0 15 6.712 15 14.992 0 8.28-6.72 15.007-15 15.007zm120 0c-8.28 0-15-6.72-15-15.007 0-8.287 6.72-14.992 15-14.992 8.28 0 15 6.712 15 14.992 0 8.28-6.72 15.007-15 15.007z" fill="#E75F45"/></g></svg>