<svg width="560" height="560" viewBox="0 0 560 560" xmlns="http://www.w3.org/2000/svg"><title>outdent</title><g fill="none" fill-rule="evenodd"><path d="M265 235H145c-8.28 0-15 6.713-15 14.993 0 8.287 6.72 15 15 15h120c8.28 0 15-6.713 15-15 0-8.28-6.72-14.993-15-14.993zm0 120H145c-8.28 0-15 6.712-15 15 0 8.28 6.72 14.993 15 14.993h120c8.28 0 15-6.713 15-14.993 0-8.288-6.72-15-15-15zm0-240H145c-8.28 0-15 6.72-15 14.993 0 8.287 6.72 15 15 15h120c8.28 0 15-6.713 15-15 0-8.273-6.72-14.993-15-14.993zm0 360H145c-8.28 0-15 6.72-15 14.993 0 8.287 6.72 15 15 15h120c8.28 0 15-6.713 15-15 0-8.273-6.72-14.993-15-14.993zm0-300.007H55c-8.28 0-15 6.72-15 15.007 0 8.28 6.72 14.993 15 14.993h210c8.28 0 15-6.72 15-14.993 0-8.28-6.72-15.007-15-15.007zm-210-90h210c8.28 0 15-6.713 15-14.993 0-8.28-6.72-15.008-15-15.008H55c-8.28 0-15 6.728-15 15.008s6.72 14.992 15 14.992zm210 210H55c-8.28 0-15 6.72-15 15C40 318.28 46.72 325 55 325h210c8.28 0 15-6.72 15-15.007 0-8.28-6.72-15-15-15zm0 120H55c-8.28 0-15 6.72-15 15.007 0 8.28 6.72 15 15 15h210c8.28 0 15-6.72 15-15 0-8.288-6.72-15.007-15-15.007z" fill="#CCC"/><path d="M505 265.143h-83.925l34.53-34.53C458.312 227.898 460 224.148 460 220c0-8.28-6.72-15-15-15-4.148 0-7.897 1.68-10.612 4.395l-59.993 60C371.68 272.11 370 275.86 370 280c0 4.148 1.68 7.898 4.395 10.613l59.993 60c2.715 2.707 6.465 4.394 10.612 4.394 8.28 0 15-6.72 15-15.007 0-4.14-1.688-7.89-4.395-10.605l-34.53-34.53H505c8.28 0 15-6.653 15-14.858 0-8.204-6.72-14.864-15-14.864zM325 40c-8.28 0-15 6.72-15 15v450c0 8.28 6.72 15 15 15 8.28 0 15-6.72 15-15V55c0-8.28-6.72-15-15-15z" fill="#48A0DC"/></g></svg>