<svg width="560" height="560" viewBox="0 0 560 560" xmlns="http://www.w3.org/2000/svg"><title>platform</title><defs><radialGradient cx="83.589%" cy="13.734%" fx="83.589%" fy="13.734%" r="148.018%" id="a"><stop stop-color="#049CD6" offset="0%"/><stop stop-color="#4BC2B8" offset="100%"/></radialGradient></defs><path d="M280.1 40c-3.49 0-6.95.07-10.39.2C138.75 45.5 40 146.43 40 274.988c0 135.1 107.37 245.008 239.36 245.008 132.69 0 240.64-108.05 240.64-240.858C520 147.268 412.38 40 280.1 40zM60.48 289.138h110.85c2.06 32.98 9.08 66.46 21.11 100H90.43c-17.1-29.67-27.74-63.67-29.95-100zm110.15-20H60.28c.95-36.56 10.64-70.51 27.27-100h99.31c-10.82 32.32-16.27 65.82-16.23 100zm36.75-100h145.43c11.82 32.27 17.76 65.75 17.71 100H189.66c-.04-34.25 5.9-67.73 17.72-100zm-16.94 120h179.31c-2.24 32.87-9.83 66.34-22.82 100H213.24c-12.98-33.66-20.57-67.13-22.8-100zm198.41 0h110.9c-1.63 36.29-12.07 70.29-29.19 100H367.73c12.04-33.54 19.05-67.02 21.12-100zm.7-20c.04-34.18-5.4-67.68-16.22-100h96.84c17.34 29.65 27.93 63.67 29.58 100h-110.2zm67.44-120h-91.06c-12.41-30.2-29.79-59.178-51.99-86.538 58.44 9.04 109.33 41.09 143.05 86.54zM285.55 60.14c25.39 28.1 45.08 57.91 59.08 89H215.56c14.01-31.1 33.71-60.93 59.11-89.03 1.81-.04 3.61-.11 5.43-.11 1.82 0 3.63.1 5.45.14zm-39.2 2.34c-22.25 27.4-39.66 56.43-52.09 86.66h-93.83c33.33-45.96 84.85-77.94 145.92-86.66zM103.36 409.137h96.83c12.41 29.71 28.76 59.38 49.01 88.68-59.53-8.44-111.5-41.41-145.84-88.68zm171.9 90.75c-22.22-30.14-40.1-60.49-53.66-90.75h116.97c-13.57 30.25-31.44 60.59-53.65 90.72-1.85.04-3.7.14-5.56.14-1.38 0-2.73-.08-4.1-.11zm35.78-2.21c20.21-29.25 36.54-58.87 48.94-88.54h97.59c-34.25 46.93-86.51 79.86-146.53 88.54z" fill="url(#a)" opacity=".96" fill-rule="evenodd"/></svg>