<svg width="560" height="560" viewBox="0 0 560 560" xmlns="http://www.w3.org/2000/svg"><title>platform_facebook_page</title><g fill="none" fill-rule="evenodd"><path d="M491.935 40.015c-.03 0-.053-.015-.083-.015H67.802c-.03 0-.052.015-.082.015C52.402 40.06 40 52.103 40 66.963v425.174c0 15.363 12.447 27.825 27.802 27.825h424.05c15.355 0 27.803-12.462 27.803-27.825V66.962c0-14.86-12.403-26.903-27.72-26.948z" fill="#CCC"/><path d="M474.69 129.972H70.022V475.02c0 8.29 6.715 15.01 14.988 15.01H474.69c8.275 0 14.99-6.713 14.99-15.01V129.973h-14.99zM384.764 69.968c-.524 0-1.02.105-1.52.157H85.007c-8.273 0-14.987 6.715-14.987 14.988 0 8.274 6.715 14.988 14.988 14.988h299.756c8.274 0 14.988-6.713 14.988-14.987 0-.022-.007-.045-.007-.067 0-.023.007-.045.007-.068 0-8.295-6.714-15.01-14.988-15.01zm44.964 0c-8.273 0-14.988 6.715-14.988 15.01 0 8.274 6.715 14.996 14.988 14.996s14.988-6.715 14.988-14.996c0-8.295-6.715-15.01-14.988-15.01zm44.963 0c-8.272 0-14.987 6.715-14.987 15.01 0 8.274 6.715 14.996 14.988 14.996 8.275 0 14.99-6.715 14.99-14.996 0-8.295-6.715-15.01-14.99-15.01z" fill="#FFF"/><path d="M315.43 219.122H354V162h-45.33v.206c-54.907 1.95-66.184 32.907-67.175 65.428h-.103v28.5H204v55.95h37.392V462h56.374V312.084h46.173l8.89-55.95h-55.064v-17.212c0-10.97 7.275-19.8 17.663-19.8z" fill="#2B4E98"/></g></svg>