<svg width="560" height="560" viewBox="0 0 560 560" xmlns="http://www.w3.org/2000/svg"><title>platform_website</title><defs><radialGradient cx="83.589%" cy="13.734%" fx="83.589%" fy="13.734%" r="148.018%" id="a"><stop stop-color="#049CD6" offset="0%"/><stop stop-color="#4BC2B8" offset="100%"/></radialGradient></defs><g transform="translate(40 40)" fill="none" fill-rule="evenodd"><path d="M451.935.015c-.03 0-.053-.015-.083-.015H27.802c-.03 0-.052.015-.082.015C12.402.06 0 12.103 0 26.963v425.174c0 15.363 12.447 27.825 27.802 27.825h424.05c15.355 0 27.803-12.462 27.803-27.825V26.962c0-14.86-12.403-26.903-27.72-26.948z" fill="#CCC"/><path d="M434.69 89.972H30.022V435.02c0 8.29 6.715 15.01 14.988 15.01H434.69c8.275 0 14.99-6.713 14.99-15.01V89.973h-14.99z" fill="#FFF"/><circle opacity=".96" fill="url(#a)" cx="239.85" cy="269.93" r="149.878"/><path d="M285.533 140.39c4.27-1.618 8.588-3.14 12.837-4.818 1.416-.562 2.96-1.05 4.376-1.67-18.622-8.59-38.878-13.34-59.434-13.842 1.664.404 3.395.517 5.216.517 8.198-.008 10.7 3.574 9.315 11.645-.87 5.126-.952 10.424-.96 15.64-.007 3.11 1.92 5.366 5.006 6.303 2.847.86 4.27-1.095 5.845-2.968 3.74-4.45 7.823-8.416 14.028-9.218 1.297-.158 2.496-1.102 3.77-1.59zm8.37 33.386c2.323.585 5.456-1.13 6.078 2.765.698 4.393 2.84 8.02 5.584 11.594 3.83 5.006 1.394 10.057-4.834 11.19-.98.17-1.97.344-2.967.418-5.194.383-5.41.69-6.078 5.906-.457 3.574 1.53 5.463 4.054 7.374 2.322 1.76 4.196.39 5.77-.742 1.626-1.17 2.967-2.938 3.986-4.7 2.878-4.96 6.183-9.778 11.75-11.48 4.812-1.46 10.163-3.47 14.81.225 2.045-1.154 4.518-2.645 6.256-2.03 3.852 1.34 7.052 3.806 9.098 7.838 1.29 2.54 3.98 4.36 5.65 6.093 2.368-2.196 3.807-4.587 5.71-5.06 3.403-.838 7.112-.786 10.657-.538 1.266.097 3.027 1.626 3.44 2.877.39 1.192-.585 2.915-1.162 4.31-.247.606-1.027.996-2.098 1.97 3.095.472 5.41.884 7.733 1.147.428.052.787.12 1.17.172-2.526-6.145-5.45-12.207-8.866-18.12-5.942-10.29-12.942-19.567-20.75-27.863-1.664 2.197-4.152 3.898-7.225 4.535-3.755.78-6.857.015-10.117-1.22-2.338-.893-3.897-.27-5.988 1.318-3.387 2.57-7.464 4.27-11.39 6.047-.892.412-2.69-.03-3.485-.742-2.638-2.368-5.06-4.99-7.442-7.628-.854-.945-1.386-2.196-2.195-3.538-2.548 2.84-4.767 5.27-7.15 7.884zm30.868-13.45c2.758.41 4.73 1.093 5.786 3.798 1.094 2.765 2.788 2.098 4.242.42 2.038-2.36 3.057-5.12 2.84-8.19-3.373-2.91-6.872-5.652-10.462-8.222-1.596 1.454-3.282 2.81-4.953 4.234-1.222 1.057-2.795 3.597-2.353 4.302 1.026 1.648 3.057 3.372 4.9 3.657zm64.59 98.813c-.127-.203-.247-.413-.367-.615-2.315-3.935-3.91-8.296-5.77-12.5-.547-1.244-1.22-2.57-1.25-3.867-.03-1.364.463-3.777 1.055-3.882 1.057-.195 2.3-.022 3.403.375-.84-3.934-1.858-7.86-3.027-11.757-1.11 1.536-2.78 2.608-5.02 3.102-6.363 1.41-12.65.967-18.743-1.41-2.855-1.115-5.448-1.415-8.056.668-2.855 2.286-6.033 2.04-9.165.547-1.462-.696-2.766-1.903-4.288-2.27-5.133-1.222-8.37-3.972-9.315-9.427-.164-.945-2.3-2.34-3.394-2.226-7.532.742-15.026 2.495-22.55 2.63-7.8.128-10.956 5.433-13.556 10.85-1.813 3.778-4.032 6.67-7.067 9.34-5.74 5.027-8.745 11.262-8.093 19.146.232 2.915-.517 5.897-.607 8.865-.083 2.563-.794 5.755.405 7.59 3.904 5.996 8.52 11.55 13 17.155.706.87 2.182 1.7 3.224 1.61 5.53-.456 11.202-.6 16.515-2.015 5.463-1.446 10.387-2.765 14.906 1.89.645.673 1.717.995 2.646 1.318 6.835 2.413 7.427 3.027 7.187 10.2-.158 4.495.824 8.227 3.162 12.296 4.99 8.64 8.16 17.82 3.387 28.072-1.236 2.653-1.28 6.887-.022 9.495 3.117 6.43 4.144 13.21 5.568 20.038.21 1.034.51 2.038.802 3.057 32.014-31.077 48.14-74.69 45.03-118.276zm-137.745 58.354c-5.793-1.11-10.67-3.98-15.992-5.965-4.758-1.77-8.19-4.572-9.39-9.773-.93-4.04-3.792-6.01-7.643-7.39-3.657-1.31-7.247-3.214-10.372-5.53-4.234-3.132-7.966-6.752-13.954-5.665-1.506.27-3.687-.405-4.84-1.44-3.8-3.41-7.96-3.73-11.474-.62-3.312 2.93-9.982 4.33-6.797 11.577.69 1.573-.292 4.158-1.08 6.032-.943 2.286-2.412 4.37-3.79 6.445-4.34 6.52-3.568 13.324-.593 19.888 2.458 5.44 5.553 10.612 8.686 15.7 1.31 2.12 3.17 4.242 5.298 5.448 7.456 4.242 11.458 10.14 10.62 18.96-.234 2.48-.21 5.013 0 7.5.508 6.056 1.363 12.08 1.767 18.144.196 2.945-.27 5.935-.486 8.903-.075.974-.57 1.978-.442 2.907.45 3.193.922 6.378 1.506 9.533 5.366 1.783 10.82 3.274 16.367 4.436 1.41-5.208 4.37-10.192 8.28-13.197 1.147-.878 2.114-2.496 2.39-3.92.63-3.237 2.257-5.373 5.172-6.835 1.28-.637 2.698-1.67 3.29-2.885 2.24-4.66 5.058-9.307 5.987-14.268 1.162-6.28 4.886-9.33 10.117-11.3 6.2-2.346 8.62-4.797 8.275-11.212-.45-8.1 1.91-14.89 7.044-21.05 1.85-2.218 3.23-5.403.898-7.876-2.495-2.683-5.56-5.928-8.843-6.55zm-75.09-98.934c2.265-1.552 4.423-3.875 5.547-6.348 4.032-8.813 12.814-12.23 19.52-17.978.773-.66 2.092-.734 3.186-.936 2.353-.45 5.65-.023 6.85-1.417 1.22-1.422.374-4.615.442-7.028.15-5.036 2.166-7.104 7.052-7.187 2.12-.045 4.25-.037 6.377.038 4.57.157 5.514 1.46 4.765 5.958-.142.862.375 2.234 1.057 2.72.57.42 1.813-.09 2.765-.187-.18-1.01-.367-2.03-.547-3.035-.405-2.218-1.184-4.45-1.11-6.647.09-2.554-.314-4.473-2.24-6.36-1.61-1.59-2.93-3.71-3.694-5.846-.757-2.06-1.814-2.9-3.822-2.608-3.515.502-5.778-.997-6.992-4.22-.937-2.495-2.818-3.14-5.298-3.28-4.294-.264-6.093 3.08-6.692 5.896-1.507 7.09-7.322 10.844-11.144 16.082-2.42 3.305-7.02 2.33-7.71-1.656-.593-3.41-2.324-4.93-5.232-5.995-1.866-.682-3.612-1.7-5.35-2.675-4.766-2.668-5.726-7.96-1.656-11.48 5.987-5.18 12.62-8.83 21.147-7.158 1.627.315 4.744-.854 5.276-2.128 2.106-5.08 6.887-7.134 10.566-10.357 2.742-2.39 7.478-1.76 10.04.547 3.12 2.803 2.422 5.523.28 8.573-.698.997-1.058 3.38-.496 3.867 1.296 1.094 3.882 2.428 4.82 1.844 3.303-2.04 6.173-4.82 9.08-7.45.263-.24-.284-1.535-.606-2.277-2.09-4.767-6.077-6.888-10.89-8.237-5.38-1.49-6.45-5.823-1.85-8.918.915-.614 1.89-1.146 2.878-1.656-5.163.584-10.326 1.423-15.46 2.57-4.54.98-6.01 4.308-4.106 8.445 1.11 2.428 1.506 4.99-.952 6.767-2.48 1.8-4.96.592-6.685-1.304-1.13-1.26-1.424-3.275-2.143-4.93-.517-1.2-1.117-2.37-1.686-3.553-1.446.78-3.957 1.326-4.182 2.36-1.16 5.47-5.912 6.34-9.787 8.334-.66.336-2.076.388-2.345 0-.472-.668-.592-1.845-.383-2.684.21-.84.443-1.694.682-2.555-3.673 1.732-7.315 3.598-10.89 5.666-34.95 20.174-58.654 52.307-69.026 88.248 3.702 5.98 8.746 11.114 12.83 16.89 1.716 2.422 2.413 5.554 3.605 8.357.658 1.552.995 3.508 2.142 4.542 4.15 3.77 9.082 5.988 14.755 6.618 2.144.232 4.422.876 6.265 1.97 5.838 3.463 11.503 7.225 17.176 10.822 2.16-4.714 1.716-5.883-3.23-8.14-3.282-1.498-4.48-4.165-3.82-7.695.238-1.28.486-2.563.935-4.93-1.88 1.558-2.885 2.412-3.912 3.23-6.42 5.087-13.27 2.974-15.976-4.715-2.577-7.336.143-13.586 4.22-19.177 6.4-8.775 16.71-6.01 25.47-7.703 1.178-.233 2.654.6 3.876 1.176 1.416.675 2.705 1.62 4.54 2.75.705-7.726 6.648-10.296 11.766-13.818zm-14.207-31.227c.105-1.042 2.413-2.608 3.702-2.608 2.368.015 5.358.644 5.306 3.814-.015 1.078-2.316 2.112-3.568 3.16-2.907-1.055-5.762-1.145-5.44-4.367zM344.764 29.968c-.524 0-1.02.105-1.52.157H45.007c-8.273 0-14.987 6.715-14.987 14.988 0 8.274 6.715 14.988 14.988 14.988h299.756c8.274 0 14.988-6.713 14.988-14.987 0-.022-.007-.045-.007-.067 0-.023.007-.045.007-.068 0-8.295-6.714-15.01-14.988-15.01zm44.964 0c-8.273 0-14.988 6.715-14.988 15.01 0 8.274 6.715 14.996 14.988 14.996s14.988-6.715 14.988-14.996c0-8.295-6.715-15.01-14.988-15.01zm44.963 0c-8.272 0-14.987 6.715-14.987 15.01 0 8.274 6.715 14.996 14.988 14.996 8.275 0 14.99-6.715 14.99-14.996 0-8.295-6.715-15.01-14.99-15.01z" fill="#FFF"/></g></svg>