<svg width="560" height="560" viewBox="0 0 560 560" xmlns="http://www.w3.org/2000/svg"><title>plug_in</title><g fill="none" fill-rule="evenodd"><path d="M301.1 258.826c-11.882-11.896-31.15-11.896-43.046 0L48.93 467.95c-11.897 11.882-11.897 31.164 0 43.046 11.88 11.896 31.163 11.896 43.044 0L301.1 301.87c11.895-11.88 11.895-31.163 0-43.044z" fill="#CCC"/><path d="M425.678 44.832c-5.723-5.708-14.982-5.708-20.706 0l-165.51 165.526c-5.71 5.723-5.71 14.982 0 20.69 5.723 5.724 14.982 5.724 20.69 0L425.678 65.524c5.708-5.71 5.708-14.983 0-20.69zm89.895 74.912c-5.724-5.723-14.983-5.723-20.706 0L329.357 285.27c-5.71 5.723-5.71 14.983 0 20.69 5.722 5.724 14.98 5.724 20.69 0l165.526-165.525c5.708-5.71 5.708-14.983 0-20.69z" fill="#FC6"/><path d="M284.38 100.507l-87.77 87.632c-48.467 48.377-48.467 126.84 0 175.22 48.455 48.392 127.038 48.392 175.52 0l87.753-87.62L284.38 100.508z" fill="gray"/><path d="M294.657 160.436l-52.664 52.65c-29.066 29.08-29.066 76.23 0 105.31 29.08 29.066 76.23 29.066 105.312 0l52.663-52.663-105.31-105.297z" fill="#999"/><path d="M465.77 258.452L301.475 94.154c-11.777-11.776-30.894-11.776-42.67 0-11.777 11.776-11.777 30.894 0 42.67L423.116 301.12c11.776 11.778 30.88 11.778 42.655 0 11.792-11.79 11.792-30.877 0-42.668z" fill="#4D4D4D"/></g></svg>