<svg width="560" height="560" viewBox="0 0 560 560" xmlns="http://www.w3.org/2000/svg"><title>question_bubble</title><g fill="#000" fill-rule="evenodd"><path d="M539.335 247.085c0 124.488-115.734 226.5-259.667 226.5-31.76 0-62.688-4.968-91.714-14.545-5.032-1.66-10.517-1.256-15.25 1.124l-160.713 80.8 27.13 26.282 62.925-135.724c3.755-8.1 1.687-17.707-5.068-23.545C47.934 365.597 20 308.21 20 247.085 20 122.585 135.732 20.57 279.668 20.57c143.935 0 259.667 102.015 259.667 226.515zm40 0c0-147.793-134.685-266.515-299.667-266.515C114.685-19.43-20 99.292-20 247.085c0 73.113 33.237 141.394 90.823 191.158l-5.067-23.545L2.83 550.42c-7.968 17.19 10.203 34.792 27.13 26.282l160.71-80.8-15.25 1.123c33.072 10.913 68.23 16.56 104.248 16.56 164.98 0 299.667-118.718 299.667-266.5z"/><path d="M238.87 200.89c0-33.237 24.49-60.46 52.957-60.46 29.09 0 52.957 25.42 52.957 58.003 0 32.607-23.854 58.003-52.957 58.003-11.046 0-20 8.954-20 20v32.814c0 11.046 8.954 20 20 20s20-8.954 20-20v-32.814l-20 20c51.774 0 92.957-43.845 92.957-98.003 0-54.13-41.194-98.003-92.957-98.003-51.555 0-92.957 46.02-92.957 100.46 0 11.045 8.955 20 20 20 11.046 0 20-8.955 20-20z"/></g></svg>