<svg width="560" height="560" viewBox="0 0 560 560" xmlns="http://www.w3.org/2000/svg"><title>quiz</title><path d="M280 40C147.452 40 40 127.293 40 234.97c0 76.095 53.707 141.968 131.985 174.083L145 489.993l135-60-.248-.075c.083 0 .166.007.248.007 132.548 0 240-87.285 240-194.955C520 127.293 412.548 40 280 40zm-22.86 240.18c-.827-3.927-1.24-8.473-1.24-13.64 0-7.233 1.705-14.673 5.115-22.32s9.558-14.777 18.445-21.39l15.81-11.78c4.133-3.1 7.027-6.458 8.68-10.075 1.653-3.617 2.48-7.492 2.48-11.625 0-5.993-2.273-11.47-6.82-16.43-4.547-4.96-11.47-7.44-20.77-7.44-4.547 0-8.577.827-12.09 2.48s-6.51 3.875-8.99 6.665c-2.48 2.79-4.34 5.89-5.58 9.3-1.24 3.41-1.86 6.975-1.86 10.695 0 3.513.103 6.148.31 7.905.207 1.757.413 2.945.62 3.565l-43.4-1.55c-.413-2.273-.723-4.495-.93-6.665-.207-2.17-.31-4.288-.31-6.355 0-9.093 1.653-17.67 4.96-25.73 3.307-8.06 8.06-15.138 14.26-21.235 6.2-6.097 13.743-10.953 22.63-14.57 8.887-3.617 19.013-5.425 30.38-5.425 12.607 0 23.612 1.705 33.015 5.115 9.403 3.41 17.257 8.008 23.56 13.795 6.303 5.787 11.005 12.348 14.105 19.685 3.1 7.337 4.65 14.828 4.65 22.475 0 12.4-2.687 23.043-8.06 31.93-5.373 8.887-12.71 16.843-22.01 23.87l-11.78 8.68c-5.373 4.133-9.765 8.422-13.175 12.865s-5.115 10.178-5.115 17.205h-36.89zm-7.13 45.26c0-7.44 2.583-13.795 7.75-19.065 5.167-5.27 11.47-7.905 18.91-7.905 7.44 0 13.795 2.635 19.065 7.905 5.27 5.27 7.905 11.625 7.905 19.065 0 3.72-.723 7.182-2.17 10.385-1.447 3.203-3.358 5.993-5.735 8.37-2.377 2.377-5.218 4.288-8.525 5.735-3.307 1.447-6.82 2.17-10.54 2.17-3.72 0-7.182-.723-10.385-2.17-3.203-1.447-6.045-3.358-8.525-5.735-2.48-2.377-4.392-5.167-5.735-8.37-1.343-3.203-2.015-6.665-2.015-10.385z" fill="#0093E6" fill-rule="evenodd"/></svg>