<svg width="560" height="560" viewBox="0 0 560 560" xmlns="http://www.w3.org/2000/svg"><title>quote</title><path d="M167.31 450.704c-36.63 0-67.005-11.732-91.127-35.197C52.06 392.043 40 363.495 40 329.862c0-78.215 62.54-151.737 187.616-220.566l37.524 32.85c-39.31 21.118-67.9 41.454-85.768 61.008-17.868 19.554-26.802 41.845-26.802 66.874 0 21.118 9.38 39.107 28.142 53.968 18.762 14.86 37.524 25.81 56.285 32.85 18.762 7.04 28.143 10.95 28.143 11.732 0 20.336-9.38 39.108-28.143 56.315-18.76 17.208-41.99 25.81-69.686 25.81zm255.963 0c-36.63 0-67.005-11.732-91.128-35.197-24.122-23.464-36.183-52.012-36.183-85.645 0-78.997 62.092-152.52 186.276-220.566l37.524 32.85c-39.31 21.9-67.676 42.627-85.098 62.18-17.42 19.555-26.132 42.237-26.132 68.048 0 21.118 9.158 39.108 27.472 53.968 18.315 14.86 36.854 25.81 55.615 32.85 18.76 7.04 28.142 10.95 28.142 11.733 1.787 19.554-6.477 37.74-24.792 54.555-18.315 16.816-42.214 25.224-71.697 25.224z" fill="#CCC" fill-rule="evenodd"/></svg>