<svg width="560" height="560" viewBox="0 0 560 560" xmlns="http://www.w3.org/2000/svg"><title>repeat</title><g fill="#48A0DC" fill-rule="evenodd"><path d="M108.264 246.03c0-37.53 30.557-67.927 68.246-67.927h189.008l-8.36 8.32c-13.75 13.722-13.75 35.9 0 49.62 13.77 13.688 36.07 13.688 49.837 0l65.534-65.242c10.492-10.442 12.932-25.828 7.404-38.632l1.365-1.358c-1.708-4.602-4.062-8.983-7.764-12.685L407.37 52.288c-13.853-13.79-36.29-13.79-50.126 0-13.837 13.79-13.854 36.12 0 49.908l8 7.965H176.51c-75.395 0-136.493 60.828-136.493 135.852v67.925c0 15.657 2.815 30.618 7.73 44.576l60.517-60.216V246.03z"/><path d="M509.996 201.436l-60.5 60.216v52.302c0 37.512-30.558 67.926-68.247 67.926H192.223l7.32-7.285c13.75-13.72 13.75-35.9 0-49.603-13.77-13.704-36.07-13.704-49.838 0l-65.533 65.226c-10.493 10.46-12.933 25.828-7.405 38.632l-.324.306c1.706 4.585 4.06 8.983 7.78 12.668l66.148 65.854c13.854 13.772 36.307 13.772 50.144 0 13.837-13.79 13.837-36.136 0-49.89l-8.036-8h188.752c75.378 0 136.493-60.793 136.493-135.834V246.03c.017-15.658-2.798-30.62-7.73-44.594z"/></g></svg>