<svg width="560" height="560" viewBox="0 0 560 560" xmlns="http://www.w3.org/2000/svg"><title>reset</title><path d="M475.932 324.898h-130.62c-18.035 0-32.657 14.62-32.657 32.655 0 18.042 14.622 32.67 32.656 32.67h73.09c-32.932 39.85-82.657 65.296-138.4 65.296-82.21 0-151.472-55.254-172.795-130.63H40c22.68 111.787 121.51 195.947 240 195.947 62.78 0 119.943-23.724 163.276-62.583v29.92c0 18.042 14.622 32.663 32.656 32.663s32.655-14.62 32.655-32.663v-130.62c0-18.035-14.62-32.656-32.655-32.656zM84.068 235.94h130.62c18.035 0 32.657-14.622 32.657-32.672 0-18.025-14.622-32.655-32.656-32.655H141.6c32.932-39.856 82.666-65.302 138.4-65.302 82.202 0 151.455 55.245 172.787 130.63H520C497.305 124.153 398.482 40.008 280 40.008c-62.78 0-119.95 23.724-163.276 62.584v-29.93c0-18.04-14.622-32.662-32.656-32.662S51.413 54.62 51.413 72.663v130.605c0 18.05 14.62 32.672 32.655 32.672z" fill="#4BC2B8" fill-rule="evenodd"/></svg>