<svg width="560" height="560" viewBox="0 0 560 560" xmlns="http://www.w3.org/2000/svg"><title>send</title><g fill="none" fill-rule="evenodd"><path d="M466.757 80.793c-18.66 7.95-230.97 94.702-404.408 165.18-14.078 5.73-22.463 17.602-22.463 30.045 0 12.435 10.635 20.76 22.462 22.515 9.442 1.41 113.107 15.015 113.107 15.015l29.43 150.21 89.55-75.106s77.715 77.948 82.447 82.568c8.25 8.063 21.525 22.53 29.955 22.53 12.404 0 23.91-14.865 29.954-37.538 5.423-20.332 38.835-166.83 82.38-360.404 4.545-20.138-18.24-29.558-52.417-15.016zm-231.87 247.964l-7.5 104.993-30-135 210-135-172.5 165.007z" fill="#CCC"/><path d="M234.887 328.757l-30 135.008 90-75.007-60-60z" fill="#999"/></g></svg>