<svg width="560" height="560" viewBox="0 0 560 560" xmlns="http://www.w3.org/2000/svg"><title>source</title><path d="M511.18 255.084l-90.278-90.294c-11.737-11.752-30.794-11.752-42.554 0-11.753 11.745-11.753 30.81 0 42.556l68.992 69.012-68.992 68.997c-11.753 11.752-11.753 30.803 0 42.563 5.872 5.872 13.582 8.816 21.277 8.816s15.405-2.944 21.277-8.816l90.278-90.27c11.752-11.76 11.752-30.82 0-42.564zM181.652 164.79c-11.752-11.752-30.81-11.752-42.554 0L48.82 255.084c-11.753 11.744-11.753 30.81 0 42.563l90.278 90.28c5.864 5.87 13.582 8.815 21.277 8.815s15.405-2.944 21.278-8.816c11.752-11.76 11.752-30.812 0-42.564l-69-68.997 69-69.01c11.752-11.754 11.752-30.812 0-42.565zm153.12-81.95c-15.75-5.737-33.164 2.395-38.894 18.15l-88.785 330.423c-5.738 15.762 2.385 33.184 18.135 38.93 15.75 5.736 33.157-2.39 38.894-18.152l88.786-330.414c5.73-15.77-2.393-33.19-18.136-38.936z" fill="#4BC2B8" fill-rule="evenodd"/></svg>