<svg width="560" height="560" viewBox="0 0 560 560" xmlns="http://www.w3.org/2000/svg"><title>stop</title><g fill="none" fill-rule="evenodd"><path d="M512.305 178.04L373.68 40l-195.64.406L40 179.03l.414 195.633L179.03 512.72l195.64-.415L512.72 373.68l-.415-195.64z" fill="#E75F45"/><path d="M261.538 202.498h-59.076c-8.153 0-14.77 6.617-14.77 14.77 0 8.152 6.617 14.762 14.77 14.762h14.77V335.4c0 8.152 6.608 14.76 14.768 14.76 8.153 0 14.77-6.615 14.77-14.76V232.03h14.768c8.153 0 14.77-6.61 14.77-14.762 0-8.153-6.617-14.77-14.77-14.77zM113.846 232.03c16.313 0 29.54 6.616 29.54 14.77 0 8.15 6.608 14.768 14.768 14.768 8.152 0 14.77-6.617 14.77-14.77 0-24.464-26.453-44.3-59.078-44.3-32.632 0-59.077 19.836-59.077 44.3 0 24.466 26.444 44.3 59.076 44.3v-.006c16.305 0 29.54 6.616 29.54 14.77 0 8.152-13.235 14.768-29.54 14.768-16.32 0-29.538-6.616-29.538-14.77 0-8.152-6.617-14.76-14.777-14.76s-14.768 6.616-14.768 14.76c0 24.466 26.452 44.3 59.084 44.3 32.625 0 59.077-19.834 59.077-44.3 0-24.464-26.452-44.292-59.077-44.292-16.312 0-29.538-6.617-29.538-14.77 0-8.152 13.226-14.768 29.538-14.768zm339.692-29.568c-.34 0-.664.044-1.004.05H424c-8.16 0-14.77 6.618-14.77 14.77v118.132c0 8.153 6.61 14.762 14.77 14.762 8.153 0 14.77-6.617 14.77-14.762v-44.3h14.768c.244 0 .473-.06.717-.074 24.133-.39 43.59-20.05 43.59-44.27 0-24.473-19.84-44.308-44.307-44.308zm0 59.076h-14.77V232h14.77c8.153 0 14.77 6.61 14.77 14.77 0 8.152-6.617 14.768-14.77 14.768zm-110.77-59.025c-28.548 0-51.69 23.144-51.69 51.685v44.3c0 28.542 23.142 51.678 51.69 51.678 28.543 0 51.694-23.136 51.694-51.678v-44.3c0-28.54-23.15-51.685-51.693-51.685zm22.155 95.985c0 12.23-9.925 22.147-22.154 22.147-12.237 0-22.155-9.918-22.155-22.147v-44.3c0-12.23 9.918-22.154 22.154-22.154 12.228 0 22.153 9.925 22.153 22.154v44.3z" fill="#FFF"/></g></svg>