<svg width="560" height="560" viewBox="0 0 560 560" xmlns="http://www.w3.org/2000/svg"><title>templates</title><g fill="none" fill-rule="evenodd"><path d="M483.077 40H69.537C53.228 40 40 53.226 40 69.538v413.546c0 16.306 13.226 29.54 29.538 29.54h413.54c16.312 0 29.537-13.234 29.537-29.54V69.538C512.615 53.226 499.39 40 483.077 40z" fill="#E75F45"/><path d="M172.923 217.23H84.308c-8.153 0-14.77 6.617-14.77 14.77v236.315c0 8.153 6.617 14.77 14.77 14.77h88.615c8.153 0 14.77-6.617 14.77-14.77V232c0-8.153-6.617-14.77-14.77-14.77zm295.385 0H232c-8.153 0-14.77 6.617-14.77 14.77v88.615c0 8.153 6.617 14.777 14.77 14.777h236.308c8.152 0 14.77-6.617 14.77-14.777V232c0-8.153-6.618-14.77-14.77-14.77zm0-88.615h-384c-8.153 0-14.77 6.617-14.77 14.77v29.538c0 8.153 6.617 14.77 14.77 14.77h384c8.152 0 14.77-6.617 14.77-14.77v-29.538c0-8.153-6.618-14.77-14.77-14.77zm0 236.308H232c-8.153 0-14.77 6.617-14.77 14.77v88.622c0 8.153 6.617 14.77 14.77 14.77h236.308c8.152 0 14.77-6.617 14.77-14.77v-88.623c0-8.152-6.618-14.77-14.77-14.77zM84.308 69.538c-8.153 0-14.77 6.617-14.77 14.777s6.617 14.77 14.77 14.77c8.152 0 14.77-6.617 14.77-14.77 0-8.153-6.618-14.777-14.77-14.777zm44.307 0c-8.152 0-14.77 6.617-14.77 14.777s6.618 14.77 14.77 14.77c8.153 0 14.77-6.617 14.77-14.77 0-8.153-6.617-14.777-14.77-14.777zm44.308 0c-8.153 0-14.77 6.617-14.77 14.777s6.617 14.77 14.77 14.77c8.153 0 14.77-6.617 14.77-14.77 0-8.153-6.617-14.777-14.77-14.777z" fill="#FFF"/></g></svg>