<svg width="560" height="560" viewBox="0 0 560 560" xmlns="http://www.w3.org/2000/svg"><title>trash</title><g fill="none" fill-rule="evenodd"><path d="M100 160v330.007c0 16.56 13.432 29.993 30 29.993h300c16.567 0 30-13.433 30-29.993V160H100z" fill="#CCC"/><path d="M190 220c-8.28 0-15 6.72-15 14.992V445c0 8.28 6.72 15 15 15 8.28 0 15-6.72 15-15V234.993c0-8.273-6.72-14.993-15-14.993zm90 0c-8.28 0-15 6.72-15 14.992V445c0 8.28 6.72 15 15 15 8.28 0 15-6.72 15-15V234.993c0-8.273-6.72-14.993-15-14.993zm90 0c-8.287 0-15 6.72-15 14.992V445c0 8.28 6.713 15 15 15 8.28 0 15-6.72 15-15V234.993c0-8.273-6.72-14.993-15-14.993zM100 175.007h360V205H100z" fill="#999"/><path d="M460 100H100c-16.575 0-30 13.432-30 30.008v45h420v-45C490 113.43 476.567 100 460 100zM340 40H220c-16.568 0-30 13.432-30 30v30h30V85c0-8.28 6.712-15 15-15h90c8.28 0 15 6.72 15 15v15h30V70c0-16.568-13.433-30-30-30z" fill="#CCC"/></g></svg>