<svg width="560" height="560" viewBox="0 0 560 560" xmlns="http://www.w3.org/2000/svg"><title>twitter</title><path d="M520 176.574c-17.65 7.592-36.64 12.7-56.57 14.978 20.342-11.756 35.954-30.367 43.29-52.61-19.024 10.915-40.086 18.833-62.518 23.1-17.96-18.49-43.546-30.042-71.875-30.042-54.376 0-98.454 42.586-98.454 95.112 0 7.472.857 14.72 2.537 21.68-81.83-3.943-154.408-41.816-202.975-99.38-8.483 14.052-13.333 30.384-13.333 47.813 0 33.006 17.395 62.123 43.82 79.19-16.126-.496-31.327-4.78-44.608-11.91-.017.395-.017.806-.017 1.2 0 46.083 33.932 84.522 78.986 93.262-8.243 2.176-16.95 3.342-25.946 3.342-6.358 0-12.51-.6-18.526-1.715 12.53 37.77 48.91 65.276 91.977 66.03-33.71 25.518-76.158 40.736-122.292 40.736-7.95 0-15.8-.462-23.495-1.336 43.58 27.01 95.335 42.758 150.963 42.758 181.125 0 280.178-144.965 280.178-270.633 0-4.114-.084-8.244-.29-12.323 19.245-13.4 35.937-30.162 49.15-49.253z" fill="#10A2E6" fill-rule="evenodd"/></svg>