<svg width="560" height="560" viewBox="0 0 560 560" xmlns="http://www.w3.org/2000/svg"><title>ul</title><g fill="none" fill-rule="evenodd"><path d="M202.47 379.59h206.768c8.153 0 14.77-6.602 14.77-14.746 0-8.152-6.617-14.754-14.77-14.754h-206.77c-8.16 0-14.768 6.602-14.768 14.754 0 8.144 6.61 14.747 14.77 14.747zm0-236.066h206.768c8.153 0 14.77-6.602 14.77-14.754 0-8.144-6.617-14.747-14.77-14.747h-206.77c-8.16 0-14.768 6.61-14.768 14.747 0 8.152 6.61 14.754 14.77 14.754zm295.384 29.508H202.47c-8.16 0-14.77 6.61-14.77 14.762 0 8.144 6.61 14.747 14.77 14.747h295.384c8.152 0 14.77-6.61 14.77-14.746 0-8.152-6.618-14.762-14.77-14.762zM202.47 84.508h295.384c8.152 0 14.77-6.603 14.77-14.747S506.005 55 497.853 55H202.47c-8.16 0-14.77 6.61-14.77 14.76 0 8.152 6.61 14.748 14.77 14.748zm295.384 206.558H202.47c-8.16 0-14.77 6.61-14.77 14.754 0 8.15 6.61 14.76 14.77 14.76h295.384c8.152 0 14.77-6.61 14.77-14.76 0-8.145-6.618-14.754-14.77-14.754zm0 118.033H202.47c-8.16 0-14.77 6.61-14.77 14.76 0 8.145 6.61 14.754 14.77 14.754h295.384c8.152 0 14.77-6.61 14.77-14.754 0-8.15-6.618-14.76-14.77-14.76zM202.47 261.556h206.768c8.153 0 14.77-6.602 14.77-14.754 0-8.144-6.617-14.747-14.77-14.747h-206.77c-8.16 0-14.768 6.603-14.768 14.747 0 8.152 6.61 14.754 14.77 14.754zm206.768 206.566h-206.77c-8.16 0-14.768 6.61-14.768 14.747 0 8.15 6.61 14.754 14.77 14.754h206.768c8.153 0 14.77-6.603 14.77-14.754 0-8.145-6.617-14.747-14.77-14.747z" fill="#CCC"/><path d="M84.315 173.04C59.842 173.04 40 192.855 40 217.302c0 24.44 19.842 44.255 44.315 44.255 24.465 0 44.308-19.815 44.308-44.255 0-24.447-19.85-44.262-44.308-44.262zm0-29.51c24.465 0 44.308-19.82 44.308-44.268 0-24.44-19.85-44.255-44.308-44.255C59.842 55.007 40 74.82 40 99.262c0 24.447 19.842 44.27 44.315 44.27zm0 147.543C59.842 291.073 40 310.888 40 335.335c0 24.44 19.842 44.263 44.315 44.263 24.465 0 44.308-19.822 44.308-44.263 0-24.447-19.85-44.262-44.308-44.262zm0 118.033C59.842 409.106 40 428.914 40 453.37c0 24.44 19.842 44.254 44.315 44.254 24.465 0 44.308-19.815 44.308-44.255 0-24.456-19.85-44.264-44.308-44.264z" fill="#48A0DC"/></g></svg>