<svg width="560" height="560" viewBox="0 0 560 560" xmlns="http://www.w3.org/2000/svg"><title>uncomment_code</title><path d="M503.97 214.024H364.33L378.3 237.9l69.82-124.067c4.27-7.59 1.695-17.197-5.8-21.637l-84.328-49.954c-7.74-4.584-17.737-1.908-22.147 5.928l-69.82 124.067h27.946L224.153 48.17c-4.41-7.836-14.408-10.512-22.147-5.928l-84.33 49.954c-7.493 4.44-10.068 14.048-5.798 21.637l69.82 124.067 13.973-23.876H56.03c-8.853 0-16.03 7.173-16.03 16.022v99.908c0 8.85 7.177 16.022 16.03 16.022h139.64L181.7 322.1l-69.82 124.067c-4.27 7.59-1.695 17.197 5.8 21.637l84.328 49.954c7.74 4.584 17.737 1.908 22.147-5.928l69.82-124.067h-27.946l69.82 124.067c4.41 7.836 14.408 10.512 22.147 5.928l84.33-49.954c7.493-4.44 10.068-14.048 5.798-21.637L378.302 322.1l-13.973 23.876h139.64c8.853 0 16.03-7.173 16.03-16.022v-99.908c0-8.85-7.177-16.022-16.03-16.022zm0 32.043l-16.032-16.02v99.907l16.03-16.02H364.33c-12.26 0-19.982 13.194-13.972 23.874l69.82 124.067 5.8-21.636-84.33 49.953 22.147 5.93-69.82-124.068c-6.13-10.89-21.817-10.89-27.946 0l-69.82 124.067 22.147-5.93-84.33-49.953 5.8 21.635 69.82-124.067c6.01-10.68-1.713-23.875-13.973-23.875H56.03l16.032 16.02v-99.907l-16.03 16.02h139.64c12.26 0 19.982-13.194 13.972-23.874l-69.82-124.067-5.8 21.636 84.33-49.953-22.147-5.93 69.82 124.068c6.13 10.89 21.817 10.89 27.946 0l69.82-124.067-22.147 5.93 84.33 49.953-5.8-21.635-69.82 124.067c-6.01 10.68 1.713 23.875 13.973 23.875h139.64z" fill="#000" fill-rule="evenodd"/></svg>