<svg width="560" height="560" viewBox="0 0 560 560" xmlns="http://www.w3.org/2000/svg"><title>wand</title><g fill="none" fill-rule="evenodd"><path d="M445.563 40.015c-3.968 36.038-23.82 56.078-59.55 60.082 35.73 3.998 55.582 24.038 59.55 60.076 3.967-36.038 23.82-56.078 59.542-60.075-35.723-4.005-55.575-24.045-59.543-60.083zM175.78 144.97c-3.015 27.03-18.112 42.053-45.285 45.067 27.172 2.993 42.262 18.016 45.285 45.053 3.022-27.03 18.113-42.053 45.278-45.053-27.165-3.007-42.255-18.037-45.278-45.067zM267.002 40c-2.977 27.023-17.872 42.053-44.685 45.06 26.813 3 41.708 18.03 44.685 45.06 2.978-27.03 17.873-42.053 44.685-45.06-26.812-3.008-41.707-18.038-44.685-45.06z" fill="#FC6"/><path d="M329.592 207.964l32.12-31.554c11.828-11.602 31.005-11.602 42.833 0 11.827 11.588 11.827 30.405 0 42l-31.802 31.243-43.15-41.69z" fill="#CCC"/><path d="M329.59 207.963L63.873 469c-11.828 11.603-11.828 30.413 0 42.007 11.827 11.603 31.005 11.603 42.84 0l266.032-261.352-43.155-41.692z" fill="#4D4D4D"/></g></svg>