<?xml version="1.0" encoding="UTF-8" standalone="no"?>
<svg width="640px" height="360px" viewBox="0 0 640 360" version="1.1" xmlns="http://www.w3.org/2000/svg" xmlns:xlink="http://www.w3.org/1999/xlink" xmlns:sketch="http://www.bohemiancoding.com/sketch/ns">
    <!-- Generator: Sketch 3.4.2 (15855) - http://www.bohemiancoding.com/sketch -->
    <title>login</title>
    <desc>Created with Sketch.</desc>
    <defs>
        <linearGradient x1="50%" y1="0%" x2="50%" y2="100%" id="linearGradient-1">
            <stop stop-color="#23252D" offset="0%"></stop>
            <stop stop-color="#243039" offset="100%"></stop>
        </linearGradient>
        <linearGradient x1="52.8031111%" y1="100%" x2="52.8031116%" y2="0%" id="linearGradient-2">
            <stop stop-color="#FCFCFC" offset="0%"></stop>
            <stop stop-color="#FFFFFF" offset="100%"></stop>
        </linearGradient>
        <linearGradient x1="50%" y1="0%" x2="50%" y2="100%" id="linearGradient-3">
            <stop stop-color="#FFFFFF" offset="0%"></stop>
            <stop stop-color="#F5F5F5" offset="100%"></stop>
        </linearGradient>
        <filter x="-50%" y="-50%" width="200%" height="200%" filterUnits="objectBoundingBox" id="filter-4">
            <feOffset dx="0" dy="0" in="SourceAlpha" result="shadowOffsetOuter1"></feOffset>
            <feGaussianBlur stdDeviation="5" in="shadowOffsetOuter1" result="shadowBlurOuter1"></feGaussianBlur>
            <feColorMatrix values="0 0 0 0 0   0 0 0 0 0   0 0 0 0 0  0 0 0 0.18492697 0" in="shadowBlurOuter1" type="matrix" result="shadowMatrixOuter1"></feColorMatrix>
            <feMerge>
                <feMergeNode in="shadowMatrixOuter1"></feMergeNode>
                <feMergeNode in="SourceGraphic"></feMergeNode>
            </feMerge>
        </filter>
        <rect id="path-5" x="0.285992218" y="0" width="146.428016" height="146" rx="200"></rect>
        <filter x="-50%" y="-50%" width="200%" height="200%" filterUnits="objectBoundingBox" id="filter-7">
            <feOffset dx="1" dy="1" in="SourceAlpha" result="shadowOffsetOuter1"></feOffset>
            <feGaussianBlur stdDeviation="2" in="shadowOffsetOuter1" result="shadowBlurOuter1"></feGaussianBlur>
            <feColorMatrix values="0 0 0 0 0   0 0 0 0 0   0 0 0 0 0  0 0 0 0.0508237092 0" in="shadowBlurOuter1" type="matrix" result="shadowMatrixOuter1"></feColorMatrix>
            <feMerge>
                <feMergeNode in="shadowMatrixOuter1"></feMergeNode>
                <feMergeNode in="SourceGraphic"></feMergeNode>
            </feMerge>
        </filter>
        <filter x="-50%" y="-50%" width="200%" height="200%" filterUnits="objectBoundingBox" id="filter-8">
            <feOffset dx="1" dy="1" in="SourceAlpha" result="shadowOffsetOuter1"></feOffset>
            <feGaussianBlur stdDeviation="2" in="shadowOffsetOuter1" result="shadowBlurOuter1"></feGaussianBlur>
            <feColorMatrix values="0 0 0 0 0   0 0 0 0 0   0 0 0 0 0  0 0 0 0.0508237092 0" in="shadowBlurOuter1" type="matrix" result="shadowMatrixOuter1"></feColorMatrix>
            <feMerge>
                <feMergeNode in="shadowMatrixOuter1"></feMergeNode>
                <feMergeNode in="SourceGraphic"></feMergeNode>
            </feMerge>
        </filter>
        <filter x="-50%" y="-50%" width="200%" height="200%" filterUnits="objectBoundingBox" id="filter-9">
            <feOffset dx="1" dy="1" in="SourceAlpha" result="shadowOffsetOuter1"></feOffset>
            <feGaussianBlur stdDeviation="2" in="shadowOffsetOuter1" result="shadowBlurOuter1"></feGaussianBlur>
            <feColorMatrix values="0 0 0 0 0   0 0 0 0 0   0 0 0 0 0  0 0 0 0.0508237092 0" in="shadowBlurOuter1" type="matrix" result="shadowMatrixOuter1"></feColorMatrix>
            <feMerge>
                <feMergeNode in="shadowMatrixOuter1"></feMergeNode>
                <feMergeNode in="SourceGraphic"></feMergeNode>
            </feMerge>
        </filter>
    </defs>
    <g id="Ships" stroke="none" stroke-width="1" fill="none" fill-rule="evenodd" sketch:type="MSPage">
        <g id="login" sketch:type="MSArtboardGroup">
            <rect id="Rectangle-108" fill="url(#linearGradient-1)" sketch:type="MSShapeGroup" x="0" y="0" width="640" height="360"></rect>
            <rect id="Rectangle-108-Copy" opacity="0.959701493" fill="url(#linearGradient-2)" sketch:type="MSShapeGroup" x="0" y="0" width="640" height="360"></rect>
            <g id="Rectangle-77-+-Oval-9" sketch:type="MSLayerGroup" transform="translate(14.000000, 13.000000)" fill="#FFFFFF">
                <rect id="Rectangle-77" sketch:type="MSShapeGroup" x="0" y="83" width="613" height="282" rx="4"></rect>
                <circle id="Oval-9" sketch:type="MSShapeGroup" cx="306.5" cy="81.5" r="81.5"></circle>
            </g>
            <g id="Oval-9-+-Rectangle-5-+-Stroke-1703" sketch:type="MSLayerGroup" transform="translate(239.000000, 13.000000)">
                <circle id="Oval-9-Copy" fill="url(#linearGradient-3)" filter="url(#filter-4)" sketch:type="MSShapeGroup" cx="81.5" cy="81.5" r="81.5"></circle>
                <g id="Rectangle-5-+-Stroke-1703" transform="translate(8.000000, 9.000000)">
                    <mask id="mask-6" sketch:name="Rectangle 5" fill="white">
                        <use xlink:href="#path-5"></use>
                    </mask>
                    <use id="Rectangle-5" stroke="#259AD1" stroke-width="6" stroke-linejoin="round" sketch:type="MSShapeGroup" xlink:href="#path-5"></use>
                    <path d="M60.4687024,92.8607172 C60.4687024,92.8607172 50.6952292,89.5996256 50.6952292,73.2941679 C45.3133033,73.2941679 45.3133033,60.2498018 50.6952292,60.2498018 C50.6952292,58.0648704 40.921756,34.1610694 57.210878,37.422161 C60.4687024,24.3777948 96.3047708,24.3777948 99.5625952,37.422161 C101.820267,46.47169 96.3047708,58.6486058 96.3047708,60.2498018 C101.686697,60.2498018 101.686697,73.2941679 96.3047708,73.2941679 C96.3047708,89.5996256 86.5312976,92.8607172 86.5312976,92.8607172 L86.5312976,109.166175 C102.67056,115.222022 118.650188,120.240842 126.833843,125.960796 C140.184408,112.417483 148.429961,93.8227392 148.429961,73.2941679 C148.429961,31.8685221 114.880885,-1.7109375 73.5,-1.7109375 C32.1158567,-1.7109375 -1.42996109,31.8685221 -1.42996109,73.2941679 C-1.42996109,93.8618723 6.84491287,112.489227 20.2345711,126.039062 C28.900384,120.038654 45.987673,114.64807 60.4687024,109.166175 L60.4687024,92.8607172 L60.4687024,92.8607172 Z" id="Stroke-1703" stroke="#259AD1" stroke-width="6" stroke-linejoin="round" sketch:type="MSShapeGroup" mask="url(#mask-6)"></path>
                </g>
            </g>
            <g id="facebook-2-+-twitter-2-+-google-2" sketch:type="MSLayerGroup" transform="translate(207.000000, 264.000000)">
                <g id="facebook-2">
                    <rect id="Rectangle-1" fill="#2B4E98" sketch:type="MSShapeGroup" x="0.159553524" y="0" width="67.6614931" height="68.7135289" rx="100"></rect>
                    <g id="Gradient"></g>
                    <path d="M37.2116506,55.2300584 L37.2116506,36.1876505 L43.9638393,36.1876505 L44.9744948,28.7657036 L37.2116506,28.7657036 L37.2116506,24.0268695 C37.2116506,21.8793057 37.842356,20.4151933 41.0968898,20.4151933 L45.2475656,20.4128077 L45.2475656,13.7756967 C44.5299473,13.6850469 42.0658506,13.4834705 39.1989011,13.4834705 C33.2142468,13.4834705 29.1170107,16.9418771 29.1170107,23.2933223 L29.1170107,28.7657036 L22.348379,28.7657036 L22.348379,36.1876505 L29.1170107,36.1876505 L29.1170107,55.2300584 L37.2116506,55.2300584" id="Fill-203" fill="#FFFFFF" filter="url(#filter-7)" sketch:type="MSShapeGroup"></path>
                </g>
                <g id="twitter-2" transform="translate(79.337548, 0.000000)">
                    <rect id="Rectangle-1" fill="#10A2E6" sketch:type="MSShapeGroup" x="0" y="0" width="67.6614931" height="68.7135289" rx="100"></rect>
                    <g id="Gradient-2"></g>
                    <path d="M54.9749632,21.4472396 C53.4479278,22.2028814 51.8070762,22.6703368 50.1067731,22.8591614 C51.8432366,21.8054839 53.1930267,20.1071834 53.8158703,18.1527554 C52.1834999,19.075037 50.3618463,19.7967544 48.484043,20.2706381 C46.8697015,18.499475 44.6568044,17.4467944 42.2249415,17.4467944 C37.5071255,17.4467944 33.6948723,21.3301772 33.6476542,26.1536457 C33.6948723,26.8001302 33.770157,27.4614528 33.8794728,28.0362081 C26.8398116,27.735041 20.5668738,24.2816689 16.261261,19.0940366 C15.635427,20.3143374 15.2157294,21.8054839 15.1021681,23.3298021 C15.2157294,26.4033367 16.7184602,29.058894 19.0430839,30.6247315 C17.6070572,30.5687629 16.2946131,30.1780089 15.1021681,29.44813 C15.1463726,29.5650021 15.1463726,29.601239 15.1021681,29.6834503 C15.1463726,33.8409508 18.080699,37.3468663 22.0567254,38.1549812 C21.2610346,38.340964 20.50878,38.4472588 19.7385396,38.3903015 C19.1832944,38.4472588 18.6503733,38.3929035 18.1158096,38.3903015 C19.2141196,41.7369611 22.3577021,44.2445513 25.9976412,44.2733092 C23.1698288,46.6416192 19.4992532,48.0276788 15.5658053,48.038434 C14.8227075,48.0276788 14.1451449,47.9866104 13.4794381,47.8031137 C17.246639,50.3679756 21.7222277,51.8035589 26.4612783,51.8035589 C42.1884135,51.8035589 50.7513115,38.5873746 50.8022288,27.0949269 C50.7513115,26.7493986 50.7436052,26.3755551 50.8022288,25.9183254 C52.3897919,24.7805296 53.8338362,23.2531462 54.9749632,21.4472396" id="Fill-205" fill="#FFFFFF" filter="url(#filter-8)" sketch:type="MSShapeGroup"></path>
                </g>
                <g id="google-2" transform="translate(158.355990, 0.000000)">
                    <rect id="Rectangle-3" fill="#D93526" sketch:type="MSShapeGroup" x="0.159553524" y="0" width="67.6614931" height="68.7135289" rx="100"></rect>
                    <g id="Gradient-8"></g>
                    <path d="M54.3468946,19.5588436 L54.3468946,22.8403874 L47.8572481,22.8403874 L47.8572481,29.4230045 L44.61573,29.4230045 L44.61573,22.8403874 L38.1759622,22.8403874 L38.1759622,19.5588436 L44.61573,19.5588436 L44.61573,12.9963661 L47.8572481,12.9963661 L47.8572481,19.5588436 L54.3468946,19.5588436 L54.3468946,19.5588436 Z M28.0655989,12.9963661 L39.1260623,12.9963661 L35.7138748,15.0261997 L32.2890674,15.0261997 C33.4945707,15.7957788 34.4224358,16.8570778 35.0744653,18.2479348 C35.7210862,19.6375713 36.05281,21.0803033 36.05281,22.5901674 C36.05281,23.8559145 35.8569006,24.9873972 35.4801057,25.9650861 C35.1003061,26.9433853 34.6279603,27.7501922 34.0696788,28.3287497 C33.5222144,28.9457556 32.9531158,29.4883059 32.4050505,29.9936282 C31.8335482,30.49773 31.3702166,31.0225817 30.9958255,31.569404 C30.5829736,32.1070719 30.402689,32.6770852 30.402689,33.2977529 C30.402689,33.7438769 30.531893,34.1741332 30.8065266,34.6007278 C31.0937801,35.0407489 31.4639646,35.449645 31.9050611,35.8377912 C32.3605803,36.2277682 32.8425413,36.6403261 33.3990199,37.0754648 C33.9218454,37.497177 34.4626993,37.9799185 35.0047552,38.4986673 C35.546811,39.0180264 36.0437957,39.5782751 36.4674647,40.1861267 C36.9319981,40.79764 37.3039855,41.5293809 37.5605906,42.3642613 C37.8346233,43.2174505 37.9746444,44.1255661 37.9746444,45.11363 C37.9746444,47.8385869 36.8088036,50.2535151 34.4338538,52.3492603 C31.893643,54.5829316 28.3372278,55.7144142 23.8222991,55.7144142 C22.8475601,55.7144142 21.8241442,55.6210395 20.7959208,55.4495472 C19.7767115,55.2829373 18.7442814,54.9906071 17.7232693,54.5878139 C16.6926421,54.1929545 15.776796,53.6937351 14.967318,53.0999203 C14.1938968,52.5207525 13.5400645,51.7554455 13.0424788,50.8235285 C12.5214562,49.8733028 12.2804757,48.8400772 12.2804757,47.6994402 C12.2804757,46.6613323 12.5839549,45.5023864 13.2101435,44.2378599 C13.7365747,43.1295684 14.5700908,42.1970411 15.6403807,41.3963371 C16.7226895,40.6035669 17.9330005,39.9957153 19.2935487,39.5703413 C20.6534959,39.1529011 21.9713767,38.8465342 23.2267588,38.6475788 C24.4785353,38.4565571 25.7291098,38.3363295 27.0169432,38.303984 C25.9226153,36.871627 25.3853671,35.6064902 25.3853671,34.4756178 C25.3853671,34.2809345 25.4015927,34.0679423 25.4502696,33.8769207 C25.4809179,33.6730829 25.5121673,33.5205098 25.5812764,33.381363 C25.632958,33.2428266 25.6864424,33.0475329 25.77358,32.8211143 C25.867328,32.5934751 25.9226153,32.4036741 25.9442495,32.2694097 C25.2669802,32.3621742 24.6960788,32.3994021 24.176859,32.3994021 C21.6793156,32.3994021 19.5056836,31.5602496 17.7232693,29.8770623 C15.9372494,28.199978 15.0424366,26.0993505 15.0424366,23.5782313 C15.0424366,21.1681854 15.8392947,19.021786 17.4426262,17.1262168 C19.0213188,15.2440741 20.992431,14.0393563 23.3451458,13.5096223 C24.928045,13.1580937 26.513949,12.9963661 28.0655989,12.9963661 L28.0655989,12.9963661 Z M31.4032688,25.1863526 C31.4032688,24.153127 31.2584401,23.072909 30.9729894,21.9145734 C30.6881397,20.754407 30.2957201,19.6375713 29.7783031,18.5628459 C29.2765108,17.4826278 28.5493627,16.5922107 27.6461366,15.8830506 C26.7591361,15.1879272 25.7555516,14.8315163 24.6335801,14.8315163 C23.0596951,14.8315163 21.8662107,15.4338752 20.992431,16.6068578 C20.1252619,17.7938771 19.7039967,19.207315 19.7039967,20.8428994 C19.7039967,21.6545887 19.8079609,22.4888588 19.9870436,23.3829376 C20.1835539,24.2733547 20.4900378,25.1674335 20.887265,26.0529682 C21.2935064,26.9385029 21.756838,27.753854 22.2988938,28.4538597 C22.8541706,29.1679022 23.5013925,29.7434082 24.2772174,30.197466 C25.0464319,30.62284 25.8739385,30.8602439 26.7501219,30.8602439 C28.381698,30.8602439 29.5523463,30.3451568 30.284302,29.3070489 C31.024671,28.268941 31.4032688,26.9018854 31.4032688,25.1863526 L31.4032688,25.1863526 Z M34.4224358,47.3106837 C34.4224358,46.9481698 34.3851769,46.6064059 34.2956356,46.2725758 C34.2193151,45.9338634 34.1508069,45.6372611 34.0696788,45.3546956 C33.985546,45.0672477 33.8292993,44.7706455 33.6201691,44.4642785 C33.4152455,44.1542498 33.245177,43.8899931 33.0943388,43.6861553 C32.9447026,43.4725529 32.7169429,43.2174505 32.4266847,42.9257306 C32.1195998,42.6285181 31.893643,42.419798 31.7355935,42.2721071 C31.5547079,42.1183134 31.2854828,41.9053212 30.919505,41.6044469 C30.531893,41.3212711 30.2818982,41.1217054 30.1412762,41.0338232 C29.9892362,40.92275 29.7043864,40.7189122 29.2831213,40.4271923 C28.8858941,40.1495091 28.6383032,39.9584875 28.5241229,39.9035612 C28.2597054,39.8620612 27.8246184,39.8431422 27.2693417,39.8431422 C26.3510919,39.8431422 25.4526733,39.9084435 24.5843023,40.0243991 C23.7171331,40.1495091 22.7892681,40.3533469 21.8662107,40.6676476 C20.9167115,40.9648602 20.100022,41.3676533 19.3626578,41.8406302 C18.6709657,42.3270335 18.0964586,42.9721129 17.6409394,43.7600007 C17.1709974,44.5796239 16.9702804,45.4975041 16.9702804,46.5264576 C16.9702804,47.6860137 17.2346979,48.7198496 17.8554781,49.6328474 C18.4612345,50.55561 19.230449,51.2647701 20.1979767,51.7926733 C21.1643024,52.3077604 22.1769012,52.7056712 23.2513977,52.9558912 C24.2988516,53.2109936 25.3853671,53.3458683 26.4646712,53.3458683 C27.4394102,53.3458683 28.3979236,53.2384567 29.2831213,53.0297366 C30.1947607,52.803318 31.0499109,52.4792526 31.8335482,52.0251948 C32.6436272,51.5699165 33.2608016,50.9400944 33.7331474,50.1332875 C34.1862629,49.3313628 34.4224358,48.3951738 34.4224358,47.3106837 L34.4224358,47.3106837 Z" id="Fill-209" fill="#FFFFFF" filter="url(#filter-9)" sketch:type="MSShapeGroup"></path>
                </g>
            </g>
            <text id="Login" sketch:type="MSTextLayer" font-family="Helvetica Neue" font-size="34" font-weight="normal" sketch:alignment="middle" fill="#8B96A7">
                <tspan x="278.306" y="228">Login</tspan>
            </text>
        </g>
    </g>
</svg>